<?xml version="1.0" standalone="no"?>
<!DOCTYPE svg PUBLIC "-//W3C//DTD SVG 1.1//EN" "http://www.w3.org/Graphics/SVG/1.1/DTD/svg11.dtd" >
<svg xmlns="http://www.w3.org/2000/svg" xmlns:xlink="http://www.w3.org/1999/xlink" version="1.1">
<metadata>
Created by FontForge 20201107 at Fri Aug 22 14:20:51 2014
 By 
Planewalker (c) (Neale Davidson). 2011-2014. All Rights Reserved
</metadata>
<defs>
<font id="Planewalker" horiz-adv-x="1650" >
  <font-face 
    font-family="Planewalker"
    font-weight="400"
    font-stretch="normal"
    units-per-em="2048"
    panose-1="2 0 5 0 0 0 0 0 0 0"
    ascent="1638"
    descent="-410"
    x-height="797"
    cap-height="1485"
    bbox="-120 -680 2354 1903"
    underline-thickness="150"
    underline-position="-292"
    unicode-range="U+001D-F002"
  />
<missing-glyph 
d="M0 200v1100q0 200 200 200h1100q200 0 200 -200v-1100q0 -200 -200 -200h-1100q-200 0 -200 200zM1475 201v1099q0 175 -175 175h-1100q-174 0 -175 -175v-1100q1 -175 175 -175h1101q174 0 174 176z" />
    <glyph glyph-name=".notdef" 
d="M0 200v1100q0 200 200 200h1100q200 0 200 -200v-1100q0 -200 -200 -200h-1100q-200 0 -200 200zM1475 201v1099q0 175 -175 175h-1100q-174 0 -175 -175v-1100q1 -175 175 -175h1101q174 0 174 176z" />
    <glyph glyph-name=".null" horiz-adv-x="0" 
 />
    <glyph glyph-name=".null" horiz-adv-x="0" 
 />
    <glyph glyph-name="nonmarkingreturn" horiz-adv-x="508" 
 />
    <glyph glyph-name="space" unicode=" " horiz-adv-x="715" 
 />
    <glyph glyph-name="space" unicode="&#xa0;" horiz-adv-x="715" 
 />
    <glyph glyph-name="exclam" unicode="!" horiz-adv-x="348" 
d="M82 1389h88q68 0 68 -70v-14l-70 -891q-4 -43 -31 -43h-31q-22 0 -24 39l-70 905q0 74 70 74zM0 100q0 52 37 88q35 35 86 35t88 -35.5t37 -87.5q0 -51 -37 -86q-37 -37 -88 -37t-86 37q-37 35 -37 86z" />
    <glyph glyph-name="quotedbl" unicode="&#x22;" horiz-adv-x="866" 
d="M0 1194q29 48 84 121.5t88 81.5h4q25 0 111 -67q80 -68 80 -103q0 -4 -2 -8q-68 -72 -176 -184q-111 -113 -138 -127q-12 -4 -22 -4q-12 0 -19 8q-8 8 -8 16q0 6 4 14l115 119q2 8 2 15q0 14 -8 24q-12 12 -45 33q-35 18 -47 29q-15 10 -23 32zM399 1194q29 48 84 121.5
t88 81.5h4q25 0 111 -67q80 -68 80 -103q0 -4 -2 -8q-68 -72 -176 -184q-111 -113 -138 -127q-12 -4 -22 -4q-12 0 -19 8q-8 8 -8 16q0 6 4 14l115 119q2 8 2 15q0 14 -8 24q-12 12 -45 33q-35 18 -47 29q-15 10 -23 32z" />
    <glyph glyph-name="numbersign" unicode="#" horiz-adv-x="1006" 
d="M695 1048h127l76 2q0 -10 2 -41v-47q-10 -56 -80 -92l-14 10q-25 19 -53 19h-59l-1 -171h135l76 2q0 -10 2 -41v-47q-10 -56 -80 -92l-14 10q-25 19 -53 19h-67l-1 -234q94 40 113 40q33 -4 33 -21q0 -12 -31 -31q-125 -74 -309 -101q-7 5 -9 96q-123 -70 -301 -96
q-11 8 -11 234v107l-149 7q-15 27 -27 129q90 0 177 3q0 84 1 180l-157 8q-15 27 -27 129q94 0 185 3q1 34 1 69q0 36 -98 107q-22 17 -22 28q32 17 143 45q113 30 151 30q23 0 23 -11q3 -17 5 -58q38 15 131 39q113 30 151 30q23 0 23 -11q8 -42 8 -224v-28zM486 579
q-33 -1 -104 -3l-1 -231q80 34 105 39v195zM385 1045q27 2 54 5q14 -1 50 -1q1 25 1 52q0 36 -98 107q-5 4 -9 7q2 -54 2 -139v-31zM488 899q-30 0 -104 -3l-1 -172l62 6q12 0 42 -1q0 80 1 170z" />
    <glyph glyph-name="dollar" unicode="$" horiz-adv-x="1126" 
d="M533 1372q14 9 14 31q0 8 -2 16.5t-2 16.5q0 18 12 22q19 7 29 7q8 0 10 -5q4 -4 4 -18q0 -8 -2 -20.5t-2 -22.5q0 -14 4 -25q4 -12 31 -22t74 -19q45 -10 96 -22q49 -12 72 -27q18 39 49 80q12 17 22 17q13 0 17 -33q-13 -37 -29 -90q-18 -54 -22 -74q-13 -41 -17 -74
t-6 -41t-14 -14h-2q-17 0 -88 49q-80 51 -129 78q-25 12 -39 12q-15 0 -19 -14q-2 -76 -2 -189q0 -112 17 -126q18 -15 61 -15q23 0 49 4q68 8 113 8h18q47 -4 101 -49q63 -55 73 -147q2 -23 2 -51q0 -84 -18 -211q-27 -62 -94.5 -168.5t-149.5 -149.5q-67 -37 -117 -47
q-49 -12 -57 -14q-14 -8 -14 -182q0 -168 -29 -168h-4q-23 6 -25 65q-2 39 -2 96v64q0 102 -6 115q0 8 -180 71q-152 51 -199 51q-10 0 -16 -2q-6 0 -21 -30q-18 -35 -49 -154q-43 6 -45 41v10q0 33 23 84q24 58 24 60q56 207 76 215q6 4 12 4q5 0 9 -2q8 -6 14 -15
q6 -10 18 -22q13 -14 23 -23q74 -47 190 -110q88 -49 117 -49q10 0 12 4q5 112 7 288q0 177 -13 189q-12 18 -41 18q-8 0 -18 -2q-45 -8 -105 -14q-14 -2 -26 -2q-47 0 -88 22q-56 29 -103 117q-30 62 -30 154q0 47 8 102q24 162 137 240q72 49 117 65q43 15 96 25
q53 8 74 22zM373 1250q-84 -15 -113 -115q-12 -41 -12 -80q0 -57 27 -113q43 -92 143 -92q29 -6 49 -6q31 0 45 12q23 19 23 86q0 66 -2 138q2 53 2 90t-8 51q-9 20 -74 26q-39 5 -60 5q-14 0 -20 -2zM649 660q-47 -11 -57 -29q-10 -16 -10 -68v-18q2 -68 4 -145v-250
q18 -31 57 -31q9 0 19 2q53 8 102 45q53 41 80 174q18 90 18 139q0 23 -4 37q-45 148 -170 148q-18 0 -39 -4z" />
    <glyph glyph-name="percent" unicode="%" horiz-adv-x="1251" 
d="M224 1147q-12 -39 -12 -85q0 -101 41.5 -186t98.5 -85q22 0 46 16q23 12 46 25q19 17 25 51t6 51q0 93 -41 201t-118 108q-11 0 -25 -4q-16 -12 -35.5 -32.5t-31.5 -59.5zM751 511q-12 -39 -12 -85q0 -101 41.5 -186t98.5 -85q22 0 46 16q23 12 46 25q19 17 25 51t6 51
q0 93 -41 201t-118 108q-11 0 -25 -4q-16 -12 -35.5 -32.5t-31.5 -59.5zM540 775q-67 -74 -179 -90q-185 0 -245 96.5t-60 267.5q0 115 79 196.5t201 99.5q12 2 35 2q79 0 146 -48t87 -118.5t20 -158.5q0 -75 -20 -136q30 48 52 90q57 117 90 182q133 258 232 258q6 0 21 -3
q17 -10 22 -16q20 -26 68 -56q39 -26 40 -27q15 -12 15 -29q-5 -14 -25 -14h-27q-72 0 -117 -71q-161 -294 -288 -536l-30 -60q2 3 5 6q79 81 201 99q12 2 35 2q79 0 146 -48t87 -118.5t20 -158.5q0 -139 -68.5 -229t-194.5 -108q-185 0 -245 96.5t-60 267.5q0 54 18 101
q-16 -22 -33 -54q-22 -51 -45 -99q-79 -167 -170 -261q-39 -41 -116 -78q-31 -16 -66 -29q-58 0 -171 141q0 12 17 12q11 0 38 -4t38 -4q45 10 122 90q66 69 200 303q105 185 125 244z" />
    <glyph glyph-name="ampersand" unicode="&#x26;" horiz-adv-x="1626" 
d="M205 1131q2 80 57 143q54 64 142 103q86 38 178 49q16 2 35 2q53 0 112 -15q80 -18 125 -61q27 -29 27 -64q0 -20 -10 -43q-5 -14 -43 -59q-33 -41 -52 -41q-4 0 -6 2q-8 19 -33 57q-24 39 -63 82q-41 43 -86 54q-27 6 -51 6q-80 0 -129 -74q-39 -59 -39 -123
q0 -39 14 -78q35 -88 92 -118q58 -33 172 -62q113 -31 174 -63q11 -4 78 -117q68 -115 115 -178q41 -58 63 -58q5 0 7 2q34 17 63 74q27 55 109 246q47 111 127 125q10 2 20 2q66 0 119 -76q4 -4 4 -14q0 -21 -14 -70q-23 -74 -45 -76h-5q-16 0 -47 27q-34 27 -55 37
q-6 2 -14 2q-17 0 -35 -10q-4 0 -23 -33q-20 -37 -77 -168q-5 -10 -23 -41q-18 -33 -39 -72q-20 -41 -24 -73q-3 -15 -3 -29q0 -21 5 -41q22 -74 81 -121q46 -37 91 -37q14 0 28 4q23 4 70 56q45 51 70 67q6 4 10 4q14 0 22 -28q-45 -64 -131 -160q-88 -96 -162 -96
q-77 0 -129 43q-51 41 -88 100q-37 57 -41 57h-4q-28 0 -88 -65q-63 -70 -151 -119q-95 -51 -191 -51q-20 0 -41 2q-121 12 -203 53q-270 152 -270 498q0 24 2 49q4 63 43 131t109 119q67 49 149 61q6 2 6 6q0 2 -4 9q-12 10 -41 45q-28 34 -45 86q-14 43 -14 114v17z
M371 809q-33 -6 -94.5 -71.5t-81.5 -176.5q-6 -26 -6 -53q0 -90 59 -194q61 -105 123 -154q61 -51 123 -66q41 -10 82 -10q18 0 37 2q57 4 102 11q61 8 117 65q55 55 80 90q0 21 -35 80q-35 57 -45 90q-33 109 -113 203q-80 92 -176 143q-82 43 -148 43q-12 0 -24 -2z" />
    <glyph glyph-name="quotesingle" unicode="'" horiz-adv-x="467" 
d="M0 1194q29 48 84 121.5t88 81.5h4q25 0 111 -67q80 -68 80 -103q0 -4 -2 -8q-68 -72 -176 -184q-111 -113 -138 -127q-12 -4 -22 -4q-12 0 -19 8q-8 8 -8 16q0 6 4 14l115 119q2 8 2 15q0 14 -8 24q-12 12 -45 33q-35 18 -47 29q-15 10 -23 32z" />
    <glyph glyph-name="parenleft" unicode="(" horiz-adv-x="641" 
d="M473 1545q16 5 23 5q36 0 36 -44q0 -11 -2 -24q-122 -125 -215.5 -340t-93.5 -477q0 -196 104.5 -378t215.5 -364q0 -32 -33 -32q-66 0 -189.5 112.5t-221 291.5t-97.5 376q0 336 142.5 573.5t330.5 300.5z" />
    <glyph glyph-name="parenright" unicode=")" horiz-adv-x="641" 
d="M398.5 1244.5q142.5 -237.5 142.5 -573.5q0 -197 -97.5 -376t-221 -291.5t-189.5 -112.5q-33 0 -33 32q111 182 215.5 364t104.5 378q0 262 -93.5 477t-215.5 340q-2 13 -2 24q0 44 36 44q7 0 23 -5q188 -63 330.5 -300.5z" />
    <glyph glyph-name="asterisk" unicode="*" horiz-adv-x="1153" 
d="M414 1136q-5 85 -20 118q-21 46 -105 92q-39 22 -39 53q0 15 11 35q125 40 311 91q55 0 55 -78q0 -16 -2 -46t-2 -43v-241q87 33 114 59q37 34 55 128q9 44 39 53q8 3 18 3q8 0 18 -2q77 -107 183 -268q3 -10 3 -19q0 -37 -60 -57q-15 -5 -44.5 -12.5t-41.5 -11.5
l-234 -76q55 -66 86 -84q30 -17 83 -17q25 0 56 4q7 1 14 1q33 0 48 -21q9 -12 12 -35q-77 -105 -198 -256q-15 -11 -30 -11q-29 0 -60 42q-10 13 -26 38.5t-23 35.5l-137 189q-48 -75 -56 -111q-2 -10 -2 -21q0 -46 33 -116q10 -21 10 -37t-9 -28q-9 -13 -30 -22
q-125 41 -305 109q-22 16 -22 39q0 24 23 56q10 13 29 36.5t27 33.5l145 201q-78 22 -117 22q-7 0 -12 -1q-50 -6 -120 -71q-25 -23 -48 -23q-7 0 -14 2q-14 4 -30 21q1 131 10 324q12 36 50 36q18 0 41 -8q15 -5 43 -16t40 -15z" />
    <glyph glyph-name="plus" unicode="+" horiz-adv-x="1011" 
d="M566 900q96 -1 267 -1l76 2q0 -10 2 -41v-47q-10 -56 -80 -92l-14 10q-25 19 -53 19h-198v-307q23 5 66 39q41 29 55 29q10 0 16 -7q17 -12 17 -33q0 -28 -41 -61q-21 -15 -49 -34q-60 -56 -189 -150q-33 -26 -43 -26q-18 0 -33 26q-6 15 -6 520q-54 -2 -126 -5l-201 10
q-15 27 -27 129q183 0 354 13q-2 139 -22 183q-21 46 -105 92q-39 22 -39 53q0 15 11 35q125 40 311 91q55 0 55 -78q0 -16 -2 -46t-2 -43v-280z" />
    <glyph glyph-name="comma" unicode="," horiz-adv-x="467" 
d="M0 49q29 48 84 121.5t88 81.5h4q25 0 111 -67q80 -68 80 -103q0 -4 -2 -8q-68 -72 -176 -184q-111 -113 -138 -127q-12 -4 -22 -4q-12 0 -19 8q-8 8 -8 16q0 6 4 14l115 119q2 8 2 15q0 14 -8 24q-12 12 -45 33q-35 18 -47 29q-15 10 -23 32z" />
    <glyph glyph-name="hyphen" unicode="-" horiz-adv-x="1011" 
d="M909 901q0 -10 2 -41v-47q-10 -56 -80 -92l-14 10q-25 19 -53 19h-256q-47 0 -275 -9l-201 10q-15 27 -27 129q232 0 445 21q48 -2 383 -2z" />
    <glyph glyph-name="hyphen" unicode="&#xad;" horiz-adv-x="1011" 
d="M909 901q0 -10 2 -41v-47q-10 -56 -80 -92l-14 10q-25 19 -53 19h-256q-47 0 -275 -9l-201 10q-15 27 -27 129q232 0 445 21q48 -2 383 -2z" />
    <glyph glyph-name="period" unicode="." horiz-adv-x="463" 
d="M0 121l168 150q51 -29 127 -78q68 -47 68 -78v-4q0 -4 -162 -139q-27 0 -113 69q-88 70 -88 80z" />
    <glyph glyph-name="slash" unicode="/" horiz-adv-x="1244" 
d="M0 134q0 12 17 12q11 0 38 -4t38 -4q45 10 122 90q66 69 200 303q130 230 130 264q69 102 111 181q57 117 90 182q133 258 232 258q6 0 21 -3q17 -10 22 -16q20 -26 68 -56q39 -26 40 -27q15 -12 15 -29q-5 -14 -25 -14h-27q-72 0 -117 -71q-161 -294 -288 -536l-57 -113
q-27 -27 -62 -91q-22 -51 -45 -99q-79 -167 -170 -261q-39 -41 -116 -78q-31 -16 -66 -29q-58 0 -171 141z" />
    <glyph glyph-name="zero" unicode="0" horiz-adv-x="921" 
d="M172 618q0 -294 88 -458q62 -115 158 -115q231 0 231 479q0 211 -37 357q-63 239 -215 239q-225 0 -225 -463v-39zM0 551q0 223 94 412q117 233 320 233q200 0 313 -199q94 -163 94 -381q0 -225 -94 -407q-115 -229 -319 -229q-195 0 -310 196q-98 168 -98 375z" />
    <glyph glyph-name="one" unicode="1" horiz-adv-x="610" 
d="M344 1196v-958q0 -172 141 -172h25v-66h-510v66h33q143 0 143 172v628q0 174 -121 174h-51v64h18q150 0 271 92h51z" />
    <glyph glyph-name="two" unicode="2" horiz-adv-x="919" 
d="M819 303l-88 -297h-731v64q53 59 233 239q109 109 215 230q54 59 82 102q64 92 64 188q0 95 -58 166q-59 72 -151 72q-199 0 -311 -268l-66 24q133 377 420 377q141 0 242 -96q98 -96 98 -238q0 -180 -207 -352l-143 -119q-138 -114 -228 -215q-6 -6 -24 -28h381
q88 0 133 34q39 31 76 117h63z" />
    <glyph glyph-name="three" unicode="3" horiz-adv-x="901" 
d="M242 549l-31 57l21 12q119 72 217 146t98 168q0 63 -47 106t-111 43q-147 0 -311 -182l-51 39q170 258 416 258q108 0 184 -53q86 -60 86 -162q0 -74 -61 -143q-35 -41 -123 -107l-25 -18q17 2 39 2q113 0 185.5 -86t72.5 -201q0 -195 -164 -326q-151 -122 -350 -122
q-182 0 -287 79l37 52q123 -60 223 -60q146 0 261 96q112 97 112 240q0 94 -57 162q-57 65 -150 65q-84 0 -184 -65z" />
    <glyph glyph-name="four" unicode="4" horiz-adv-x="948" 
d="M490 424v616l-416 -616h416zM664 338v-100q0 -172 120 -172h35v-66h-487v66h39q119 0 119 170v102h-490v102l516 754h148v-770h12q76 0 111 117h61l-29 -203h-155z" />
    <glyph glyph-name="five" unicode="5" horiz-adv-x="856" 
d="M147 1174h443q86 0 102 20h64l-37 -166h-539l-53 -240q117 48 207 48q176 0 297 -117q121 -119 121 -295q0 -205 -158 -330q-145 -114 -354 -114q-123 0 -240 36l25 62q98 -27 174 -27q151 0 266 101q113 98 113 247q0 129 -84 213q-84 82 -213 82q-119 0 -222 -82l-41 9
z" />
    <glyph glyph-name="six" unicode="6" horiz-adv-x="884" 
d="M176 539q-2 -37 -2 -74q0 -141 49 -262q64 -158 187 -158q106 0 159 109q41 84 41 202q0 127 -39 217q-53 123 -163 123q-136 0 -232 -157zM188 662q136 126 273 126q149 0 239 -118q84 -109 84 -262q0 -168 -98 -295q-108 -140 -270 -140q-195 0 -312 168
q-104 148 -104 351q0 215 119 397q119 180 317 256q113 43 238 43v-64q-266 -14 -398 -213q-67 -102 -88 -249z" />
    <glyph glyph-name="seven" unicode="7" horiz-adv-x="884" 
d="M444 0h-174v18q0 166 105 416q157 377 291 578l12 18h-408q-88 0 -133 -37q-47 -37 -69 -123h-68l74 326h43q39 -20 135 -20h532v-93q-28 -41 -73 -131q-86 -168 -158 -391q-107 -330 -109 -561z" />
    <glyph glyph-name="eight" unicode="8" horiz-adv-x="885" 
d="M324 567q-184 -84 -184 -264q0 -117 75 -186q74 -72 191 -72q104 0 178 57q72 56 72 156q0 152 -199 246zM461 688q162 72 162 215q0 98 -68.5 157.5t-169.5 59.5q-84 0 -145 -45q-68 -49 -68 -131q0 -100 95 -162q18 -12 163 -80zM254 596l-26 18q-117 80 -154 129
q-47 62 -47 144q0 139 117 227q108 82 252 82q135 0 239 -72q119 -80 119 -211q0 -159 -223 -258q254 -123 254 -342q0 -157 -121 -250q-109 -83 -272 -83q-154 0 -265 77q-127 88 -127 234q0 145 136 239q36 25 118 66z" />
    <glyph glyph-name="nine" unicode="9" horiz-adv-x="884" 
d="M608 627q2 39 2 73q0 144 -49 263q-65 157 -188 157q-107 0 -158 -108q-41 -84 -41 -203q0 -127 39 -217q53 -123 164 -123q135 0 231 158zM596 504q-135 -127 -272 -127q-150 0 -240 119q-84 108 -84 262q0 166 98 297q107 141 269 141q196 0 313 -170
q104 -149 104 -354q0 -291 -192.5 -490.5t-480.5 -201.5v63q88 4 141 20q295 91 344 441z" />
    <glyph glyph-name="colon" unicode=":" horiz-adv-x="446" 
d="M0 658q31 37 86 94q53 55 74 57q47 -28 119 -80q67 -49 67 -77q0 -9 -53 -62q-55 -55 -92 -86q-21 0 -107 70q-90 69 -94 84zM0 154q0 16 78 92q82 80 92 80q6 0 55 -41q50 -43 86 -86q35 -43 35 -55q-10 -19 -155 -142q-11 0 -56 31q-47 29 -88 68q-43 36 -47 53z" />
    <glyph glyph-name="semicolon" unicode=";" horiz-adv-x="461" 
d="M1 656q0 16 71 84q72 69 84 69q21 0 103 -71q84 -74 84 -82q0 -7 -66 -64q-65 -59 -90 -82q-14 0 -94 58q-82 57 -92 88zM19 109q23 41 70 106q45 64 92 76q10 0 61 -35q49 -37 88 -71q31 -31 31 -50v-6l-162 -162q-100 -98 -133 -114q-12 -4 -20 -4q-19 0 -19 14
q-2 18 -2 21l109 108v4q0 14 -51 51q-58 41 -64 62z" />
    <glyph glyph-name="semicolon" unicode="&#x37e;" horiz-adv-x="461" 
d="M1 656q0 16 71 84q72 69 84 69q21 0 103 -71q84 -74 84 -82q0 -7 -66 -64q-65 -59 -90 -82q-14 0 -94 58q-82 57 -92 88zM19 109q23 41 70 106q45 64 92 76q10 0 61 -35q49 -37 88 -71q31 -31 31 -50v-6l-162 -162q-100 -98 -133 -114q-12 -4 -20 -4q-19 0 -19 14
q-2 18 -2 21l109 108v4q0 14 -51 51q-58 41 -64 62z" />
    <glyph glyph-name="less" unicode="&#x3c;" horiz-adv-x="982" 
d="M748 1160q134 0 134 -51q-40 -105 -71 -109q-14 0 -82 53l-74 -20q-33 0 -76 -38q-94 -18 -231 -104q-133 -54 -139 -89q18 -25 272 -145q113 -54 195 -97q90 -47 118 -73q62 -52 62 -119q0 -51 -37 -103q-33 -43 -53 -43q-15 2 -25 17q-8 14 -16 26q-60 90 -277 183
q-274 116 -387 211q-61 49 -61 75q0 39 149 168q158 96 310 157q191 91 289 101z" />
    <glyph glyph-name="equal" unicode="=" horiz-adv-x="1006" 
d="M898 1050q0 -10 2 -41v-47q-10 -56 -80 -92l-14 10q-25 19 -53 19h-256q-47 0 -275 -9l-201 10q-15 27 -27 129q232 0 445 21q48 -2 383 -2zM904 730q0 -10 2 -41v-47q-10 -56 -80 -92l-14 10q-25 19 -53 19h-256q-47 0 -275 -9l-201 10q-15 27 -27 129q232 0 445 21
q48 -2 383 -2z" />
    <glyph glyph-name="greater" unicode="&#x3e;" horiz-adv-x="982" 
d="M134 222q-134 0 -134 51q40 105 71 109q14 0 82 -53l74 20q33 0 76 38q94 18 231 104q133 54 139 89q-18 25 -272 145q-113 54 -195 97q-90 47 -118 73q-62 52 -62 119q0 51 37 103q33 43 53 43q15 -2 25 -17q8 -14 16 -26q60 -90 277 -183q274 -116 387 -211
q61 -49 61 -75q0 -39 -149 -168q-158 -96 -310 -157q-191 -91 -289 -101z" />
    <glyph glyph-name="question" unicode="?" horiz-adv-x="739" 
d="M223 340h-72v49q0 70 -16 164l-15 84q0 33 33 47q10 4 60 14q301 60 301 236q0 100 -84 194q-86 95 -185 95q-28 0 -63 -11l-49 -20q-21 -8 -45 -8q-88 0 -88 84q0 61 61 94q49 27 117 27q160 0 301 -177q61 -77 106 -174q54 -114 54 -196q0 -123 -86 -199
q-62 -57 -199 -106q-80 -29 -105 -72q-22 -35 -26 -125zM69 100q0 52 37 87.5t88 35.5t88 -35q35 -36 35 -88q0 -51 -35 -86q-37 -37 -88 -37q-53 0 -88 35q-37 35 -37 88z" />
    <glyph glyph-name="at" unicode="@" horiz-adv-x="1332" 
d="M802 866q-105 -41 -183 -90q-90 -60 -90 -95q0 -94 86 -94q47 0 99 37q92 66 92 195q0 22 -4 47zM219 187q-108 88 -170 209q-49 122 -49 290q0 230 139 396q105 125 279 196q129 46 213 46l79 -2q84 0 196 -51q137 -61 137 -141v-395q0 -25 15 -56q16 -32 37 -43
q59 -28 108 -41q29 -8 29 -35q0 -24 -51 -55q-50 -31 -82 -31q-131 0 -211 58q-17 14 -47 41q-21 14 -33 14q-14 0 -39 -16q-21 -15 -51 -41q-88 -60 -199 -60q-117 0 -168 31t-51 107q0 88 102 168q70 51 154 81q63 21 174 66q82 41 82 84q0 90 -70 145q-67 57 -201 57
l-29 -6q-158 -10 -255 -209q-60 -93 -60 -369q9 -218 175 -325q118 -98 462 -100l28 4q118 5 181.5 70.5t72.5 65.5q12 0 36 -6q7 -28 7 -37q0 -26 -87 -110q-125 -110 -262 -120q-440 1 -591 120z" />
    <glyph glyph-name="A" unicode="A" horiz-adv-x="1527" 
d="M248 598q43 186 180 694q-2 19 -56 27q-104 8 -211 14q-143 23 -143 94q242 -14 610 -28q125 0 285 18q160 19 189 19q73 0 94 -52q-37 -26 -111 -36q-41 -7 -45 -9q-14 -8 -14 -43q0 -94 49 -352q47 -235 61 -268l2 -10l58 -316q47 -229 88 -258q12 -8 55 -10
q41 0 59 -12q29 -19 29 -74q-49 -10 -74 -10l-71 10q-74 8 -205 8q-94 0 -154 -8l-53 -8q-24 24 -24 45q0 28 73 45q82 20 99 41q-68 520 -95 549q-88 -2 -307 -33q-256 -35 -280 -62q-19 -57 -45 -176q-39 -180 -39 -297q4 -41 34 -41q9 0 41 4q31 5 58 5q28 -9 28 -78
q-24 -4 -411 -29q-2 35 -2 62q0 30 14 30l10 -2l6 -4q9 -4 17 -4q16 0 39 16q18 13 147 516q6 23 15 23zM780 1313h-45q-31 0 -105 -2q-75 -2 -102 -2q-121 -457 -139 -533q8 -2 51 -2q190 0 465 29q-2 104 -57 309q-52 188 -68 201z" />
    <glyph glyph-name="B" unicode="B" horiz-adv-x="1470" 
d="M1168 25q-136 -54 -281 -54q-135 0 -375 64q-69 18 -157 18q-25 0 -74 -4l-187 -33q-8 0 -18 17q-12 14 -12 28q0 17 18 31l240 68q10 20 10 190q0 189 -14.5 440.5t-30.5 331.5q-12 64 -86 86q-8 2 -133 21q-68 10 -68 43q0 22 17 41q12 18 41 18q14 0 100 -22
q78 -21 151 -21q127 0 209 45q27 17 99 51q172 70 280 70q129 0 230 -68q114 -79 139 -225q4 -24 4 -63q0 -176 -186 -297q-15 -8 -43 -27q145 -37 241 -162q88 -112 88 -229v-4q-2 -277 -202 -354zM948 672q-49 20 -139 51q-76 25 -90 51q0 17 49 31q29 8 90 33
q133 65 146 206q0 121 -70 195q-67 72 -180 72q-14 0 -45 -4q-98 -13 -137 -101q-31 -67 -31 -205q0 -38 4 -116q2 -78 2 -115q0 -117 -2 -260q-4 -145 -4 -178q0 -150 43 -203q53 -68 217 -68q129 0 209 39q135 66 135 310v30q-10 152 -197 232z" />
    <glyph glyph-name="C" unicode="C" horiz-adv-x="1327" 
d="M934 1026q-14 6 -57 51q-217 226 -365 226q-108 0 -205 -209q-90 -193 -90 -359q39 -278 205 -465q168 -188 387 -188q23 0 188 88q175 92 209 92v-170q0 -422 -32 -422h-64q2 94 2 174v185l2 10l-129 -27q-141 -26 -307 -26q-285 0 -459 141q-108 88 -170 309
q-49 182 -49 350q0 230 139 396q105 125 279 196q129 56 213 56q143 0 268 -101q29 -24 80 -65q37 -29 59 -29q2 0 66 43q61 43 66 47q38 0 57 -55z" />
    <glyph glyph-name="D" unicode="D" horiz-adv-x="1394" 
d="M829 -20q-18 0 -231 25.5t-275 25.5q-100 0 -153 -39q-82 -60 -121 -225q-15 0 -33 59q-16 51 -16 68q0 51 32 118q37 76 93 111q36 22 143 37q6 0 22 6v-2l3 149v312q0 528 -13 555q-12 24 -131 49q-31 6 -86 18q-43 17 -43 39q0 47 37 47q272 -67 340 -67h12
q137 153 324 157h12q234 0 381 -168q168 -190 168 -546q0 -289 -121 -500q-133 -229 -344 -229zM651 1286q-191 0 -191 -164q0 -149 17 -571q14 -406 18 -406l449 -41q53 0 104 107q82 172 82 401q0 273 -137 471q-139 203 -342 203z" />
    <glyph glyph-name="E" unicode="E" horiz-adv-x="1325" 
d="M1174 205v-400q-15 -4 -21 -8l-14 -8q-10 -6 -49 -14v329q-303 -131 -478 -131q-34 0 -49 2q-268 37 -399 201q-100 125 -154 389q-10 51 -10 107q0 162 76 356q65 162 117 213q55 55 186 111q154 63 279 63q83 0 309 -178q35 -27 47 -35q98 166 123 166q8 0 28 -12
q2 0 15 -6q-6 -25 -39 -90q-150 -306 -150 -369q0 -6 52 -6q63 0 182 18q0 -16 -25 -352q-26 -338 -26 -346zM504 1270q-84 -2 -176 -121q-96 -123 -96 -244q6 -39 24 -49q14 -8 59 -8q478 0 607 29q-41 106 -170 241q-142 152 -244 152h-4zM914 698q-678 0 -682 -67
q49 -228 208 -361q158 -129 375 -129q144 0 268 56q7 24 15 233q2 111 8 266q-6 0 -72 2h-120z" />
    <glyph glyph-name="F" unicode="F" horiz-adv-x="1091" 
d="M909 901q0 -10 2 -41v-47q0 -106 -16 -182q-17 -88 -47 -88q-4 2 -17 178l-14 10q-25 19 -53 19h-256q-47 0 -60 -13q-8 -8 -8 -45v-370q-2 -17 -2 -33q0 -148 43 -193q35 -39 205 -39q53 0 102 4q47 -4 47 -47q0 -39 -67 -39h-426q-76 0 -162 -8q-84 -8 -92 -8h-37v68
q113 16 143 32q39 23 39 82v590h-161q-15 27 -27 129h82q92 0 110 10v146q0 71 -36 164q-43 102 -93 102q-10 0 -30.5 -8t-36.5 -8q-41 0 -41 49q219 112 237 112q39 0 99 -63q61 -61 80 -61q6 4 14 8q8 6 14 10q160 113 297 113q250 -43 250 -84q-82 -326 -82 -445v-4z
M627 1282q-52 0 -84 -18q-93 -54 -93 -95v-268q48 -2 383 -2l39 270q-2 27 -80 68q-86 45 -165 45z" />
    <glyph glyph-name="G" unicode="G" horiz-adv-x="1482" 
d="M1175 850l4 2q51 51 78 51q14 0 31 -12q18 -14 18 -31q0 -16 -43 -43q-45 -24 -45 -45q0 -6 23 -29q141 -141 141 -284q0 -137 -39 -183q-86 -100 -207 -157q-145 -70 -229 -92q-105 -29 -258 -29q-271 0 -461 186q-188 185 -188 445v186q0 195 166 375q215 233 595 233
q107 0 250 -100q138 -96 170 -96q23 0 72 23.5t63 23.5q29 0 41 -53l-350 -172q-28 12 -73 55q-29 26 -91 84q-131 112 -276 112q-76 0 -143 -45q-56 -34 -84 -79q-43 -68 -88 -134q-41 -75 -41 -155v-135q0 -207 147 -379q156 -185 373 -199q28 -2 65 -2q224 0 387 82l4 4
q9 8 15 21q8 24 8 81q-12 125 -98 213q-72 70 -148 82l-303 -116q-37 26 -37 67q23 4 211 74q197 74 219 90q33 21 121 80z" />
    <glyph glyph-name="H" unicode="H" horiz-adv-x="1564" 
d="M1351 41q-57 -31 -116 -64q-80 -38 -121 -38q-15 0 -31 12q-18 12 -18 26q2 -2 24 132q25 147 25 282v103q0 202 -96.5 319t-262.5 117q-71 0 -163 -51q-109 -62 -109 -140v-608q0 -45 37 -57q20 -8 80 -8h256q12 -13 12 -29q0 -14 -8 -35q-17 -14 -35 -16h-8
q-21 -4 -53 -4q-39 0 -170 8q-125 8 -177 8q-49 0 -354 -16v63q207 0 207 90l-12 893q0 49 -15 162q-12 100 -45 125q-14 10 -114 26q-84 15 -84 43q0 41 49 41l176 -30l203 22q57 0 57 -63q0 -13 -2 -33q-4 -18 -4 -23v-411q6 4 22 16q17 15 60 43q102 64 246 64
q157 0 307 -90q219 -134 219 -398q0 -90 -49 -270l-33 -119q-14 -49 -14 -59q0 -6 6 -8q12 0 92 51q78 49 92 49q10 0 25 -16q12 -17 12 -27q0 -29 -113 -82z" />
    <glyph glyph-name="I" unicode="I" horiz-adv-x="1046" 
d="M912 -8q-172 31 -211 31h-121l-506 -50v70q106 6 170 14q96 13 127 52q33 38 33 145v754l-25 196q-14 51 -39 78q-14 6 -180 14q-160 9 -160 47q0 15 17 35q18 19 32 21q88 -13 316 -37q53 -4 112 -4q158 0 172 51q2 14 7 41q2 29 41 35q32 0 32 -62q0 -47 23 -47
q22 0 88 17h51v-43q0 -41 -70 -41h-32q-64 0 -64 -35v-1147q0 -37 101 -47q120 -12 120 -53q0 -35 -34 -35zM645 1284q-34 -18 -57 -41v-1120q0 -14 57 -19v1180z" />
    <glyph glyph-name="J" unicode="J" horiz-adv-x="778" 
d="M213 -332q-63 0 -115 45q-43 39 -43 82q0 17 21 58q24 49 45 49q10 0 78 -45q69 -47 131 -47q49 0 86 63q33 53 33 90v1030q0 49 -15 152q-20 139 -49 141q-10 -2 -53 -2q-119 0 -209 27q-123 37 -123 110q0 13 19 23q20 10 34 10q13 0 47 -29q78 -53 267 -53
q92 0 162 37q77 41 96 41q53 0 53 -39v-1247q0 -119 -125 -291q-149 -205 -340 -205z" />
    <glyph glyph-name="K" unicode="K" horiz-adv-x="1530" 
d="M1209 8q-80 0 -103 8q-37 15 -98 101q-96 149 -301 442q-99 131 -131 133q-101 -24 -101 -176q0 -332 21 -389q6 -8 14 -27q19 -28 107 -28q14 0 39 2h32q23 0 33 -6q43 -25 43 -45q0 -35 -135 -35q-37 0 -109 4q-69 2 -90 2q-118 0 -233 -17q-115 -14 -123 -14
q-37 0 -47 21q-12 18 -12 30q0 56 147 56q53 0 82 -4q12 53 12 360q0 539 -4 670q-4 110 -18 176q-15 59 -35 80q-103 20 -186 20q-13 12 -13 27q0 49 62 49q20 0 98 -18q70 -17 145 -17q33 0 97 8q65 6 96 6h24q15 -2 19 -2q10 0 39 7q39 8 51 8q33 0 43 -19q16 -28 16 -43
q0 -35 -59 -35q-14 0 -49 5q-37 2 -53 2q-37 0 -45 -13q-19 -28 -19 -96q0 -14 2 -94v-207q0 -178 29 -182q37 0 108 76q27 26 50 45q94 71 305 258q90 77 235 196q4 4 8 6l11 9q61 49 90 49q35 0 51 -39q8 -21 8 -35q0 -27 -35 -43q-20 -8 -78 -31q-81 -35 -204 -153
q-39 -39 -74 -66q-33 -26 -141 -119q-33 -20 -70 -59q0 -35 41 -90q31 -37 92 -121q45 -68 152 -227q63 -92 98 -138q59 -77 113 -124q49 -41 110 -64q35 -12 45 -22q15 -15 19 -50q-135 -8 -221 -8z" />
    <glyph glyph-name="L" unicode="L" horiz-adv-x="1470" 
d="M1292 -305q0 72 3 145v86q0 56 -17 70q-12 4 -63 4h-68q-45 -2 -68 -2h-499l-183 -14q-38 -4 -184 -13q-78 -4 -84 -4q-65 0 -74 21q-4 16 -4 22q0 33 47 41q17 2 89 6q59 2 81 9q41 10 48 38v1190q-13 17 -52 25q-41 8 -151 31q-27 6 -74 14q-39 12 -39 33q0 10 19 30
q12 11 36 11q5 0 134 -21q125 -20 260 -20q129 0 233 14q105 16 109 16q28 0 55 -20q18 -14 18 -31q0 -43 -94 -49h-33q-57 0 -145 -4q-25 -4 -29 -25l-2 -1019q0 -125 21 -173q10 -22 57 -22q14 0 94 8q404 41 494 105q6 4 24 22l9 10q26 33 110 41v-575h-78z" />
    <glyph glyph-name="M" unicode="M" horiz-adv-x="1931" 
d="M1829 -10l-2 -10q-5 -17 -39 -17q-62 0 -275 53q-35 0 -102 -24q-70 -23 -101 -23q-51 0 -63 62q100 16 137 47q31 24 31 76q0 24 -10 100q-9 76 -9 131q0 588 -51 690q-61 -92 -260 -577q-94 -232 -139 -332q-68 -152 -96 -152q-23 4 -35 56q-15 51 -39 153
q-25 96 -162 436q-158 396 -219 441q-41 -135 -129 -1004q117 -24 223 -53q0 -72 -74 -72q-30 0 -84 11q-61 14 -81 16q-35 4 -50 4q-57 0 -102 -20q-43 -25 -53 -25t-23 8q-22 19 -22 37q0 25 53 45q37 10 74 22.5t51 18.5q18 10 76 498q32 295 65 588q0 106 -102 106
q-23 0 -62 -4q-41 -4 -57 -4q-51 0 -51 45q31 31 160 31q180 0 208 12q23 16 191 72q33 -56 33 -64q0 -18 -43 -25q-25 -6 -90 -34q81 -111 266 -545q80 -189 123 -301q16 -37 41 -109q47 123 204 490q160 373 191 426q12 22 12 30q0 13 -28 13q-13 0 -37 -2q-27 -2 -39 -2
q-64 0 -64 45q0 8 4 22q6 23 33 23h21q16 -2 30 -2q47 0 88 6q115 16 144 22q86 15 143 35q16 4 21 4q10 0 24 -4q23 -6 23 -43q0 -20 -17 -31q-6 0 -71 -16q-68 -16 -76 -22q-2 0 -2 -72q0 -199 37 -709q32 -491 43 -493q34 -13 133 -23q78 -8 78 -49q0 -8 -2 -12z" />
    <glyph glyph-name="N" unicode="N" horiz-adv-x="1780" 
d="M1661 1341q-4 -2 -39 -8q-115 -20 -115 -65v-1325q-86 0 -112 114q-234 234 -459 426q-10 9 -106 107q-158 160 -211 211q-160 153 -207 170q-15 -258 -15 -326v-239q-2 -125 -2 -146q0 -106 21 -137q29 -45 131 -45q23 0 61 2q39 2 54 2q49 0 59 -16q8 -15 8 -21
q0 -45 -164 -45q-22 0 -65 2h-55l-52 -2q-22 0 -98 -10q-72 -8 -108 -8q-91 0 -91 38q0 7 2 11l3 8q20 41 49 41q12 0 37 -6q22 -8 34 -8q15 0 41 10q39 22 39 547q0 372 -8 424q-6 67 -35 221q-6 26 -14 65q-4 31 -41 31q-27 0 -82 -12q-55 -15 -80 -15q-41 0 -41 31
q0 18 10 33q9 18 187 43q123 16 147 16q39 0 39 -26q0 -4 -2 -21q-4 -16 -4 -29q0 -77 111 -178q131 -123 479 -442q371 -338 426 -379q14 57 14 469q0 430 -14 459q-19 24 -94 24h-43q-66 0 -66 49q8 27 66 27h41q30 -2 53 -2q121 0 205 8l75 6q50 0 50 -45q0 -28 -19 -39z
" />
    <glyph glyph-name="O" unicode="O" horiz-adv-x="1466" 
d="M756 -29h-145q-250 0 -430 193q-181 194 -181 469v168q0 123 70 266q86 180 240 260q53 31 143 74q55 22 123 22h184q252 0 432 -202q174 -195 174 -453v-162q0 -280 -221 -471q-188 -164 -389 -164zM590 1313q-207 0 -305 -191q-59 -116 -59 -227v-170q0 -143 94 -317
q33 -109 168 -211q135 -101 244 -101h118q125 0 205 154q72 141 72 336q0 327 -144 524q-145 203 -393 203z" />
    <glyph glyph-name="P" unicode="P" horiz-adv-x="1476" 
d="M854 281h-109l-190 38q-21 -8 -21 -32v-176q0 -50 25 -50h252q131 0 272 -24q137 -25 137 -45q0 -35 -36 -39l-260 29h-519q-41 0 -143 -15q-102 -14 -154 -14q-34 0 -43 6q-12 8 -12 39q0 35 74 39q45 0 147 8q58 8 58 193v436q0 37 -25 239q-27 234 -45 283
q-8 21 -129 43q-59 10 -88 18q-45 13 -45 33q0 39 45 39q295 -59 387 -59q20 0 55 24q23 17 72 56q113 86 231 86h125q158 0 303 -136q158 -147 158 -342v-139q0 -160 -162 -342q-174 -196 -360 -196zM727 1313q-98 0 -158 -66q-45 -49 -45 -90v-397q0 -174 33 -232
q35 -41 188 -92q140 -47 185 -47q106 0 176 182q51 140 51 254q0 211 -113 346q-118 142 -317 142z" />
    <glyph glyph-name="Q" unicode="Q" horiz-adv-x="1550" 
d="M1481 -616q-133 0 -199 69q-49 55 -69 168q-15 98 -27 199q-16 94 -51 135q-47 53 -139 53q-19 0 -89 -12q-67 -12 -124 -12q-783 0 -783 741q0 41 21 154q24 122 45 163q104 213 260 301q149 87 399 87q338 0 529 -218q170 -196 182 -514v-24q0 -107 -29 -219
q-35 -131 -94 -207q-51 -68 -111 -111l-16 -12q-16 -12 -16 -21q0 -2 20 -8q150 -73 182 -172q19 -51 27 -141q14 -107 22 -143q35 -148 170 -148q56 0 93 70q34 67 57 67q6 0 51 -26q-94 -219 -311 -219zM631 1348q-195 0 -311 -123q-121 -131 -121 -363q0 -315 168 -547
q180 -252 463 -252q194 0 301 189q94 164 94 403v13q-2 258 -160 460q-174 220 -434 220z" />
    <glyph glyph-name="R" unicode="R" horiz-adv-x="1687" 
d="M1581 8l-12 -20h-312q-57 0 -174 182q-172 270 -249 348q-109 109 -248 109q-2 -226 -6 -463v-8q0 -66 38 -86q25 -15 103 -15h158q41 0 41 -37q0 -53 -68 -53l-178 17h-307l-242 -23q-47 0 -47 49q0 41 180 47q41 2 47 6q41 15 41 258v539q0 47 -12 164q-19 162 -43 188
q-15 17 -160 31q-131 12 -131 51q0 47 41 47q4 0 14 -2q62 -12 125 -22q154 -25 223 -25h119q12 0 37 21q19 16 66 51q108 74 270 74q190 0 317 -113q129 -115 129 -295q0 -119 -45 -197q-43 -69 -141 -135q-33 -20 -96 -63q69 -127 188 -289q58 -74 148 -201
q43 -65 118 -73q48 -4 50 -4q24 -9 24 -37q0 -15 -6 -21zM776 1288q-203 0 -203 -201v-159q0 -221 248 -221q111 0 182 67q78 70 78 189q0 141 -73 229q-82 96 -232 96z" />
    <glyph glyph-name="S" unicode="S" horiz-adv-x="1349" 
d="M690 -98h-20q-156 0 -428 61q-56 12 -64 12q-20 0 -61 -137q-10 -37 -31 -100q-20 -53 -37 -53q-10 0 -28 16q-21 16 -21 31q39 92 119 348q24 196 63 196q37 -36 215 -135q244 -133 385 -133q54 0 86 17q97 47 150 204q37 107 37 189q0 112 -45 178t-127 66
q-47 0 -283 -66q-244 -68 -315 -68q-105 0 -164 86q-51 76 -51 193q0 260 129 438q133 185 346 185h8q88 -3 240 -119q151 -115 153 -115q4 0 55 84q54 84 80 84q17 0 33 -16q17 -17 17 -39q-25 -25 -105 -156q-100 -168 -100 -240q0 -10 39 -10q155 -41 221 -119
q63 -79 63 -231q0 -254 -137 -436q-156 -209 -422 -215zM446 1298q-92 0 -141 -102q-43 -92 -43 -231q0 -82 37 -136q41 -59 115 -59q59 0 221 47q170 49 213 82q-295 399 -402 399z" />
    <glyph glyph-name="T" unicode="T" horiz-adv-x="1534" 
d="M1327 1292q-47 -37 -94 -55q-96 -35 -245 -35q-154 0 -162 -24v-1028q0 -58 147 -60q41 0 111 -2q57 -6 57 -39q0 -16 -12 -35q-256 6 -457 6q-98 0 -209 -24q-110 -25 -131 -25q-55 0 -55 72l311 53q33 23 33 287l-2 596q-2 141 -17 190q-12 43 -61 43h-74q-2 0 -41 2
h-73q-191 0 -234 -26q-45 -29 -45 -94v-56q-74 0 -74 84q0 74 41 146q56 98 248 98q62 0 326 -10q264 -13 399 -13q281 0 281 37q0 9 -17 31q-16 25 -16 37t10 22q74 58 103 58q26 0 43 -27q16 -24 16 -51q0 -70 -107 -158z" />
    <glyph glyph-name="U" unicode="U" horiz-adv-x="1602" 
d="M1360 6q-55 0 -106 35q-62 43 -98 115q-11 22 -15 26q-12 17 -26 19q-66 -60 -125 -105q-117 -86 -189 -94q-24 -2 -114 -20q-74 -13 -119 -13q-150 0 -287 133q-59 60 -88 177q-35 147 -35 436q0 418 -12 467q-16 65 -80 100q-39 21 -49 33q-17 20 -17 61
q134 0 224 18.5t92 18.5q61 0 61 -84q0 -18 -2 -98q-4 -82 -4 -150v-141q-2 -94 -2 -137q0 -293 41 -418q78 -238 326 -238q94 0 178 33q104 43 151 125q48 101 48 316q0 100 -13 221q-4 39 -8 202q-4 127 -20 201q-4 19 -50 64l-14 14q-31 27 -31 45q0 16 23 29
q123 30 244 30q22 0 34 -6q23 -20 23 -264v-620q0 -203 31 -287q41 -111 170 -152q-9 -35 -47 -61q-43 -31 -95 -31z" />
    <glyph glyph-name="V" unicode="V" horiz-adv-x="1382" 
d="M1127 911l-332 -843q-43 -111 -76 -123q-71 0 -104 129q-17 63 -191 506q-190 479 -254 583q-49 80 -118 142q-15 10 -35 30q-17 17 -17 29t9 27q20 14 256 55q37 0 63 -60q14 -43 55 -157q308 -778 387 -920q334 756 334 811q0 10 -8 41q-26 101 -26 154q0 12 20 78v-4
q0 6 37 18q43 14 80 14q43 0 59 -6q16 -8 16 -26q0 -82 -155 -478z" />
    <glyph glyph-name="W" unicode="W" horiz-adv-x="2199" 
d="M1808 410l-82 -230q-70 -180 -111 -188q-20 0 -45 55q-16 41 -67 150q-187 364 -244 548q-57 181 -121 271q-28 -31 -162 -398q-73 -210 -149 -421q-25 -68 -59 -166q-17 -41 -50 -51q-32 0 -387 772q-30 67 -96 243q-49 135 -74 176q-161 140 -161 193q0 4 6 16
q10 9 116 35q107 27 134 27q22 -4 167 -338q134 -307 168 -410q17 -47 78 -180q72 -156 111 -205q20 21 39 76q14 51 59 186q43 115 86 226q43 112 49 129q39 102 62 186q16 57 55 150q41 100 55 104q27 0 189 -367q127 -290 176 -421q8 -25 53 -117q55 -113 78 -144
q33 82 133 408q98 317 107 362q6 33 6 66q0 39 -11 113q-8 75 -8 116q113 33 191 33q0 -51 -125 -475q-117 -393 -166 -530z" />
    <glyph glyph-name="X" unicode="X" horiz-adv-x="1327" 
d="M1032 -27q-39 15 -71 31q-80 39 -121 82q-94 96 -174 266q-23 49 -45 99q-33 61 -60 88q-24 -23 -86 -150q-76 -151 -84 -166q-84 -137 -125 -186q-67 -76 -129 -76q-35 0 -84 35q-53 37 -53 70q0 28 109 49q26 6 41 10q26 10 102 94q72 82 92 119q39 65 107 186
q49 86 51 131q-127 242 -287 535q-39 61 -100 61h-27q-35 0 -45 31q0 29 21 47q2 2 43 29q45 28 63 51q8 10 31 23q20 4 28 4q111 0 250 -269q33 -65 90 -182q41 -78 56 -80q10 2 100 160q27 45 82 137q41 72 76 115q73 96 121 96q24 0 53 -18q31 -21 31 -43
q0 -31 -107 -103q-299 -364 -299 -448q0 -35 127 -260q133 -232 197 -299q73 -76 110 -84q8 0 35 4t39 4q37 0 37 -39q-123 -154 -195 -154z" />
    <glyph glyph-name="Y" unicode="Y" horiz-adv-x="1156" 
d="M1034 1303q-12 -29 -41 -95q-96 -237 -229 -456q-72 -117 -72 -232q0 -102 -2 -209q-2 -106 -2 -121q0 -61 18 -81q17 -19 60 -19q10 0 36 2q29 2 45 2q48 0 78 -8q25 -6 25 -39t-25 -41q-28 0 -90 4q-59 2 -90 2q-90 0 -201 -16q-90 -14 -206 -39q-76 -16 -82 -16
q-17 0 -31 14q-14 18 -14 33q0 43 145 78l39 8q41 10 47 14q41 27 41 322q0 161 -4 176q-19 69 -109 205q-127 192 -237 407q-31 62 -97 80q-32 10 -36 39q0 22 92 72q94 47 137 47q23 -4 84 -119q45 -84 125 -244q174 -344 203 -356q14 12 102 176q94 176 113 246
q14 49 32 215q9 67 72 67q19 0 96 -10q0 -57 -22 -108z" />
    <glyph glyph-name="Z" unicode="Z" horiz-adv-x="1288" 
d="M1120 -330q-26 0 -26 47q0 21 8 87.5t8 101.5q0 28 -6 53q0 10 -41 21q-61 16 -219 18q-119 2 -565 2q-113 0 -189 -8l-74 -8q-16 4 -16 24q0 37 68 135q43 58 123 168q49 70 204 264q146 183 170 224q17 26 64 86q22 30 88 114q121 158 155 232q-57 4 -174 4
q-112 0 -288 -2l-166 -4q-66 -10 -142 -23q-16 -14 -22 -26q-25 -33 -45 -33q-19 0 -27 29q0 14 15 108q14 109 24 117q29 26 395 26q172 0 455 -4q53 0 102 2l50 2q26 0 34 -30q5 -8 5 -15q0 -16 -41 -67q-68 -84 -127 -178q-191 -252 -473 -639q-17 -23 -125 -152
q-68 -80 -84 -139q194 0 352 4q160 4 168 4q61 0 114 -8q76 -4 207 -21q99 -20 109 -127q-4 -104 -8 -180q-13 -184 -29 -196q-18 -13 -31 -13z" />
    <glyph glyph-name="bracketleft" unicode="[" horiz-adv-x="1020" 
d="M532 6q10 -22 57 -22q14 0 94 8q4 11 94 55q6 4 24 22l9 10q26 33 110 41l-5 -224h-87q-12 4 -63 4h-68q-45 -2 -68 -2h-99l-183 -14q-38 -4 -184 -13q-78 -4 -84 -4q-65 0 -74 21q-4 16 -4 22q0 33 47 41q17 2 89 6q59 2 81 9q41 10 48 38v1407q-7 28 -48 38
q-22 7 -81 9q-72 4 -89 6q-47 8 -47 41q0 6 4 22q9 21 74 21q6 0 84 -4q146 -9 184 -13l183 -14h99q23 0 68 -2h68q51 0 63 4h87l5 -224q-84 8 -110 41l-9 10q-18 18 -24 22q-90 44 -94 55q-80 8 -94 8q-47 0 -57 -22q-15 -35 -19 -111l-1 -590l1 -591q4 -76 19 -111z" />
    <glyph glyph-name="backslash" unicode="\" horiz-adv-x="1244" 
d="M973 -7q-35 13 -66 29q-77 37 -116 78q-91 94 -170 261q-23 48 -45 99q-35 64 -62 91l-57 113q-127 242 -288 536q-45 71 -117 71h-27q-20 0 -25 14q0 17 15 29q1 1 40 27q48 30 68 56q5 6 22 16q15 3 21 3q99 0 232 -258q33 -65 90 -182q42 -79 111 -181q0 -34 130 -264
q134 -234 200 -303q77 -80 122 -90q11 0 38 4t38 4q17 0 17 -12q-113 -141 -171 -141z" />
    <glyph glyph-name="bracketright" unicode="]" horiz-adv-x="1020" 
d="M408 117l1 591l-1 590q-4 76 -19 111q-10 22 -57 22q-14 0 -94 -8q-4 -11 -94 -55q-6 -4 -24 -22l-9 -10q-26 -33 -110 -41l5 224h87q12 -4 63 -4h68q45 2 68 2h99l183 14q38 4 184 13q78 4 84 4q65 0 74 -21q4 -16 4 -22q0 -33 -47 -41q-17 -2 -89 -6q-59 -2 -81 -9
q-41 -10 -48 -38v-1407q7 -28 48 -38q22 -7 81 -9q72 -4 89 -6q47 -8 47 -41q0 -6 -4 -22q-9 -21 -74 -21q-6 0 -84 4q-146 9 -184 13l-183 14h-99q-23 0 -68 2h-68q-51 0 -63 -4h-87l-5 224q84 -8 110 -41l9 -10q18 -18 24 -22q90 -44 94 -55q80 -8 94 -8q47 0 57 22
q15 35 19 111z" />
    <glyph glyph-name="asciicircum" unicode="^" horiz-adv-x="680" 
d="M448 1539q-144 163 -175 163q-21 0 -69 -56q-32 -37 -114 -125q-27 -21 -47 -21q-37 0 -43 60q51 117 174 235q113 108 161 108q6 0 10 -3q58 -49 118 -115q32 -37 103 -115q3 -9 5 -19l9 -50q-52 -78 -90 -78q-23 0 -42 16z" />
    <glyph glyph-name="underscore" unicode="_" horiz-adv-x="1490" 
d="M559 -29h422q131 0 272 -14q137 -25 137 -55q0 -55 -36 -59l-260 9h-689q-91 0 -193 -15q-102 -14 -154 -14q-34 0 -43 6q-12 8 -12 79q0 35 74 39q45 0 147 8q58 8 184 12t151 4z" />
    <glyph glyph-name="grave" unicode="`" horiz-adv-x="750" 
d="M527 1499q-175 0 -275 68q-57 23 -252 213q39 21 80 21q81 0 332 -85q23 -9 58 -19t105 -72q75 -70 75 -112q-64 -14 -123 -14z" />
    <glyph glyph-name="a" unicode="a" horiz-adv-x="1032" 
d="M799 -23q-131 0 -211 58q-17 14 -47 41q-21 14 -33 14q-14 0 -39 -16q-21 -15 -51 -41q-88 -60 -199 -60q-117 0 -168 31t-51 107q0 88 102 168q70 51 154 81q63 21 174 66q82 41 82 84q0 90 -70 145q-57 47 -131 47q-14 0 -55 -12q-45 -16 -45 -28q0 -7 29 -19
q30 -12 30 -35q0 -16 -45 -39q-47 -22 -90 -22q-74 0 -113 67q-10 13 -10 35q0 72 154 129q131 47 244 47q84 0 196 -51q137 -61 137 -141v-395q0 -25 15 -56q16 -32 37 -43q59 -28 108 -41q29 -8 29 -35q0 -24 -51 -55q-50 -31 -82 -31zM502 369q-105 -41 -183 -90
q-90 -60 -90 -95q0 -94 86 -94q47 0 99 37q92 66 92 195q0 22 -4 47z" />
    <glyph glyph-name="b" unicode="b" horiz-adv-x="1005" 
d="M733 59q-103 -61 -109 -63q-55 -27 -127 -27q-157 0 -258 88q-104 88 -104 230v833q0 45 -68 97q-67 49 -67 71q0 27 69 33q35 2 94 6q136 68 156 68v-709q31 6 123 68q104 71 176 71q143 0 221 -141q66 -119 66 -287q-2 -235 -172 -338zM522 694q-57 0 -129 -63
q-70 -66 -70 -119v-203q0 -104 92 -178q78 -59 146 -59q78 0 129 98q43 86 43 188q0 172 -99 271q-67 65 -112 65z" />
    <glyph glyph-name="c" unicode="c" horiz-adv-x="813" 
d="M364 -20q-192 0 -286 110q-78 90 -78 240q0 194 94 332q111 159 309 159q64 0 162 -39q121 -47 121 -110q0 -31 -107 -109q-8 0 -20 12q-8 9 -16 17q-133 139 -217 139q-58 0 -97 -96q-37 -88 -37 -193q0 -145 70 -237q78 -103 225 -103q47 0 110.5 65.5t72.5 65.5
q12 0 26 -16q17 -18 17 -27q0 -26 -107 -110q-125 -100 -242 -100z" />
    <glyph glyph-name="d" unicode="d" horiz-adv-x="1016" 
d="M875 96q-25 -12 -82 -45l-23 -14l-47 -31q-72 -47 -80 -47q-51 0 -53 164q-14 -4 -102 -80q-103 -88 -199 -88q-98 0 -182 98q-107 125 -107 346v17q8 413 387 413l197 -84q-2 3 -4 95q-4 358 -31 395q-16 22 -74 65q-57 43 -57 62q0 12 108 39q117 29 197 29
q55 0 55 -58q0 -12 -2 -31q-4 -20 -4 -26v-1145q0 -29 15 -35q77 49 88 49q41 0 41 -45q0 -24 -41 -43zM580 524q0 72 -82 148q-68 63 -94 63q-109 0 -168 -86q-52 -74 -52 -192q0 -135 62 -240q65 -115 162 -115q37 0 102 60q70 65 70 125v237z" />
    <glyph glyph-name="e" unicode="e" horiz-adv-x="817" 
d="M666 645q-25 -12 -57 -29q-84 -41 -256 -131q-156 -86 -156 -125q0 -110 65 -184q68 -82 185 -82q53 0 120.5 52.5t86.5 52.5q16 0 39 -41q-33 -39 -111 -117q-166 -82 -260 -82q-125 0 -215 94q-107 109 -107 299q0 6 2 41q25 410 392 410q81 0 149 -55q59 -50 72 -50
q6 0 32.5 14.5t38.5 14.5q31 0 31 -39q0 -14 -51 -43zM322 711q-76 0 -119 -219q47 18 131 59q92 43 92 51q0 12 -47 60q-49 49 -57 49z" />
    <glyph glyph-name="f" unicode="f" horiz-adv-x="550" 
d="M609 1167q-8 0 -33 25q-119 119 -170 119q-96 0 -96 -195v-299q0 -18 22 -22q23 0 45 -2h13q75 0 75 -43q0 -64 -61 -64q-8 0 -25 2h-24q-58 0 -58 -72v-423q0 -119 -30 -189q-41 -88 -152 -151v739q0 72 -59 72h-23q-33 0 -33 24q0 23 54 57q51 35 51 48v172
q0 227 131 344q115 104 305 104q43 0 105 -35q67 -37 67 -71q0 -17 -39 -76q-43 -64 -65 -64z" />
    <glyph glyph-name="g" unicode="g" horiz-adv-x="1146" 
d="M485 -651q-4 0 -53 2q-193 8 -285 41q-147 53 -147 188q0 92 241 287q-47 10 -94 22q-55 21 -55 66q0 68 104 147l105 78q-13 2 -29 8q-51 11 -98 35q-111 68 -111 228q0 151 119 260q117 110 285 110q88 0 186 -45q94 -43 104 -43h260v-49q-20 -45 -22 -45
q-14 -25 -43 -25q-16 0 -45 7h-117v-78q0 -219 -162 -305q-8 -5 -24 -11l-45 -16q-291 -107 -291 -174q0 -49 113 -49h348q157 0 243 -78q74 -68 74 -172q0 -170 -153 -279q-156 -110 -408 -110zM608 471q-25 115 -88 191q-62 73 -123 73q-68 0 -111 -63q-41 -60 -41 -140
q0 -126 88 -204q70 -64 146 -64q59 0 98 45q37 45 37 113q0 20 -6 49zM573 -147q-37 2 -41 2q-154 0 -272 -74q-107 -66 -107 -135q0 -103 131 -162q113 -51 277 -51q139 0 223 84q68 69 68 155q0 78 -48 117q-63 53 -231 64z" />
    <glyph glyph-name="h" unicode="h" horiz-adv-x="1120" 
d="M875 143q18 2 108 72q37 -29 37 -49q0 -25 -45 -49q-29 -15 -90 -49q-35 -25 -70 -48q-47 -30 -73 -30q-21 0 -31 18q-8 15 -8 86q0 31 2 82v62q0 213 -29 307q-43 149 -170 162q-18 0 -86 -33q-67 -33 -76 -45q-4 -4 -4 -97q0 -55 4 -198q2 -144 2 -201q0 -67 -2 -92
q-53 -29 -198 -84q-9 16 -9 127q0 66 5 362q4 297 4 480v67q0 164 -21 209q-14 33 -104 94q-21 15 -21 25q0 14 25 16q29 4 131 31q92 25 127 25q29 0 43 -17q-4 -196 -4 -358q0 -297 4 -301q2 2 20 16q117 90 220 90q104 0 208 -78q101 -75 101 -509v-93z" />
    <glyph glyph-name="i" unicode="i" horiz-adv-x="627" 
d="M252 1040q-43 19 -43 41q0 9 15 33q14 27 51 117q6 18 22 45q21 24 117 33q70 0 70 -47q0 -58 -78 -136q-82 -79 -154 -86zM486 141l-49 -28q-60 -45 -189 -121q-33 -21 -43 -21q-18 0 -33 21q-6 12 -6 442v76q0 131 -22 170q-21 37 -105 74q-39 18 -39 43q0 12 11 28
q125 33 311 74q55 0 55 -63q0 -13 -2 -37.5t-2 -34.5v-596q23 4 66 31q41 24 55 24q10 0 16 -6q17 -10 17 -27q0 -22 -41 -49z" />
    <glyph glyph-name="j" unicode="j" horiz-adv-x="717" 
d="M483 993q-43 -28 -67 -28q-27 0 -35 22q0 12 12 33q13 18 31 63q16 41 33 72q10 21 33 25q112 0 127 -25q0 -22 -58 -88q-51 -57 -76 -74zM479 571q-14 -84 -14 -219v-221q-10 -410 -45 -520q-23 -74 -55 -111q-54 -65 -164 -92q-25 -6 -49 -6q-60 0 -105 31
q-47 30 -47 78q0 8 4 28q35 51 55 51q15 0 46 -41q30 -38 69 -51q21 -4 35 -4q43 0 57 33q47 108 47 289q0 57 -8 286q-10 230 -10 416q0 170 -68 213q-39 25 -39 43q21 14 230 49q74 0 74 -116q0 -66 -13 -136z" />
    <glyph glyph-name="k" unicode="k" horiz-adv-x="1065" 
d="M717 -10q-27 0 -51 10q-21 8 -135 211q-54 96 -115 195q-16 4 -23 4q-69 0 -69 -185q0 -22 2 -59v-55q0 -48 -4 -62v4q0 -12 -60 -43q-67 -35 -118 -35v1143l-2 70q0 33 -72 69q-70 39 -70 50q0 10 19 14q55 8 141 41q121 35 141 35q21 0 25 -15q4 -28 4 -153
q0 -142 -8 -723v-27q155 101 358 232q139 86 162 86q29 0 65 -49q-163 -107 -352 -242q72 -64 99 -154q8 -28 59 -114q57 -99 86 -117q16 -10 25 -10q10 0 36 30q27 33 56 41q49 0 49 -41q-6 -45 -90 -98q-86 -53 -158 -53z" />
    <glyph glyph-name="l" unicode="l" horiz-adv-x="567" 
d="M436 125q-125 -98 -309 -133q-11 10 -11 307q0 311 4 834q0 47 -98 141q-22 22 -22 37q32 22 143 59q113 39 151 39q23 0 23 -14q8 -56 8 -295v-105l-4 -854q94 52 113 52q33 -5 33 -27q0 -16 -31 -41z" />
    <glyph glyph-name="m" unicode="m" horiz-adv-x="1696" 
d="M1438 55q-18 -10 -76 -37q-78 -34 -110 -34q-23 10 -23 55q0 22 19 160q4 14 4 69q0 138 -31 256q-39 142 -102 144q-68 -11 -134 -58q-67 -51 -67 -102l2 -377q0 -78 -14 -108q-35 -19 -66 -33q-74 -31 -123 -33q0 90 2 211q2 119 2 151q0 115 -14 146q0 39 -27 108
q-39 103 -110 105q-105 -27 -162 -96q-31 -39 -37 -74l2 -55v-113q0 -262 -12 -293v2q-4 -14 -74 -53q-76 -41 -117 -41q-14 25 -14 63q0 9 2 50v192q0 213 -23 279q-26 73 -135 141q19 20 82 61q70 47 99 47q43 -4 151 -92q12 -12 21 -16q4 2 135 70q137 71 200 71
q70 0 150 -86q18 -20 63 -47l33 21q187 116 289 116q76 0 123 -55q121 -141 121 -340q0 -74 -31 -242q-6 -32 -6 -47q0 -10 2 -12q20 4 65 37q43 31 62 31q18 0 31 -17q6 -12 6 -16q0 -39 -158 -109z" />
    <glyph glyph-name="n" unicode="n" horiz-adv-x="1077" 
d="M799 119q12 0 67 45q56 43 78 43q23 0 33 -35q-68 -51 -121 -88q-131 -88 -174 -96q-49 0 -49 39q0 14 4 39q6 26 6 38q4 68 4 123q0 447 -159 447q-37 0 -107 -41q-37 -21 -45 -47q-10 -29 -10 -127q0 -6 2 -51q2 -46 2 -80q0 -351 -195 -365q-4 29 -4 86q0 29 2 107
v123q0 280 -45 333q-29 33 -59 52q-29 16 -29 45q113 79 156 79q39 -8 84 -61q45 -55 55 -57q49 26 107 57q116 64 167 70q261 0 263 -363q0 -51 -17 -166q-16 -121 -16 -149z" />
    <glyph glyph-name="o" unicode="o" horiz-adv-x="889" 
d="M756 262q-35 -98 -166 -192q-127 -93 -229 -93h-8q-226 9 -326 207q-27 54 -27 170q0 64 9 154q12 137 151 219q74 43 262 100q21 7 41 7q111 0 211 -101q115 -117 115 -287q0 -88 -33 -184zM336 715q-14 0 -26 -6q-68 -27 -107 -97q-37 -63 -37 -137q0 -113 58 -205
q77 -123 237 -166q88 0 111 82q12 45 12 224q0 125 -88 221q-80 84 -160 84z" />
    <glyph glyph-name="p" unicode="p" horiz-adv-x="1017" 
d="M852 178q-27 -49 -111 -104q-86 -58 -155 -66q-58 0 -127 15q-76 12 -111 14q0 -82 -2 -293t-2 -260q0 -55 82 -55q27 0 76 6t63 6q39 0 39 -25q0 -12 -10 -26q-8 -11 -43 -11q-37 0 -96 -6q-138 -14 -189 -14q-2 0 -33 -8q-30 -6 -137 -31q-10 29 -10 43q0 27 27 33
l36 8q17 12 17 84v651l2 140v69q0 68 -2 117q-2 100 -15 133q-36 107 -94 123q-57 16 -57 57q6 19 33 19q6 0 35 -4q26 -7 47 -7q65 9 112 27q45 18 64 18q59 0 59 -51q0 -14 -6 -41q-6 -26 -6 -39q0 -10 10 -10q14 2 100 74q89 72 183 72q41 0 92 -13q43 -22 76 -51
q82 -67 96 -162q22 -139 22 -200q0 -113 -65 -232zM727 410q-16 122 -59 186q-70 104 -140 104q-12 0 -26 -4q-105 -30 -138 -121q-20 -55 -20 -186q0 -149 16 -174q25 -39 88 -68q70 -30 152 -30h10q127 4 127 186q0 31 -10 107z" />
    <glyph glyph-name="q" unicode="q" horiz-adv-x="900" 
d="M795 -484q2 -3 5 -3q4 0 8 3q62 42 142 42q0 -45 -123 -119q-116 -70 -172 -70q-24 0 -30 17v671q0 70 -25 70q-10 0 -94 -51q-94 -58 -189 -70q-94 0 -194 78q-103 84 -117 184q-6 47 -6 92q0 359 340 467q33 11 74 11q59 0 184 -56q20 -8 37 -12q20 0 112 37
q13 4 52 14v-1177q-2 -68 -2 -82q-1 -37 -2 -46zM602 600q-16 21 -102 94q-64 56 -133 56q-91 -11 -144 -95q-49 -80 -49 -190q0 -131 66 -223q75 -101 202 -101q105 23 160 78q6 17 10 41q6 45 6 172q0 31 2 68q3 37 3 45q0 30 -21 55z" />
    <glyph glyph-name="r" unicode="r" horiz-adv-x="850" 
d="M660 612q-29 0 -68 29q-43 33 -75 37q-17 -2 -86 -51q-72 -52 -72 -58v-491q-6 -23 -74 -64q-74 -45 -121 -45q-30 6 -30 189q0 59 4 182q2 123 2 168q0 57 -4 84q-11 72 -91 98q-45 15 -45 45q2 17 39 23q21 2 72 8q59 8 139 31q51 14 68 14q37 -8 37 -45q0 -10 -2 -31
q-4 -22 -4 -30q0 -19 16 -25q4 0 102 68q105 71 136 71q22 0 77 -20q64 -21 70 -43q-20 -41 -37 -70q-41 -72 -53 -74z" />
    <glyph glyph-name="s" unicode="s" horiz-adv-x="779" 
d="M649 195q-33 -80 -146 -148q-123 -74 -250 -74q-38 0 -83 11q-150 34 -150 153q0 96 119 131q123 -188 254 -188q51 0 84 41q30 37 30 88q0 57 -47 113q-41 47 -82 57q-39 8 -102 10q-86 2 -104 4q-117 10 -150 88q-22 54 -22 103q0 131 153 209q125 63 301 71h17
q51 0 88 -24q39 -29 39 -72q0 -57 -68 -90q-33 -16 -47 -16q-31 0 -57 51q-31 59 -70 69q-14 4 -37 4q-119 0 -137 -98q-4 -12 -4 -24q0 -80 133 -101q63 -6 129 -14q76 -8 125 -27q37 -14 67 -51q47 -57 47 -137q0 -66 -30 -139z" />
    <glyph glyph-name="t" unicode="t" horiz-adv-x="854" 
d="M678 686q-146 -4 -311 -4q-13 -23 -13 -102q0 -19 2 -86v-183q0 -96 21 -143q29 -66 110 -90q39 -12 78 -12q43 0 125 34l29 6q20 0 31 -26q0 -27 -99 -72q-84 -39 -133 -49t-92 -10q-201 0 -276 168q0 483 -9 510q-6 18 -49 43q-61 32 -92 75l344 226q27 -33 27 -92v-37
q0 -25 4 -27q22 -6 51 -6q16 0 80 4q61 4 110 4q17 0 119 -4q0 -14 8 -35q11 -26 11 -41q0 -49 -76 -51z" />
    <glyph glyph-name="u" unicode="u" horiz-adv-x="1005" 
d="M834 -10q-11 -8 -29 -8q-41 0 -111 59q-67 59 -71 59q-29 -6 -76 -57q-84 -94 -180 -94q-160 0 -232 119q-67 112 -67 272q0 51 8 139t8 119q0 66 -25 88q-59 55 -59 72q176 61 254 61q25 0 33 -14l-21 -299l-8 -119q0 -268 189 -303q69 2 122 125q54 123 54 280
q0 168 -66 226q-12 10 -35 24q-20 13 -20 27q0 10 6 16q4 13 66 23q47 6 167 24q58 0 58 -127q0 -24 -2 -94q-2 -69 -2 -112q0 -277 4 -308q20 -63 55 -79q23 -5 51 -33q0 -43 -71 -86z" />
    <glyph glyph-name="v" unicode="v" horiz-adv-x="1028" 
d="M867 410q-41 -142 -187 -310q-129 -149 -168 -149q-26 0 -75 61q-95 113 -211 387q-93 217 -183 277q-12 8 -26 16q-15 10 -17 25q0 20 43 53q52 37 103 37q67 0 119 -62q26 -28 73 -118q43 -82 97 -195q120 -254 145 -272q35 6 119 139q86 137 104 231q8 43 8 76
q0 51 -20 94q-23 48 -23 62q4 31 109 41q51 0 51 -84q0 -98 -61 -309z" />
    <glyph glyph-name="w" unicode="w" horiz-adv-x="1634" 
d="M1499 645q-37 -108 -148 -350q-143 -309 -196 -320q-93 0 -195 193q-24 49 -72 141q-32 64 -45 78q-14 -20 -34 -55q-86 -133 -138 -207q-108 -152 -145 -156q-45 0 -113 103q-24 37 -205 358q-45 82 -133 166q-75 74 -75 98q0 17 18 31q63 47 117 47q123 0 237 -250
q2 -6 52 -116q28 -64 92 -166q61 -93 67 -93q19 0 113 150q96 156 98 209q-28 92 -88 131q-22 14 -47 31q-23 16 -33 43q0 84 109 100q123 0 268 -322q35 -79 105 -219q53 -94 88 -96q51 0 225 434q0 37 -39 86t-39 74q6 14 51 27q43 14 74 14q25 0 35 -8q2 -4 20 -8
q11 -5 11 -21q0 -24 -35 -127z" />
    <glyph glyph-name="x" unicode="x" horiz-adv-x="936" 
d="M617 -27q-52 0 -127 90q-6 7 -101 140l-22 33q-27 -123 -86 -195q-58 -70 -142 -70q-100 0 -139 84q0 23 35 76q31 49 41 49q22 0 49 -22l12 -11q27 -26 62 -28q94 141 117 207q-27 77 -78 161q-94 148 -213 195q20 109 106 109q51 0 109 -43q76 -56 119 -134
q16 -32 55 -96q35 82 102 166q88 111 164 113q27 0 60 -23q43 -31 43 -67q0 -23 -17 -45q-45 -60 -76 -60q-18 0 -32 19l-7 8q-10 8 -30 18q-47 -57 -76 -94q-61 -84 -74 -129q2 -29 92 -162q88 -135 111 -149q2 -2 12 -2q21 0 62 41q41 38 59 38q16 0 29 -26
q-43 -55 -80 -94q-90 -97 -139 -97z" />
    <glyph glyph-name="y" unicode="y" horiz-adv-x="932" 
d="M697 270q-64 -141 -355 -700l103 -90q0 -23 -49 -64q-52 -41 -70 -41q-39 19 -70 37q-69 43 -82 78l287 537q-10 55 -102 264q-96 211 -139 266q-68 84 -150 115q-18 6 -47 16q-23 8 -23 35q93 88 154 88q186 -43 287 -266q22 -58 67 -172q33 -84 66 -121q55 67 92 205
q41 147 41 307q0 18 27 39q26 22 53 22q45 0 45 -67v-6q-6 -191 -135 -482z" />
    <glyph glyph-name="z" unicode="z" horiz-adv-x="1028" 
d="M897 -133q-63 0 -63 27q0 8 8 24t8 23q0 8 -12 16q-203 37 -465 37q-127 0 -223 -12l-90 -11q-21 0 -27 19q0 57 268 344q127 133 262 287q-16 12 -215 55q-186 39 -225 43q-27 0 -55.5 -27.5t-40.5 -27.5t-27 26q0 21 39 76q16 27 53 70q29 24 70 24q35 0 137 -24
q74 -19 266 -66q2 0 35 -2q33 -4 54 -4q36 0 45 4q36 20 75 78q17 24 41 24q31 -8 31 -28q0 -27 -74 -101q-49 -47 -151 -153q-86 -94 -246 -279q-111 -133 -125 -174q117 0 254 2q135 2 164 2q143 0 231 -43q29 -14 29 -61q0 -45 -31 -168z" />
    <glyph glyph-name="braceleft" unicode="{" horiz-adv-x="800" 
d="M42 696h-17q-18 13 -24 25q0 19 45 34q27 8 84 35q123 69 133 280q9 145 66 229q132 178 306 246q15 5 21 5q34 0 34 -47q0 -12 -2 -26q-206 -208 -213 -410q0 -134 -108 -317q-1 0 -2 -1h1q-14 -16 -28 -25q25 -21 39 -29q108 -183 108 -317q7 -202 213 -410
q2 -14 2 -26q0 -47 -33 -47q-7 0 -22 5q-174 68 -306 246q-57 84 -65 229q-11 211 -134 280q-56 27 -83 35q-8 3 -15 6z" />
    <glyph glyph-name="bar" unicode="|" horiz-adv-x="567" 
d="M436 14q-125 -117 -309 -159q-11 12 -11 367q0 372 4 998q0 56 -98 169q-22 26 -22 44q32 26 143 70q113 47 151 47q23 0 23 -17q8 -67 8 -353v-125l-4 -1022q94 62 113 62q33 -6 33 -32q0 -19 -31 -49z" />
    <glyph glyph-name="braceright" unicode="}" horiz-adv-x="800" 
d="M644 690q-27 -8 -83 -35q-123 -69 -134 -280q-8 -145 -65 -229q-132 -178 -306 -246q-15 -5 -22 -5q-33 0 -33 47q0 12 2 26q206 208 213 410q0 134 108 317q14 8 39 29q-14 9 -28 25h1q-1 1 -2 1q-108 183 -108 317q-7 202 -213 410q-2 14 -2 26q0 47 34 47q6 0 21 -5
q174 -68 306 -246q57 -84 66 -229q10 -211 133 -280q57 -27 84 -35q45 -15 45 -34q-6 -12 -24 -25h-17q-7 -3 -15 -6z" />
    <glyph glyph-name="asciitilde" unicode="~" horiz-adv-x="894" 
d="M612 1519q-24 -17 -57 -17q-39 0 -113 29q-107 41 -152 41q-14 0 -26 -2q-64 -13 -264 -144l243 243q114 75 185 75q41 0 128.5 -28.5t130.5 -28.5q54 0 107 13z" />
    <glyph glyph-name="exclamdown" unicode="&#xa1;" horiz-adv-x="348" 
d="M166 -23h-88q-68 0 -68 70v14l70 891q4 43 31 43h31q22 0 24 -39l70 -905q0 -74 -70 -74zM248 1266q0 -52 -37 -88q-35 -35 -86 -35t-88 35.5t-37 87.5q0 51 37 86q37 37 88 37t86 -37q37 -35 37 -86z" />
    <glyph glyph-name="cent" unicode="&#xa2;" horiz-adv-x="813" 
d="M350 -20q-181 4 -272 110q-78 90 -78 240q0 194 94 332q96 137 256 156v82h100v-83q50 -9 115 -35q121 -47 121 -110q0 -31 -107 -109q-8 0 -20 12q-8 9 -16 17q-50 52 -93 85v-573q18 -2 37 -2q47 0 110.5 65.5t72.5 65.5q12 0 26 -16q17 -18 17 -27q0 -26 -107 -110
q-80 -64 -156 -87v-93h-100v80zM350 728q-12 3 -24 3q-58 0 -97 -96q-37 -88 -37 -193q0 -145 70 -237q36 -48 88 -74v597z" />
    <glyph glyph-name="sterling" unicode="&#xa3;" horiz-adv-x="1431" 
d="M271 887q29 221 128 358q133 185 346 185h8q88 -3 240 -119q151 -115 153 -115q4 0 55 84q54 84 80 84q17 0 33 -16q17 -17 17 -39q-25 -25 -105 -156q-100 -168 -110 -230l-26 -63l-43 40q-294 398 -401 398q-62 0 -111 -82q-22 -95 -30 -316q95 -1 328 -1l76 2
q0 -10 2 -41v-47q-10 -56 -80 -92l-14 10q-25 19 -53 19h-260l7 -471q0 -125 21 -173q10 -22 57 -22q14 0 94 8q404 41 494 105q6 4 24 22l9 10q26 33 110 41v-575h-78q0 72 3 145v86q0 56 -17 70q-12 4 -63 4h-68q-45 -2 -68 -2h-499l-183 -14q-38 -4 -184 -13
q-78 -4 -84 -4q-65 0 -74 21q-4 16 -4 22q0 33 47 41q17 2 89 6q59 2 81 9q41 10 48 38l-6 638q-13 0 -27 -1l-201 10q-15 27 -27 129q136 0 266 7z" />
    <glyph glyph-name="currency" unicode="&#xa4;" horiz-adv-x="936" 
d="M283 878q-14 -41 -14 -90q0 -108 44 -198t105 -90q24 0 49 17q24 12 50 26q19 19 25.5 55t6.5 54q0 99 -43.5 214t-125.5 115q-11 0 -27 -5q-17 -12 -37.5 -34t-32.5 -64zM636 526q27 -36 38 -43q2 -2 12 -2q21 0 62 41q41 38 59 38q16 0 29 -26q-43 -55 -80 -94
q-90 -97 -139 -97q-48 0 -116 77q-36 -14 -79 -20q-79 0 -137 17l-4 -6q-58 -70 -142 -70q-100 0 -139 84q0 23 35 76q31 49 41 49q22 0 49 -22l12 -11q13 -13 28 -20q-1 3 -3 6q-63 102 -63 282q0 102 56 178q-61 62 -130 89q20 109 106 109q51 0 109 -43q30 -22 54 -47
q47 20 101 28q12 2 37 2q55 0 105 -22q76 86 143 88q27 0 60 -23q43 -31 43 -67q0 -23 -17 -45q-45 -60 -76 -60q-18 0 -32 19l-7 8q-8 6 -22 14q36 -39 50 -88q21 -75 21 -168q0 -138 -64 -231z" />
    <glyph glyph-name="yen" unicode="&#xa5;" horiz-adv-x="1203" 
d="M690 306q-2 -101 -2 -116q0 -61 18 -81q17 -19 60 -19q10 0 36 2q29 2 45 2q48 0 78 -8q25 -6 25 -39t-25 -41q-28 0 -90 4q-59 2 -90 2q-90 0 -201 -16q-90 -14 -206 -39q-76 -16 -82 -16q-17 0 -31 14q-14 18 -14 33q0 43 145 78l39 8q41 10 47 14q33 22 39 218h-356
v96h358v8q0 161 -4 176q-2 6 -4 13h-350v96h304q-24 43 -59 96q-127 192 -237 407q-31 62 -97 80q-32 10 -36 39q0 22 92 72q94 47 137 47q23 -4 84 -119q45 -84 125 -244q174 -344 203 -356q14 12 102 176q94 176 113 246q14 49 32 215q9 67 72 67q19 0 96 -10
q0 -57 -22 -108q-12 -29 -41 -95q-96 -237 -229 -456q-18 -29 -31 -57h370v-96h-403q-8 -40 -8 -79q0 -58 -1 -118h412v-96h-413z" />
    <glyph glyph-name="brokenbar" unicode="&#xa6;" horiz-adv-x="627" 
d="M486 901q-21 -11 -49 -24q-60 -39 -189 -104q-33 -18 -43 -18q-18 0 -33 18q-6 10 -6 379v65q0 112 -22 145q-21 32 -105 64q-39 15 -39 37q0 10 11 24q125 28 311 63q55 0 55 -54q0 -11 -2 -32t-2 -30v-510q23 3 66 26q41 21 55 21q10 0 16 -5q17 -9 17 -23
q0 -19 -41 -42zM486 -4q-21 -10 -49 -24q-60 -39 -189 -104q-33 -18 -43 -18q-18 0 -33 18q-6 10 -6 379v65q0 113 -22 146q-21 32 -105 64q-39 15 -39 37q0 10 11 24q125 28 311 63q55 0 55 -54q0 -11 -2 -32t-2 -30v-511q23 3 66 27q41 20 55 20q10 0 16 -5q17 -9 17 -23
q0 -19 -41 -42z" />
    <glyph glyph-name="section" unicode="&#xa7;" horiz-adv-x="1349" 
d="M583 878q-14 -41 -14 -90q0 -108 44 -198t105 -90q24 0 49 17q24 12 50 26q19 19 25.5 55t6.5 54q0 99 -43.5 214t-125.5 115q-11 0 -27 -5q-17 -12 -37.5 -34t-32.5 -64zM441 543q-112 -30 -156 -30q-105 0 -164 98q-51 87 -51 222q0 298 129 502q133 212 346 212h8
q88 -3 240 -136q151 -132 153 -132q4 0 55 96q54 96 80 96q17 0 33 -18q17 -20 17 -45q-25 -28 -105 -179q-72 -139 -92 -221q26 -31 40 -68q148 -47 212 -134q63 -90 63 -265q0 -291 -137 -500q-156 -239 -422 -246h-20q-156 0 -428 70q-56 14 -64 14q-20 0 -61 -158
q-10 -42 -31 -114q-20 -61 -37 -61q-10 0 -28 18q-21 19 -21 36q39 105 119 399q24 225 63 225q37 -42 215 -155q244 -153 385 -153q54 0 86 20q97 54 150 234q37 123 37 217q0 128 -45 204q-12 20 -27 35q-19 -62 -56 -111q-73 -96 -205 -115q-197 0 -260 103
q-12 19 -21 40zM399 791q2 120 84 204q83 85 212 104q12 2 37 2h7q-207 295 -293 295q-92 0 -141 -117q-43 -106 -43 -265q0 -94 37 -156q37 -61 100 -67z" />
    <glyph glyph-name="dieresis" unicode="&#xa8;" horiz-adv-x="850" 
d="M0 1650q31 37 86 94q53 55 74 57q47 -28 119 -80q67 -49 67 -77q0 -9 -53 -62q-55 -55 -92 -86q-21 0 -107 70q-90 69 -94 84zM404 1649q0 16 78 92q82 80 92 80q6 0 55 -41q50 -43 86 -86q35 -43 35 -55q-10 -19 -155 -142q-11 0 -56 31q-47 29 -88 68q-43 36 -47 53z
" />
    <glyph glyph-name="copyright" unicode="&#xa9;" horiz-adv-x="950" 
d="M703 790q97 120 97 285q0 159 -90 276l-143 -121q-7 3 -28 26q-109 113 -183 113q-54 0 -102 -105q-45 -96 -45 -179q19 -139 102 -233q84 -94 194 -94q11 0 94 44q87 46 104 46v-58zM651 736l-58 -13q-71 -13 -154 -13q-142 0 -229 71q-54 44 -85 154q-25 91 -25 175
q0 115 70 198q52 63 139 98q65 28 107 28q71 0 134 -50q14 -12 40 -33q18 -14 29 -14q1 0 33 21q29 20 33 24q-109 118 -260 118q-155 0 -265 -124.5t-110 -300.5t110 -300.5t265 -124.5q129 0 226 86zM703 715q-2 -163 -16 -163h-32q1 47 1 87v36q-102 -75 -231 -75
q-176 0 -300.5 139t-124.5 336t124.5 336t300.5 139t300.5 -139t124.5 -336t-124 -336q-12 -12 -23 -24z" />
    <glyph glyph-name="ordfeminine" unicode="&#xaa;" 
d="M0 200v1100q0 200 200 200h1100q200 0 200 -200v-1100q0 -200 -200 -200h-1100q-200 0 -200 200zM1475 201v1099q0 175 -175 175h-1100q-174 0 -175 -175v-1100q1 -175 175 -175h1101q174 0 174 176z" />
    <glyph glyph-name="guillemotleft" unicode="&#xab;" horiz-adv-x="1602" 
d="M748 1160q134 0 134 -51q-40 -105 -71 -109q-14 0 -82 53l-74 -20q-33 0 -76 -38q-94 -18 -231 -104q-133 -54 -139 -89q18 -25 272 -145q113 -54 195 -97q90 -47 118 -73q62 -52 62 -119q0 -51 -37 -103q-33 -43 -53 -43q-15 2 -25 17q-8 14 -16 26q-60 90 -277 183
q-274 116 -387 211q-61 49 -61 75q0 39 149 168q158 96 310 157q191 91 289 101zM1368 1160q134 0 134 -51q-40 -105 -71 -109q-14 0 -82 53l-74 -20q-33 0 -76 -38q-94 -18 -231 -104q-133 -54 -139 -89q18 -25 272 -145q113 -54 195 -97q90 -47 118 -73q62 -52 62 -119
q0 -51 -37 -103q-33 -43 -53 -43q-15 2 -25 17q-8 14 -16 26q-60 90 -277 183q-274 116 -387 211q-61 49 -61 75q0 39 149 168q158 96 310 157q191 91 289 101z" />
    <glyph glyph-name="logicalnot" unicode="&#xac;" 
d="M0 200v1100q0 200 200 200h1100q200 0 200 -200v-1100q0 -200 -200 -200h-1100q-200 0 -200 200zM1475 201v1099q0 175 -175 175h-1100q-174 0 -175 -175v-1100q1 -175 175 -175h1101q174 0 174 176z" />
    <glyph glyph-name="registered" unicode="&#xae;" horiz-adv-x="950" 
d="M388 1362q-101 0 -101 -100v-80q0 -110 124 -110q55 0 91 33q39 35 39 95q0 70 -37 114q-41 48 -116 48zM125 1331q-75 -110 -75 -256q0 -176 110 -300q2 -3 5 -6q8 31 8 109v269q0 24 -6 82q-9 81 -21 94q-4 4 -21 8zM623 713q-29 8 -81 90q-86 135 -125 174
q-54 55 -124 55q-1 -113 -3 -232v-4q0 -33 19 -43q13 -7 52 -7h79q20 0 20 -19q0 -26 -34 -26l-89 8h-104q85 -59 192 -59q110 0 198 63zM700 787q100 120 100 288q0 176 -110 300.5t-265 124.5t-265 -124q-4 -5 -8 -9q31 -4 50 -4h59q6 0 19 11q9 8 33 25q54 37 135 37
q95 0 158 -56q65 -58 65 -148q0 -59 -23 -98q-21 -35 -70 -68q-17 -10 -48 -31q34 -64 94 -145q29 -37 74 -100q1 -2 2 -3zM740 756q8 -2 17 -3q24 -2 25 -2q12 -4 12 -18q0 -8 -3 -11l-6 -10h-86q-116 -112 -274 -112q-154 0 -269 106l-93 -8q-24 0 -24 24q0 20 80 24
q-119 137 -119 329q0 148 71 264h-5q-66 6 -66 25q0 24 21 24q2 0 7 -1q31 -6 62 -11q3 0 5 -1q14 19 30 36q124 139 300 139t300.5 -139t124.5 -336q0 -185 -110 -319z" />
    <glyph glyph-name="macron" unicode="&#xaf;" 
d="M0 200v1100q0 200 200 200h1100q200 0 200 -200v-1100q0 -200 -200 -200h-1100q-200 0 -200 200zM1475 201v1099q0 175 -175 175h-1100q-174 0 -175 -175v-1100q1 -175 175 -175h1101q174 0 174 176z" />
    <glyph glyph-name="degree" unicode="&#xb0;" 
d="M0 200v1100q0 200 200 200h1100q200 0 200 -200v-1100q0 -200 -200 -200h-1100q-200 0 -200 200zM1475 201v1099q0 175 -175 175h-1100q-174 0 -175 -175v-1100q1 -175 175 -175h1101q174 0 174 176z" />
    <glyph glyph-name="plusminus" unicode="&#xb1;" 
d="M0 200v1100q0 200 200 200h1100q200 0 200 -200v-1100q0 -200 -200 -200h-1100q-200 0 -200 200zM1475 201v1099q0 175 -175 175h-1100q-174 0 -175 -175v-1100q1 -175 175 -175h1101q174 0 174 176z" />
    <glyph glyph-name="uni00B2" unicode="&#xb2;" 
d="M0 200v1100q0 200 200 200h1100q200 0 200 -200v-1100q0 -200 -200 -200h-1100q-200 0 -200 200zM1475 201v1099q0 175 -175 175h-1100q-174 0 -175 -175v-1100q1 -175 175 -175h1101q174 0 174 176z" />
    <glyph glyph-name="uni00B3" unicode="&#xb3;" 
d="M0 200v1100q0 200 200 200h1100q200 0 200 -200v-1100q0 -200 -200 -200h-1100q-200 0 -200 200zM1475 201v1099q0 175 -175 175h-1100q-174 0 -175 -175v-1100q1 -175 175 -175h1101q174 0 174 176z" />
    <glyph glyph-name="acute" unicode="&#xb4;" horiz-adv-x="750" 
d="M0 1513q0 42 76 112q69 62 104 72t59 19q250 85 331 85q41 0 80 -21q-195 -190 -251 -213q-101 -68 -275 -68q-60 0 -124 14z" />
    <glyph glyph-name="mu" unicode="&#xb5;" horiz-adv-x="1054" 
d="M348 -22q-1 -85 -2 -234q-2 -211 -2 -260q0 -55 82 -55q27 0 76 6t63 6q39 0 39 -25q0 -12 -10 -26q-8 -11 -43 -11q-37 0 -96 -6q-138 -14 -189 -14q-2 0 -33 -8q-30 -6 -137 -31q-10 29 -10 43q0 27 27 33l36 8q17 12 17 84v651l2 140v69q0 68 -2 117q-2 100 -15 133
q-36 107 -94 123q-57 16 -57 57q6 19 33 19q6 0 35 -4q26 -7 47 -7q65 9 112 27q45 18 64 18q59 0 59 -51q0 -14 -6 -41l4 -49v-521q50 -94 147 -94q70 11 123 134q54 123 54 280q0 168 -66 226q-12 10 -35 24q-20 13 -20 27q0 10 6 16q4 13 66 23q47 6 167 24q58 0 58 -127
q0 -24 -2 -94q-2 -69 -2 -112q0 -277 4 -308q20 -63 55 -79q23 -5 51 -33q0 -43 -71 -86q-11 -8 -29 -8q-41 0 -111 59q-67 59 -71 59q-29 -6 -76 -57q-84 -84 -176 -93q-40 10 -72 28z" />
    <glyph glyph-name="paragraph" unicode="&#xb6;" horiz-adv-x="936" 
d="M836 1435v-70h-127v-1365h-82v1365h-166v-1365h-84v738q-174 8 -275.5 102.5t-101.5 245.5q0 157 107.5 253t285.5 96h443z" />
    <glyph glyph-name="periodcentered" unicode="&#xb7;" horiz-adv-x="446" 
d="M0 658q31 37 86 94q53 55 74 57q47 -28 119 -80q67 -49 67 -77q0 -9 -53 -62q-55 -55 -92 -86q-21 0 -107 70q-90 69 -94 84z" />
    <glyph glyph-name="periodcentered" unicode="&#x2219;" horiz-adv-x="446" 
d="M0 658q31 37 86 94q53 55 74 57q47 -28 119 -80q67 -49 67 -77q0 -9 -53 -62q-55 -55 -92 -86q-21 0 -107 70q-90 69 -94 84z" />
    <glyph glyph-name="cedilla" unicode="&#xb8;" horiz-adv-x="700" 
d="M387 -106q-16 49 -51 84q-47 45 -139 45l174 81q0 -2 20 -7q150 -62 182 -145q19 -43 27 -120q-1 -39 -4 -60.5t-13 -76.5q-20 -95 -69 -142q-66 -58 -199 -58q-217 0 -311 185q45 22 51 22q23 0 57 -56q37 -60 93 -60q135 0 180 106q3 43 8 104q0 31 -6 98z" />
    <glyph glyph-name="uni00B9" unicode="&#xb9;" 
d="M0 200v1100q0 200 200 200h1100q200 0 200 -200v-1100q0 -200 -200 -200h-1100q-200 0 -200 200zM1475 201v1099q0 175 -175 175h-1100q-174 0 -175 -175v-1100q1 -175 175 -175h1101q174 0 174 176z" />
    <glyph glyph-name="ordmasculine" unicode="&#xba;" 
d="M0 200v1100q0 200 200 200h1100q200 0 200 -200v-1100q0 -200 -200 -200h-1100q-200 0 -200 200zM1475 201v1099q0 175 -175 175h-1100q-174 0 -175 -175v-1100q1 -175 175 -175h1101q174 0 174 176z" />
    <glyph glyph-name="guillemotright" unicode="&#xbb;" horiz-adv-x="1602" 
d="M754 222q-134 0 -134 51q40 105 71 109q14 0 82 -53l74 20q33 0 76 38q94 18 231 104q133 54 139 89q-18 25 -272 145q-113 54 -195 97q-90 47 -118 73q-62 52 -62 119q0 51 37 103q33 43 53 43q15 -2 25 -17q8 -14 16 -26q60 -90 277 -183q274 -116 387 -211
q61 -49 61 -75q0 -39 -149 -168q-158 -96 -310 -157q-191 -91 -289 -101zM134 222q-134 0 -134 51q40 105 71 109q14 0 82 -53l74 20q33 0 76 38q94 18 231 104q133 54 139 89q-18 25 -272 145q-113 54 -195 97q-90 47 -118 73q-62 52 -62 119q0 51 37 103q33 43 53 43
q15 -2 25 -17q8 -14 16 -26q60 -90 277 -183q274 -116 387 -211q61 -49 61 -75q0 -39 -149 -168q-158 -96 -310 -157q-191 -91 -289 -101z" />
    <glyph glyph-name="onequarter" unicode="&#xbc;" 
d="M0 200v1100q0 200 200 200h1100q200 0 200 -200v-1100q0 -200 -200 -200h-1100q-200 0 -200 200zM1475 201v1099q0 175 -175 175h-1100q-174 0 -175 -175v-1100q1 -175 175 -175h1101q174 0 174 176z" />
    <glyph glyph-name="onehalf" unicode="&#xbd;" 
d="M0 200v1100q0 200 200 200h1100q200 0 200 -200v-1100q0 -200 -200 -200h-1100q-200 0 -200 200zM1475 201v1099q0 175 -175 175h-1100q-174 0 -175 -175v-1100q1 -175 175 -175h1101q174 0 174 176z" />
    <glyph glyph-name="threequarters" unicode="&#xbe;" 
d="M0 200v1100q0 200 200 200h1100q200 0 200 -200v-1100q0 -200 -200 -200h-1100q-200 0 -200 200zM1475 201v1099q0 175 -175 175h-1100q-174 0 -175 -175v-1100q1 -175 175 -175h1101q174 0 174 176z" />
    <glyph glyph-name="questiondown" unicode="&#xbf;" horiz-adv-x="739" 
d="M416 1026h72v-49q0 -70 16 -164l15 -84q0 -33 -33 -47q-10 -4 -60 -14q-301 -60 -301 -236q0 -100 84 -194q86 -95 185 -95q28 0 63 11l49 20q21 8 45 8q88 0 88 -84q0 -61 -61 -94q-49 -27 -117 -27q-160 0 -301 177q-61 77 -106 174q-54 114 -54 196q0 123 86 199
q62 57 199 106q80 29 105 72q22 35 26 125zM570 1266q0 -52 -37 -87.5t-88 -35.5t-88 35q-35 36 -35 88q0 51 35 86q37 37 88 37q53 0 88 -35q37 -35 37 -88z" />
    <glyph glyph-name="Agrave" unicode="&#xc0;" horiz-adv-x="1527" 
d="M248 598q43 186 180 694q-2 19 -56 27q-104 8 -211 14q-143 23 -143 94q242 -14 610 -28q125 0 285 18q160 19 189 19q73 0 94 -52q-37 -26 -111 -36q-41 -7 -45 -9q-14 -8 -14 -43q0 -94 49 -352q47 -235 61 -268l2 -10l58 -316q47 -229 88 -258q12 -8 55 -10
q41 0 59 -12q29 -19 29 -74q-49 -10 -74 -10l-71 10q-74 8 -205 8q-94 0 -154 -8l-53 -8q-24 24 -24 45q0 28 73 45q82 20 99 41q-68 520 -95 549q-88 -2 -307 -33q-256 -35 -280 -62q-19 -57 -45 -176q-39 -180 -39 -297q4 -41 34 -41q9 0 41 4q31 5 58 5q28 -9 28 -78
q-24 -4 -411 -29q-2 35 -2 62q0 30 14 30l10 -2l6 -4q9 -4 17 -4q16 0 39 16q18 13 147 516q6 23 15 23zM780 1313h-45q-31 0 -105 -2q-75 -2 -102 -2q-121 -457 -139 -533q8 -2 51 -2q190 0 465 29q-2 104 -57 309q-52 188 -68 201zM857 1499q-175 0 -275 68
q-57 23 -252 213q39 21 80 21q81 0 332 -85q23 -9 58 -19t105 -72q75 -70 75 -112q-64 -14 -123 -14z" />
    <glyph glyph-name="Aacute" unicode="&#xc1;" horiz-adv-x="1527" 
d="M248 598q43 186 180 694q-2 19 -56 27q-104 8 -211 14q-143 23 -143 94q242 -14 610 -28q125 0 285 18q160 19 189 19q73 0 94 -52q-37 -26 -111 -36q-41 -7 -45 -9q-14 -8 -14 -43q0 -94 49 -352q47 -235 61 -268l2 -10l58 -316q47 -229 88 -258q12 -8 55 -10
q41 0 59 -12q29 -19 29 -74q-49 -10 -74 -10l-71 10q-74 8 -205 8q-94 0 -154 -8l-53 -8q-24 24 -24 45q0 28 73 45q82 20 99 41q-68 520 -95 549q-88 -2 -307 -33q-256 -35 -280 -62q-19 -57 -45 -176q-39 -180 -39 -297q4 -41 34 -41q9 0 41 4q31 5 58 5q28 -9 28 -78
q-24 -4 -411 -29q-2 35 -2 62q0 30 14 30l10 -2l6 -4q9 -4 17 -4q16 0 39 16q18 13 147 516q6 23 15 23zM780 1313h-45q-31 0 -105 -2q-75 -2 -102 -2q-121 -457 -139 -533q8 -2 51 -2q190 0 465 29q-2 104 -57 309q-52 188 -68 201zM330 1513q0 42 75 112q70 62 105 72
t58 19q251 85 332 85q41 0 80 -21q-195 -190 -252 -213q-100 -68 -275 -68q-59 0 -123 14z" />
    <glyph glyph-name="Acircumflex" unicode="&#xc2;" horiz-adv-x="1527" 
d="M248 598q43 186 180 694q-2 19 -56 27q-104 8 -211 14q-143 23 -143 94q242 -14 610 -28q125 0 285 18q160 19 189 19q73 0 94 -52q-37 -26 -111 -36q-41 -7 -45 -9q-14 -8 -14 -43q0 -94 49 -352q47 -235 61 -268l2 -10l58 -316q47 -229 88 -258q12 -8 55 -10
q41 0 59 -12q29 -19 29 -74q-49 -10 -74 -10l-71 10q-74 8 -205 8q-94 0 -154 -8l-53 -8q-24 24 -24 45q0 28 73 45q82 20 99 41q-68 520 -95 549q-88 -2 -307 -33q-256 -35 -280 -62q-19 -57 -45 -176q-39 -180 -39 -297q4 -41 34 -41q9 0 41 4q31 5 58 5q28 -9 28 -78
q-24 -4 -411 -29q-2 35 -2 62q0 30 14 30l10 -2l6 -4q9 -4 17 -4q16 0 39 16q18 13 147 516q6 23 15 23zM780 1313h-45q-31 0 -105 -2q-75 -2 -102 -2q-121 -457 -139 -533q8 -2 51 -2q190 0 465 29q-2 104 -57 309q-52 188 -68 201zM808 1539q-144 163 -175 163
q-21 0 -69 -56q-32 -37 -114 -125q-27 -21 -47 -21q-37 0 -43 60q51 117 174 235q113 108 161 108q6 0 10 -3q58 -49 118 -115q32 -37 103 -115q3 -9 5 -19l9 -50q-52 -78 -90 -78q-23 0 -42 16z" />
    <glyph glyph-name="Atilde" unicode="&#xc3;" horiz-adv-x="1527" 
d="M248 598q43 186 180 694q-2 19 -56 27q-104 8 -211 14q-143 23 -143 94q242 -14 610 -28q125 0 285 18q160 19 189 19q73 0 94 -52q-37 -26 -111 -36q-41 -7 -45 -9q-14 -8 -14 -43q0 -94 49 -352q47 -235 61 -268l2 -10l58 -316q47 -229 88 -258q12 -8 55 -10
q41 0 59 -12q29 -19 29 -74q-49 -10 -74 -10l-71 10q-74 8 -205 8q-94 0 -154 -8l-53 -8q-24 24 -24 45q0 28 73 45q82 20 99 41q-68 520 -95 549q-88 -2 -307 -33q-256 -35 -280 -62q-19 -57 -45 -176q-39 -180 -39 -297q4 -41 34 -41q9 0 41 4q31 5 58 5q28 -9 28 -78
q-24 -4 -411 -29q-2 35 -2 62q0 30 14 30l10 -2l6 -4q9 -4 17 -4q16 0 39 16q18 13 147 516q6 23 15 23zM780 1313h-45q-31 0 -105 -2q-75 -2 -102 -2q-121 -457 -139 -533q8 -2 51 -2q190 0 465 29q-2 104 -57 309q-52 188 -68 201zM892 1519q-24 -17 -57 -17
q-39 0 -113 29q-107 41 -152 41q-14 0 -26 -2q-64 -13 -264 -144l243 243q114 75 185 75q41 0 128.5 -28.5t130.5 -28.5q54 0 107 13z" />
    <glyph glyph-name="Adieresis" unicode="&#xc4;" horiz-adv-x="1527" 
d="M248 598q43 186 180 694q-2 19 -56 27q-104 8 -211 14q-143 23 -143 94q242 -14 610 -28q125 0 285 18q160 19 189 19q73 0 94 -52q-37 -26 -111 -36q-41 -7 -45 -9q-14 -8 -14 -43q0 -94 49 -352q47 -235 61 -268l2 -10l58 -316q47 -229 88 -258q12 -8 55 -10
q41 0 59 -12q29 -19 29 -74q-49 -10 -74 -10l-71 10q-74 8 -205 8q-94 0 -154 -8l-53 -8q-24 24 -24 45q0 28 73 45q82 20 99 41q-68 520 -95 549q-88 -2 -307 -33q-256 -35 -280 -62q-19 -57 -45 -176q-39 -180 -39 -297q4 -41 34 -41q9 0 41 4q31 5 58 5q28 -9 28 -78
q-24 -4 -411 -29q-2 35 -2 62q0 30 14 30l10 -2l6 -4q9 -4 17 -4q16 0 39 16q18 13 147 516q6 23 15 23zM780 1313h-45q-31 0 -105 -2q-75 -2 -102 -2q-121 -457 -139 -533q8 -2 51 -2q190 0 465 29q-2 104 -57 309q-52 188 -68 201zM270 1650q31 37 86 94q53 55 74 57
q47 -28 119 -80q67 -49 67 -77q0 -9 -53 -62q-55 -55 -92 -86q-21 0 -107 70q-90 69 -94 84zM674 1649q0 16 78 92q82 80 92 80q6 0 55 -41q50 -43 86 -86q35 -43 35 -55q-10 -19 -155 -142q-11 0 -56 31q-47 29 -88 68q-43 36 -47 53z" />
    <glyph glyph-name="Aring" unicode="&#xc5;" horiz-adv-x="1527" 
d="M248 598q43 186 180 694q-2 19 -56 27q-104 8 -211 14q-143 23 -143 94q242 -14 610 -28q125 0 285 18q160 19 189 19q73 0 94 -52q-37 -26 -111 -36q-41 -7 -45 -9q-14 -8 -14 -43q0 -94 49 -352q47 -235 61 -268l2 -10l58 -316q47 -229 88 -258q12 -8 55 -10
q41 0 59 -12q29 -19 29 -74q-49 -10 -74 -10l-71 10q-74 8 -205 8q-94 0 -154 -8l-53 -8q-24 24 -24 45q0 28 73 45q82 20 99 41q-68 520 -95 549q-88 -2 -307 -33q-256 -35 -280 -62q-19 -57 -45 -176q-39 -180 -39 -297q4 -41 34 -41q9 0 41 4q31 5 58 5q28 -9 28 -78
q-24 -4 -411 -29q-2 35 -2 62q0 30 14 30l10 -2l6 -4q9 -4 17 -4q16 0 39 16q18 13 147 516q6 23 15 23zM780 1313h-45q-31 0 -105 -2q-75 -2 -102 -2q-121 -457 -139 -533q8 -2 51 -2q190 0 465 29q-2 104 -57 309q-52 188 -68 201zM672 1500q-155 0 -212 61
q-41 42 -41 132q0 62 66 105q65 43 165 52q19 2 28 2q67 0 127 -28q53 -24 64 -50q21 -48 21 -95q0 -74 -55 -121q-58 -48 -163 -58zM641 1768q-11 0 -15 -1q-28 -8 -43 -36q-8 -16 -8 -35q0 -40 27 -74q28 -35 65 -35q7 0 39 10q8 2 21 7q12 6 19 30q0 45 -25 85
q-30 49 -80 49z" />
    <glyph glyph-name="AE" unicode="&#xc6;" horiz-adv-x="2274" 
d="M780 1313h-45q-31 0 -105 -2q-75 -2 -102 -2q-121 -457 -139 -533q8 -2 51 -2q190 0 465 29q-2 104 -57 309q-52 188 -68 201zM1453 1270q-84 -2 -176 -121q-96 -123 -96 -244q6 -39 24 -49q14 -8 59 -8q478 0 607 29q-41 106 -170 241q-142 152 -244 152h-4zM1863 698
q-678 0 -682 -67q49 -228 208 -361q158 -129 375 -129q144 0 268 56q7 24 15 233q2 111 8 266q-6 0 -72 2h-120zM1415 -6q-40 -8 -62 -8l-71 10q-74 8 -205 8q-94 0 -154 -8l-53 -8q-24 24 -24 45q0 28 73 45q82 20 99 41q-68 520 -95 549q-88 -2 -307 -33
q-256 -35 -280 -62q-19 -57 -45 -176q-39 -180 -39 -297q4 -41 34 -41q9 0 41 4q31 5 58 5q28 -9 28 -78q-24 -4 -411 -29q-2 35 -2 62q0 30 14 30l10 -2l6 -4q9 -4 17 -4q16 0 39 16q18 13 147 516q6 23 15 23q43 186 180 694q-2 19 -56 27q-104 8 -211 14q-143 23 -143 94
q242 -14 610 -28q125 0 285 18q160 19 189 19q73 0 94 -52q-37 -26 -111 -36q-41 -7 -45 -9q-14 -8 -14 -43q0 -65 24 -209q50 113 92 154q55 55 186 111q154 63 279 63q83 0 309 -178q35 -27 47 -35q98 166 123 166q8 0 28 -12q2 0 15 -6q-6 -25 -39 -90
q-150 -306 -150 -369q0 -6 52 -6q63 0 182 18q0 -16 -25 -352q-26 -338 -26 -346v-400q-15 -4 -21 -8l-14 -8q-10 -6 -49 -14v329q-303 -131 -478 -131q-34 0 -49 2q-51 7 -97 19z" />
    <glyph glyph-name="Ccedilla" unicode="&#xc7;" horiz-adv-x="1327" 
d="M615 -12q-242 14 -396 139q-108 88 -170 309q-49 182 -49 350q0 230 139 396q105 125 279 196q129 56 213 56q143 0 268 -101q29 -24 80 -65q37 -29 59 -29q2 0 66 43q61 43 66 47q38 0 57 -55l-293 -248q-14 6 -57 51q-217 226 -365 226q-108 0 -205 -209
q-90 -193 -90 -359q39 -278 205 -465q168 -188 387 -188q23 0 188 88q175 92 209 92v-170q0 -422 -32 -422h-64q2 94 2 174v185l2 10l-129 -27q-70 -13 -146 -19q16 -20 24 -41q19 -43 27 -120q-1 -39 -4 -60.5t-13 -76.5q-20 -95 -69 -142q-66 -58 -199 -58
q-217 0 -311 185q45 22 51 22q23 0 57 -56q37 -60 93 -60q135 0 180 106q3 43 8 104q0 31 -6 98q-16 49 -51 84q-5 5 -11 10z" />
    <glyph glyph-name="Egrave" unicode="&#xc8;" horiz-adv-x="1325" 
d="M1174 205v-400q-15 -4 -21 -8l-14 -8q-10 -6 -49 -14v329q-303 -131 -478 -131q-34 0 -49 2q-268 37 -399 201q-100 125 -154 389q-10 51 -10 107q0 162 76 356q65 162 117 213q55 55 186 111q154 63 279 63q83 0 309 -178q35 -27 47 -35q98 166 123 166q8 0 28 -12
q2 0 15 -6q-6 -25 -39 -90q-150 -306 -150 -369q0 -6 52 -6q63 0 182 18q0 -16 -25 -352q-26 -338 -26 -346zM504 1270q-84 -2 -176 -121q-96 -123 -96 -244q6 -39 24 -49q14 -8 59 -8q478 0 607 29q-41 106 -170 241q-142 152 -244 152h-4zM914 698q-678 0 -682 -67
q49 -228 208 -361q158 -129 375 -129q144 0 268 56q7 24 15 233q2 111 8 266q-6 0 -72 2h-120zM797 1499q-175 0 -275 68q-57 23 -252 213q39 21 80 21q81 0 332 -85q23 -9 58 -19t105 -72q75 -70 75 -112q-64 -14 -123 -14z" />
    <glyph glyph-name="Eacute" unicode="&#xc9;" horiz-adv-x="1325" 
d="M1174 205v-400q-15 -4 -21 -8l-14 -8q-10 -6 -49 -14v329q-303 -131 -478 -131q-34 0 -49 2q-268 37 -399 201q-100 125 -154 389q-10 51 -10 107q0 162 76 356q65 162 117 213q55 55 186 111q154 63 279 63q83 0 309 -178q35 -27 47 -35q98 166 123 166q8 0 28 -12
q2 0 15 -6q-6 -25 -39 -90q-150 -306 -150 -369q0 -6 52 -6q63 0 182 18q0 -16 -25 -352q-26 -338 -26 -346zM504 1270q-84 -2 -176 -121q-96 -123 -96 -244q6 -39 24 -49q14 -8 59 -8q478 0 607 29q-41 106 -170 241q-142 152 -244 152h-4zM914 698q-678 0 -682 -67
q49 -228 208 -361q158 -129 375 -129q144 0 268 56q7 24 15 233q2 111 8 266q-6 0 -72 2h-120zM270 1513q0 42 75 112q70 62 105 72t58 19q251 85 332 85q41 0 80 -21q-195 -190 -252 -213q-100 -68 -275 -68q-59 0 -123 14z" />
    <glyph glyph-name="Ecircumflex" unicode="&#xca;" horiz-adv-x="1325" 
d="M1174 205v-400q-15 -4 -21 -8l-14 -8q-10 -6 -49 -14v329q-303 -131 -478 -131q-34 0 -49 2q-268 37 -399 201q-100 125 -154 389q-10 51 -10 107q0 162 76 356q65 162 117 213q55 55 186 111q154 63 279 63q83 0 309 -178q35 -27 47 -35q98 166 123 166q8 0 28 -12
q2 0 15 -6q-6 -25 -39 -90q-150 -306 -150 -369q0 -6 52 -6q63 0 182 18q0 -16 -25 -352q-26 -338 -26 -346zM504 1270q-84 -2 -176 -121q-96 -123 -96 -244q6 -39 24 -49q14 -8 59 -8q478 0 607 29q-41 106 -170 241q-142 152 -244 152h-4zM914 698q-678 0 -682 -67
q49 -228 208 -361q158 -129 375 -129q144 0 268 56q7 24 15 233q2 111 8 266q-6 0 -72 2h-120zM758 1539q-144 163 -175 163q-21 0 -69 -56q-32 -37 -114 -125q-27 -21 -47 -21q-37 0 -43 60q51 117 174 235q113 108 161 108q6 0 10 -3q58 -49 118 -115q32 -37 103 -115
q3 -9 5 -19l9 -50q-52 -78 -90 -78q-23 0 -42 16z" />
    <glyph glyph-name="Edieresis" unicode="&#xcb;" horiz-adv-x="1325" 
d="M1174 205v-400q-15 -4 -21 -8l-14 -8q-10 -6 -49 -14v329q-303 -131 -478 -131q-34 0 -49 2q-268 37 -399 201q-100 125 -154 389q-10 51 -10 107q0 162 76 356q65 162 117 213q55 55 186 111q154 63 279 63q83 0 309 -178q35 -27 47 -35q98 166 123 166q8 0 28 -12
q2 0 15 -6q-6 -25 -39 -90q-150 -306 -150 -369q0 -6 52 -6q63 0 182 18q0 -16 -25 -352q-26 -338 -26 -346zM504 1270q-84 -2 -176 -121q-96 -123 -96 -244q6 -39 24 -49q14 -8 59 -8q478 0 607 29q-41 106 -170 241q-142 152 -244 152h-4zM914 698q-678 0 -682 -67
q49 -228 208 -361q158 -129 375 -129q144 0 268 56q7 24 15 233q2 111 8 266q-6 0 -72 2h-120zM210 1650q31 37 86 94q53 55 74 57q47 -28 119 -80q67 -49 67 -77q0 -9 -53 -62q-55 -55 -92 -86q-21 0 -107 70q-90 69 -94 84zM614 1649q0 16 78 92q82 80 92 80q6 0 55 -41
q50 -43 86 -86q35 -43 35 -55q-10 -19 -155 -142q-11 0 -56 31q-47 29 -88 68q-43 36 -47 53z" />
    <glyph glyph-name="Igrave" unicode="&#xcc;" horiz-adv-x="1046" 
d="M912 -8q-172 31 -211 31h-121l-506 -50v70q106 6 170 14q96 13 127 52q33 38 33 145v754l-25 196q-14 51 -39 78q-14 6 -180 14q-160 9 -160 47q0 15 17 35q18 19 32 21q88 -13 316 -37q53 -4 112 -4q158 0 172 51q2 14 7 41q2 29 41 35q32 0 32 -62q0 -47 23 -47
q22 0 88 17h51v-43q0 -41 -70 -41h-32q-64 0 -64 -35v-1147q0 -37 101 -47q120 -12 120 -53q0 -35 -34 -35zM645 1284q-34 -18 -57 -41v-1120q0 -14 57 -19v1180zM667 1499q-175 0 -275 68q-57 23 -252 213q39 21 80 21q81 0 332 -85q23 -9 58 -19t105 -72q75 -70 75 -112
q-64 -14 -123 -14z" />
    <glyph glyph-name="Iacute" unicode="&#xcd;" horiz-adv-x="1046" 
d="M912 -8q-172 31 -211 31h-121l-506 -50v70q106 6 170 14q96 13 127 52q33 38 33 145v754l-25 196q-14 51 -39 78q-14 6 -180 14q-160 9 -160 47q0 15 17 35q18 19 32 21q88 -13 316 -37q53 -4 112 -4q158 0 172 51q2 14 7 41q2 29 41 35q32 0 32 -62q0 -47 23 -47
q22 0 88 17h51v-43q0 -41 -70 -41h-32q-64 0 -64 -35v-1147q0 -37 101 -47q120 -12 120 -53q0 -35 -34 -35zM645 1284q-34 -18 -57 -41v-1120q0 -14 57 -19v1180zM140 1513q0 42 75 112q70 62 105 72t58 19q251 85 332 85q41 0 80 -21q-195 -190 -252 -213
q-100 -68 -275 -68q-59 0 -123 14z" />
    <glyph glyph-name="Icircumflex" unicode="&#xce;" horiz-adv-x="1046" 
d="M912 -8q-172 31 -211 31h-121l-506 -50v70q106 6 170 14q96 13 127 52q33 38 33 145v754l-25 196q-14 51 -39 78q-14 6 -180 14q-160 9 -160 47q0 15 17 35q18 19 32 21q88 -13 316 -37q53 -4 112 -4q158 0 172 51q2 14 7 41q2 29 41 35q32 0 32 -62q0 -47 23 -47
q22 0 88 17h51v-43q0 -41 -70 -41h-32q-64 0 -64 -35v-1147q0 -37 101 -47q120 -12 120 -53q0 -35 -34 -35zM645 1284q-34 -18 -57 -41v-1120q0 -14 57 -19v1180zM648 1539q-144 163 -175 163q-21 0 -69 -56q-32 -37 -114 -125q-27 -21 -47 -21q-37 0 -43 60q51 117 174 235
q113 108 161 108q6 0 10 -3q58 -49 118 -115q32 -37 103 -115q3 -9 5 -19l9 -50q-52 -78 -90 -78q-23 0 -42 16z" />
    <glyph glyph-name="Idieresis" unicode="&#xcf;" horiz-adv-x="1046" 
d="M912 -8q-172 31 -211 31h-121l-506 -50v70q106 6 170 14q96 13 127 52q33 38 33 145v754l-25 196q-14 51 -39 78q-14 6 -180 14q-160 9 -160 47q0 15 17 35q18 19 32 21q88 -13 316 -37q53 -4 112 -4q158 0 172 51q2 14 7 41q2 29 41 35q32 0 32 -62q0 -47 23 -47
q22 0 88 17h51v-43q0 -41 -70 -41h-32q-64 0 -64 -35v-1147q0 -37 101 -47q120 -12 120 -53q0 -35 -34 -35zM645 1284q-34 -18 -57 -41v-1120q0 -14 57 -19v1180zM110 1650q31 37 86 94q53 55 74 57q47 -28 119 -80q67 -49 67 -77q0 -9 -53 -62q-55 -55 -92 -86
q-21 0 -107 70q-90 69 -94 84zM514 1649q0 16 78 92q82 80 92 80q6 0 55 -41q50 -43 86 -86q35 -43 35 -55q-10 -19 -155 -142q-11 0 -56 31q-47 29 -88 68q-43 36 -47 53z" />
    <glyph glyph-name="Eth" unicode="&#xd0;" horiz-adv-x="1394" 
d="M469 749q4 -90 8 -198q14 -406 18 -406l449 -41q53 0 104 107q82 172 82 401q0 273 -137 471q-139 203 -342 203q-191 0 -191 -164q0 -76 4 -221q72 -2 369 -2l76 2q0 -10 2 -41v-47q-10 -56 -80 -92l-14 10q-25 19 -53 19h-256q-13 0 -39 -1zM292 889q-3 272 -12 291
q-12 24 -131 49q-31 6 -86 18q-43 17 -43 39q0 47 37 47q272 -67 340 -67h12q137 153 324 157h12q234 0 381 -168q168 -190 168 -546q0 -289 -121 -500q-133 -229 -344 -229q-18 0 -231 25.5t-275 25.5q-100 0 -153 -39q-82 -60 -121 -225q-15 0 -33 59q-16 51 -16 68
q0 51 32 118q37 76 93 111q36 22 143 37q6 0 22 6v-2l3 149v430q-28 -1 -60 -2l-201 10q-15 27 -27 129q147 0 287 9z" />
    <glyph glyph-name="Ntilde" unicode="&#xd1;" horiz-adv-x="1780" 
d="M1661 1341q-4 -2 -39 -8q-115 -20 -115 -65v-1325q-86 0 -112 114q-234 234 -459 426q-10 9 -106 107q-158 160 -211 211q-160 153 -207 170q-15 -258 -15 -326v-239q-2 -125 -2 -146q0 -106 21 -137q29 -45 131 -45q23 0 61 2q39 2 54 2q49 0 59 -16q8 -15 8 -21
q0 -45 -164 -45q-22 0 -65 2h-55l-52 -2q-22 0 -98 -10q-72 -8 -108 -8q-91 0 -91 38q0 7 2 11l3 8q20 41 49 41q12 0 37 -6q22 -8 34 -8q15 0 41 10q39 22 39 547q0 372 -8 424q-6 67 -35 221q-6 26 -14 65q-4 31 -41 31q-27 0 -82 -12q-55 -15 -80 -15q-41 0 -41 31
q0 18 10 33q9 18 187 43q123 16 147 16q39 0 39 -26q0 -4 -2 -21q-4 -16 -4 -29q0 -77 111 -178q131 -123 479 -442q371 -338 426 -379q14 57 14 469q0 430 -14 459q-19 24 -94 24h-43q-66 0 -66 49q8 27 66 27h41q30 -2 53 -2q121 0 205 8l75 6q50 0 50 -45q0 -28 -19 -39z
M1092 1519q-24 -17 -57 -17q-39 0 -113 29q-107 41 -152 41q-14 0 -26 -2q-64 -13 -264 -144l243 243q114 75 185 75q41 0 128.5 -28.5t130.5 -28.5q54 0 107 13z" />
    <glyph glyph-name="Ograve" unicode="&#xd2;" horiz-adv-x="1466" 
d="M756 -29h-145q-250 0 -430 193q-181 194 -181 469v168q0 123 70 266q86 180 240 260q53 31 143 74q55 22 123 22h184q252 0 432 -202q174 -195 174 -453v-162q0 -280 -221 -471q-188 -164 -389 -164zM590 1313q-207 0 -305 -191q-59 -116 -59 -227v-170q0 -143 94 -317
q33 -109 168 -211q135 -101 244 -101h118q125 0 205 154q72 141 72 336q0 327 -144 524q-145 203 -393 203zM857 1499q-175 0 -275 68q-57 23 -252 213q39 21 80 21q81 0 332 -85q23 -9 58 -19t105 -72q75 -70 75 -112q-64 -14 -123 -14z" />
    <glyph glyph-name="Oacute" unicode="&#xd3;" horiz-adv-x="1466" 
d="M756 -29h-145q-250 0 -430 193q-181 194 -181 469v168q0 123 70 266q86 180 240 260q53 31 143 74q55 22 123 22h184q252 0 432 -202q174 -195 174 -453v-162q0 -280 -221 -471q-188 -164 -389 -164zM590 1313q-207 0 -305 -191q-59 -116 -59 -227v-170q0 -143 94 -317
q33 -109 168 -211q135 -101 244 -101h118q125 0 205 154q72 141 72 336q0 327 -144 524q-145 203 -393 203zM330 1513q0 42 75 112q70 62 105 72t58 19q251 85 332 85q41 0 80 -21q-195 -190 -252 -213q-100 -68 -275 -68q-59 0 -123 14z" />
    <glyph glyph-name="Ocircumflex" unicode="&#xd4;" horiz-adv-x="1466" 
d="M756 -29h-145q-250 0 -430 193q-181 194 -181 469v168q0 123 70 266q86 180 240 260q53 31 143 74q55 22 123 22h184q252 0 432 -202q174 -195 174 -453v-162q0 -280 -221 -471q-188 -164 -389 -164zM590 1313q-207 0 -305 -191q-59 -116 -59 -227v-170q0 -143 94 -317
q33 -109 168 -211q135 -101 244 -101h118q125 0 205 154q72 141 72 336q0 327 -144 524q-145 203 -393 203zM808 1539q-144 163 -175 163q-21 0 -69 -56q-32 -37 -114 -125q-27 -21 -47 -21q-37 0 -43 60q51 117 174 235q113 108 161 108q6 0 10 -3q58 -49 118 -115
q32 -37 103 -115q3 -9 5 -19l9 -50q-52 -78 -90 -78q-23 0 -42 16z" />
    <glyph glyph-name="Otilde" unicode="&#xd5;" horiz-adv-x="1466" 
d="M756 -29h-145q-250 0 -430 193q-181 194 -181 469v168q0 123 70 266q86 180 240 260q53 31 143 74q55 22 123 22h184q252 0 432 -202q174 -195 174 -453v-162q0 -280 -221 -471q-188 -164 -389 -164zM590 1313q-207 0 -305 -191q-59 -116 -59 -227v-170q0 -143 94 -317
q33 -109 168 -211q135 -101 244 -101h118q125 0 205 154q72 141 72 336q0 327 -144 524q-145 203 -393 203zM892 1519q-24 -17 -57 -17q-39 0 -113 29q-107 41 -152 41q-14 0 -26 -2q-64 -13 -264 -144l243 243q114 75 185 75q41 0 128.5 -28.5t130.5 -28.5q54 0 107 13z
" />
    <glyph glyph-name="Odieresis" unicode="&#xd6;" horiz-adv-x="1466" 
d="M756 -29h-145q-250 0 -430 193q-181 194 -181 469v168q0 123 70 266q86 180 240 260q53 31 143 74q55 22 123 22h184q252 0 432 -202q174 -195 174 -453v-162q0 -280 -221 -471q-188 -164 -389 -164zM590 1313q-207 0 -305 -191q-59 -116 -59 -227v-170q0 -143 94 -317
q33 -109 168 -211q135 -101 244 -101h118q125 0 205 154q72 141 72 336q0 327 -144 524q-145 203 -393 203zM270 1650q31 37 86 94q53 55 74 57q47 -28 119 -80q67 -49 67 -77q0 -9 -53 -62q-55 -55 -92 -86q-21 0 -107 70q-90 69 -94 84zM674 1649q0 16 78 92q82 80 92 80
q6 0 55 -41q50 -43 86 -86q35 -43 35 -55q-10 -19 -155 -142q-11 0 -56 31q-47 29 -88 68q-43 36 -47 53z" />
    <glyph glyph-name="multiply" unicode="&#xd7;" horiz-adv-x="936" 
d="M617 343q-52 0 -127 90q-6 7 -101 140l-22 33q-27 -123 -86 -195q-58 -70 -142 -70q-100 0 -139 84q0 23 35 76q31 49 41 49q22 0 49 -22l12 -11q27 -26 62 -28q94 141 117 207q-27 77 -78 161q-94 148 -213 195q20 109 106 109q51 0 109 -43q76 -56 119 -134
q16 -32 55 -96q35 82 102 166q88 111 164 113q27 0 60 -23q43 -31 43 -67q0 -23 -17 -45q-45 -60 -76 -60q-18 0 -32 19l-7 8q-10 8 -30 18q-47 -57 -76 -94q-61 -84 -74 -129q2 -29 92 -162q88 -135 111 -149q2 -2 12 -2q21 0 62 41q41 38 59 38q16 0 29 -26
q-43 -55 -80 -94q-90 -97 -139 -97z" />
    <glyph glyph-name="Oslash" unicode="&#xd8;" horiz-adv-x="1466" 
d="M956 1145q-140 168 -366 168q-207 0 -305 -191q-59 -116 -59 -227v-170q0 -143 94 -317q7 -23 19 -46zM427 248q28 -26 61 -51q135 -101 244 -101h118q125 0 205 154q72 141 72 336q0 258 -90 435zM756 -29h-145q-250 0 -430 193q-181 194 -181 469v168q0 123 70 266
q86 180 240 260q53 31 143 74q55 22 123 22h184q252 0 432 -202q174 -195 174 -453v-162q0 -280 -221 -471q-188 -164 -389 -164z" />
    <glyph glyph-name="Ugrave" unicode="&#xd9;" horiz-adv-x="1602" 
d="M1360 6q-55 0 -106 35q-62 43 -98 115q-11 22 -15 26q-12 17 -26 19q-66 -60 -125 -105q-117 -86 -189 -94q-24 -2 -114 -20q-74 -13 -119 -13q-150 0 -287 133q-59 60 -88 177q-35 147 -35 436q0 418 -12 467q-16 65 -80 100q-39 21 -49 33q-17 20 -17 61
q134 0 224 18.5t92 18.5q61 0 61 -84q0 -18 -2 -98q-4 -82 -4 -150v-141q-2 -94 -2 -137q0 -293 41 -418q78 -238 326 -238q94 0 178 33q104 43 151 125q48 101 48 316q0 100 -13 221q-4 39 -8 202q-4 127 -20 201q-4 19 -50 64l-14 14q-31 27 -31 45q0 16 23 29
q123 30 244 30q22 0 34 -6q23 -20 23 -264v-620q0 -203 31 -287q41 -111 170 -152q-9 -35 -47 -61q-43 -31 -95 -31zM897 1499q-175 0 -275 68q-57 23 -252 213q39 21 80 21q81 0 332 -85q23 -9 58 -19t105 -72q75 -70 75 -112q-64 -14 -123 -14z" />
    <glyph glyph-name="Uacute" unicode="&#xda;" horiz-adv-x="1602" 
d="M1360 6q-55 0 -106 35q-62 43 -98 115q-11 22 -15 26q-12 17 -26 19q-66 -60 -125 -105q-117 -86 -189 -94q-24 -2 -114 -20q-74 -13 -119 -13q-150 0 -287 133q-59 60 -88 177q-35 147 -35 436q0 418 -12 467q-16 65 -80 100q-39 21 -49 33q-17 20 -17 61
q134 0 224 18.5t92 18.5q61 0 61 -84q0 -18 -2 -98q-4 -82 -4 -150v-141q-2 -94 -2 -137q0 -293 41 -418q78 -238 326 -238q94 0 178 33q104 43 151 125q48 101 48 316q0 100 -13 221q-4 39 -8 202q-4 127 -20 201q-4 19 -50 64l-14 14q-31 27 -31 45q0 16 23 29
q123 30 244 30q22 0 34 -6q23 -20 23 -264v-620q0 -203 31 -287q41 -111 170 -152q-9 -35 -47 -61q-43 -31 -95 -31zM370 1513q0 42 75 112q70 62 105 72t58 19q251 85 332 85q41 0 80 -21q-195 -190 -252 -213q-100 -68 -275 -68q-59 0 -123 14z" />
    <glyph glyph-name="Ucircumflex" unicode="&#xdb;" horiz-adv-x="1602" 
d="M1360 6q-55 0 -106 35q-62 43 -98 115q-11 22 -15 26q-12 17 -26 19q-66 -60 -125 -105q-117 -86 -189 -94q-24 -2 -114 -20q-74 -13 -119 -13q-150 0 -287 133q-59 60 -88 177q-35 147 -35 436q0 418 -12 467q-16 65 -80 100q-39 21 -49 33q-17 20 -17 61
q134 0 224 18.5t92 18.5q61 0 61 -84q0 -18 -2 -98q-4 -82 -4 -150v-141q-2 -94 -2 -137q0 -293 41 -418q78 -238 326 -238q94 0 178 33q104 43 151 125q48 101 48 316q0 100 -13 221q-4 39 -8 202q-4 127 -20 201q-4 19 -50 64l-14 14q-31 27 -31 45q0 16 23 29
q123 30 244 30q22 0 34 -6q23 -20 23 -264v-620q0 -203 31 -287q41 -111 170 -152q-9 -35 -47 -61q-43 -31 -95 -31zM858 1539q-144 163 -175 163q-21 0 -69 -56q-32 -37 -114 -125q-27 -21 -47 -21q-37 0 -43 60q51 117 174 235q113 108 161 108q6 0 10 -3q58 -49 118 -115
q32 -37 103 -115q3 -9 5 -19l9 -50q-52 -78 -90 -78q-23 0 -42 16z" />
    <glyph glyph-name="Udieresis" unicode="&#xdc;" horiz-adv-x="1602" 
d="M1360 6q-55 0 -106 35q-62 43 -98 115q-11 22 -15 26q-12 17 -26 19q-66 -60 -125 -105q-117 -86 -189 -94q-24 -2 -114 -20q-74 -13 -119 -13q-150 0 -287 133q-59 60 -88 177q-35 147 -35 436q0 418 -12 467q-16 65 -80 100q-39 21 -49 33q-17 20 -17 61
q134 0 224 18.5t92 18.5q61 0 61 -84q0 -18 -2 -98q-4 -82 -4 -150v-141q-2 -94 -2 -137q0 -293 41 -418q78 -238 326 -238q94 0 178 33q104 43 151 125q48 101 48 316q0 100 -13 221q-4 39 -8 202q-4 127 -20 201q-4 19 -50 64l-14 14q-31 27 -31 45q0 16 23 29
q123 30 244 30q22 0 34 -6q23 -20 23 -264v-620q0 -203 31 -287q41 -111 170 -152q-9 -35 -47 -61q-43 -31 -95 -31zM310 1650q31 37 86 94q53 55 74 57q47 -28 119 -80q67 -49 67 -77q0 -9 -53 -62q-55 -55 -92 -86q-21 0 -107 70q-90 69 -94 84zM714 1649q0 16 78 92
q82 80 92 80q6 0 55 -41q50 -43 86 -86q35 -43 35 -55q-10 -19 -155 -142q-11 0 -56 31q-47 29 -88 68q-43 36 -47 53z" />
    <glyph glyph-name="Yacute" unicode="&#xdd;" horiz-adv-x="1156" 
d="M1034 1303q-12 -29 -41 -95q-96 -237 -229 -456q-72 -117 -72 -232q0 -102 -2 -209q-2 -106 -2 -121q0 -61 18 -81q17 -19 60 -19q10 0 36 2q29 2 45 2q48 0 78 -8q25 -6 25 -39t-25 -41q-28 0 -90 4q-59 2 -90 2q-90 0 -201 -16q-90 -14 -206 -39q-76 -16 -82 -16
q-17 0 -31 14q-14 18 -14 33q0 43 145 78l39 8q41 10 47 14q41 27 41 322q0 161 -4 176q-19 69 -109 205q-127 192 -237 407q-31 62 -97 80q-32 10 -36 39q0 22 92 72q94 47 137 47q23 -4 84 -119q45 -84 125 -244q174 -344 203 -356q14 12 102 176q94 176 113 246
q14 49 32 215q9 67 72 67q19 0 96 -10q0 -57 -22 -108zM270 1513q0 42 75 112q70 62 105 72t58 19q251 85 332 85q41 0 80 -21q-195 -190 -252 -213q-100 -68 -275 -68q-59 0 -123 14z" />
    <glyph glyph-name="Thorn" unicode="&#xde;" horiz-adv-x="1441" 
d="M776 1028q-203 0 -203 -201v-159q0 -221 248 -221q111 0 182 67q78 70 78 189q0 141 -73 229q-82 96 -232 96zM574 1063q19 15 51 39q108 74 270 74q190 0 317 -113q129 -115 129 -295q0 -119 -45 -197q-43 -69 -141 -135q-33 -20 -96 -63q-174 -40 -295 -40
q-111 0 -178 34l-6 -203v-8q0 -66 38 -86q25 -15 103 -15h158q41 0 41 -37q0 -53 -68 -53l-178 17h-307l-242 -23q-47 0 -47 49q0 41 180 47q41 2 47 6q41 15 41 198v339q0 47 -12 164l1 101q2 182 5 372v8q0 66 -38 86q-25 15 -103 15h-158q-41 0 -41 37q0 53 68 53
l178 -17h307l242 23q47 0 47 -49q0 -41 -180 -47q-41 -2 -47 -6q-41 -15 -41 -275z" />
    <glyph glyph-name="germandbls" unicode="&#xdf;" horiz-adv-x="1470" 
d="M675 75l95 -95q-109 15 -258 55q-69 18 -157 18q-25 0 -74 -4l-187 -33q-8 0 -18 17q-12 14 -12 28q0 17 18 31l240 68q10 20 10 190q0 189 -5 692q9 166 151 291q27 17 139 71q172 50 280 50q129 0 230 -68q114 -79 139 -225q4 -24 4 -63q0 -176 -186 -297
q-15 -8 -43 -27q145 -37 241 -162q88 -112 88 -229v-4q-2 -277 -202 -354q-136 -54 -289 -54l-78 90q129 0 209 39q135 66 135 310v30q-10 152 -197 232q-49 20 -139 51q-76 25 -90 51q0 17 49 31q29 8 90 33q133 65 146 206q0 121 -70 195q-67 72 -180 72q-14 0 -45 -4
q-98 -13 -137 -101q-31 -67 -31 -205q0 -38 4 -116q2 -78 2 -115q0 -117 -2 -260q-4 -145 -4 -178q0 -150 43 -203q29 -37 91 -54z" />
    <glyph glyph-name="agrave" unicode="&#xe0;" horiz-adv-x="1032" 
d="M799 -23q-131 0 -211 58q-17 14 -47 41q-21 14 -33 14q-14 0 -39 -16q-21 -15 -51 -41q-88 -60 -199 -60q-117 0 -168 31t-51 107q0 88 102 168q70 51 154 81q63 21 174 66q82 41 82 84q0 90 -70 145q-57 47 -131 47q-14 0 -55 -12q-45 -16 -45 -28q0 -7 29 -19
q30 -12 30 -35q0 -16 -45 -39q-47 -22 -90 -22q-74 0 -113 67q-10 13 -10 35q0 72 154 129q131 47 244 47q84 0 196 -51q137 -61 137 -141v-395q0 -25 15 -56q16 -32 37 -43q59 -28 108 -41q29 -8 29 -35q0 -24 -51 -55q-50 -31 -82 -31zM502 369q-105 -41 -183 -90
q-90 -60 -90 -95q0 -94 86 -94q47 0 99 37q92 66 92 195q0 22 -4 47zM606 898q-175 0 -275 68q-57 23 -252 213q39 21 80 21q82 0 332 -85q23 -9 58 -19t105 -72q75 -70 75 -112q-64 -14 -123 -14z" />
    <glyph glyph-name="aacute" unicode="&#xe1;" horiz-adv-x="1032" 
d="M799 -23q-131 0 -211 58q-17 14 -47 41q-21 14 -33 14q-14 0 -39 -16q-21 -15 -51 -41q-88 -60 -199 -60q-117 0 -168 31t-51 107q0 88 102 168q70 51 154 81q63 21 174 66q82 41 82 84q0 90 -70 145q-57 47 -131 47q-14 0 -55 -12q-45 -16 -45 -28q0 -7 29 -19
q30 -12 30 -35q0 -16 -45 -39q-47 -22 -90 -22q-74 0 -113 67q-10 13 -10 35q0 72 154 129q131 47 244 47q84 0 196 -51q137 -61 137 -141v-395q0 -25 15 -56q16 -32 37 -43q59 -28 108 -41q29 -8 29 -35q0 -24 -51 -55q-50 -31 -82 -31zM502 369q-105 -41 -183 -90
q-90 -60 -90 -95q0 -94 86 -94q47 0 99 37q92 66 92 195q0 22 -4 47zM79 912q0 42 76 112q70 62 104.5 72t58.5 19q250 85 331 85q41 0 80 -21q-194 -190 -251 -213q-101 -68 -275 -68q-60 0 -124 14z" />
    <glyph glyph-name="acircumflex" unicode="&#xe2;" horiz-adv-x="1032" 
d="M799 -23q-131 0 -211 58q-17 14 -47 41q-21 14 -33 14q-14 0 -39 -16q-21 -15 -51 -41q-88 -60 -199 -60q-117 0 -168 31t-51 107q0 88 102 168q70 51 154 81q63 21 174 66q82 41 82 84q0 90 -70 145q-57 47 -131 47q-14 0 -55 -12q-45 -16 -45 -28q0 -7 29 -19
q30 -12 30 -35q0 -16 -45 -39q-47 -22 -90 -22q-74 0 -113 67q-10 13 -10 35q0 72 154 129q131 47 244 47q84 0 196 -51q137 -61 137 -141v-395q0 -25 15 -56q16 -32 37 -43q59 -28 108 -41q29 -8 29 -35q0 -24 -51 -55q-50 -31 -82 -31zM502 369q-105 -41 -183 -90
q-90 -60 -90 -95q0 -94 86 -94q47 0 99 37q92 66 92 195q0 22 -4 47zM546 939q-144 163 -175 163q-21 0 -69 -56q-32 -37 -114 -125q-27 -21 -47 -21q-37 0 -43 60q51 117 174 235q113 108 161 108q6 0 10 -3q58 -49 118 -115q32 -37 103 -115q3 -9 5 -19l9 -50
q-52 -78 -90 -78q-23 0 -42 16z" />
    <glyph glyph-name="atilde" unicode="&#xe3;" horiz-adv-x="1033" 
d="M800 -23q-131 0 -211 58q-17 14 -47 41q-21 14 -33 14q-14 0 -39 -16q-21 -15 -51 -41q-88 -60 -199 -60q-117 0 -168 31t-51 107q0 88 102 168q70 51 154 81q63 21 174 66q82 41 82 84q0 90 -70 145q-57 47 -131 47q-14 0 -55 -12q-45 -16 -45 -28q0 -7 29 -19
q30 -12 30 -35q0 -16 -45 -39q-47 -22 -90 -22q-74 0 -113 67q-10 13 -10 35q0 72 154 129q131 47 244 47q84 0 196 -51q137 -61 137 -141v-395q0 -25 15 -56q16 -32 37 -43q59 -28 108 -41q29 -8 29 -35q0 -24 -51 -55q-50 -31 -82 -31zM503 369q-105 -41 -183 -90
q-90 -60 -90 -95q0 -94 86 -94q47 0 99 37q92 66 92 195q0 22 -4 47zM612 918q-24 -17 -57 -17q-39 0 -113 29q-107 41 -152 41q-14 0 -26 -2q-64 -13 -264 -144l243 243q114 75 185 75q41 0 128.5 -28.5t130.5 -28.5q54 0 107 13z" />
    <glyph glyph-name="adieresis" unicode="&#xe4;" horiz-adv-x="1033" 
d="M800 -23q-131 0 -211 58q-17 14 -47 41q-21 14 -33 14q-14 0 -39 -16q-21 -15 -51 -41q-88 -60 -199 -60q-117 0 -168 31t-51 107q0 88 102 168q70 51 154 81q63 21 174 66q82 41 82 84q0 90 -70 145q-57 47 -131 47q-14 0 -55 -12q-45 -16 -45 -28q0 -7 29 -19
q30 -12 30 -35q0 -16 -45 -39q-47 -22 -90 -22q-74 0 -113 67q-10 13 -10 35q0 72 154 129q131 47 244 47q84 0 196 -51q137 -61 137 -141v-395q0 -25 15 -56q16 -32 37 -43q59 -28 108 -41q29 -8 29 -35q0 -24 -51 -55q-50 -31 -82 -31zM503 369q-105 -41 -183 -90
q-90 -60 -90 -95q0 -94 86 -94q47 0 99 37q92 66 92 195q0 22 -4 47zM0 1050q31 37 86 94q53 55 74 57q47 -28 119 -80q67 -49 67 -77q0 -9 -53 -62q-55 -55 -92 -86q-21 0 -107 70q-90 69 -94 84zM404 1049q0 16 78 92q82 80 92 80q6 0 55 -41q50 -43 86 -86q35 -43 35 -55
q-10 -19 -155 -142q-11 0 -56 31q-47 29 -88 68q-43 36 -47 53z" />
    <glyph glyph-name="aring" unicode="&#xe5;" horiz-adv-x="1032" 
d="M799 -23q-131 0 -211 58q-17 14 -47 41q-21 14 -33 14q-14 0 -39 -16q-21 -15 -51 -41q-88 -60 -199 -60q-117 0 -168 31t-51 107q0 88 102 168q70 51 154 81q63 21 174 66q82 41 82 84q0 90 -70 145q-57 47 -131 47q-14 0 -55 -12q-45 -16 -45 -28q0 -7 29 -19
q30 -12 30 -35q0 -16 -45 -39q-47 -22 -90 -22q-74 0 -113 67q-10 13 -10 35q0 72 154 129q131 47 244 47q84 0 196 -51q137 -61 137 -141v-395q0 -25 15 -56q16 -32 37 -43q59 -28 108 -41q29 -8 29 -35q0 -24 -51 -55q-50 -31 -82 -31zM502 369q-105 -41 -183 -90
q-90 -60 -90 -95q0 -94 86 -94q47 0 99 37q92 66 92 195q0 22 -4 47zM401 897q-155 0 -212 61q-41 42 -41 132q0 62 66 105q65 43 165 52q19 2 28 2q67 0 127 -28q53 -24 64 -50q21 -48 21 -95q0 -74 -55 -121q-58 -48 -163 -58zM370 1165q-11 0 -15 -1q-28 -8 -43 -36
q-8 -16 -8 -35q0 -40 27 -74q28 -35 65 -35q7 0 39 10q8 2 21 7q12 6 19 30q0 45 -25 85q-30 49 -80 49z" />
    <glyph glyph-name="ae" unicode="&#xe6;" horiz-adv-x="1363" 
d="M502 369q-105 -41 -183 -90q-90 -60 -90 -95q0 -94 86 -94q47 0 99 37q92 66 92 195q0 22 -4 47zM868 711q-76 0 -119 -219q47 18 131 59q92 43 92 51q0 12 -47 60q-49 49 -57 49zM762 -22q-106 7 -174 57q-17 14 -47 41q-21 14 -33 14q-14 0 -39 -16q-21 -15 -51 -41
q-88 -60 -199 -60q-117 0 -168 31t-51 107q0 88 102 168q70 51 154 81q63 21 174 66q82 41 82 84q0 90 -70 145q-57 47 -131 47q-14 0 -55 -12q-45 -16 -45 -28q0 -7 29 -19q30 -12 30 -35q0 -16 -45 -39q-47 -22 -90 -22q-74 0 -113 67q-10 13 -10 35q0 72 154 129
q131 47 244 47q84 0 196 -51q50 -22 82 -47q94 76 252 76q81 0 149 -55q59 -50 72 -50q6 0 32.5 14.5t38.5 14.5q31 0 31 -39q0 -14 -51 -43q-25 -12 -57 -29q-84 -41 -256 -131q-156 -86 -156 -125q0 -110 65 -184q68 -82 185 -82q53 0 120.5 52.5t86.5 52.5q16 0 39 -41
q-33 -39 -111 -117q-166 -82 -260 -82q-57 0 -106 19z" />
    <glyph glyph-name="ccedilla" unicode="&#xe7;" horiz-adv-x="813" 
d="M383 -19q-9 -1 -19 -1q-192 0 -286 110q-78 90 -78 240q0 194 94 332q111 159 309 159q64 0 162 -39q121 -47 121 -110q0 -31 -107 -109q-8 0 -20 12q-8 9 -16 17q-133 139 -217 139q-58 0 -97 -96q-37 -88 -37 -193q0 -145 70 -237q78 -103 225 -103q47 0 110.5 65.5
t72.5 65.5q12 0 26 -16q17 -18 17 -27q0 -26 -107 -110q-29 -23 -57 -41q56 -40 74 -87q19 -43 27 -120q-1 -39 -4 -60.5t-13 -76.5q-20 -95 -69 -142q-66 -58 -199 -58q-217 0 -311 185q45 22 51 22q23 0 57 -56q37 -60 93 -60q135 0 180 106q3 43 8 104q0 31 -6 98
q-16 49 -51 84z" />
    <glyph glyph-name="egrave" unicode="&#xe8;" horiz-adv-x="817" 
d="M666 645q-25 -12 -57 -29q-84 -41 -256 -131q-156 -86 -156 -125q0 -110 65 -184q68 -82 185 -82q53 0 120.5 52.5t86.5 52.5q16 0 39 -41q-33 -39 -111 -117q-166 -82 -260 -82q-125 0 -215 94q-107 109 -107 299q0 6 2 41q25 410 392 410q81 0 149 -55q59 -50 72 -50
q6 0 32.5 14.5t38.5 14.5q31 0 31 -39q0 -14 -51 -43zM322 711q-76 0 -119 -219q47 18 131 59q92 43 92 51q0 12 -47 60q-49 49 -57 49zM556 898q-175 0 -275 68q-57 23 -252 213q39 21 80 21q82 0 332 -85q23 -9 58 -19t105 -72q75 -70 75 -112q-64 -14 -123 -14z" />
    <glyph glyph-name="eacute" unicode="&#xe9;" horiz-adv-x="817" 
d="M666 645q-25 -12 -57 -29q-84 -41 -256 -131q-156 -86 -156 -125q0 -110 65 -184q68 -82 185 -82q53 0 120.5 52.5t86.5 52.5q16 0 39 -41q-33 -39 -111 -117q-166 -82 -260 -82q-125 0 -215 94q-107 109 -107 299q0 6 2 41q25 410 392 410q81 0 149 -55q59 -50 72 -50
q6 0 32.5 14.5t38.5 14.5q31 0 31 -39q0 -14 -51 -43zM322 711q-76 0 -119 -219q47 18 131 59q92 43 92 51q0 12 -47 60q-49 49 -57 49zM29 912q0 42 75 112q70 62 105 72t58 19q250 85 332 85q41 0 80 -21q-195 -190 -252 -213q-100 -68 -275 -68q-59 0 -123 14z" />
    <glyph glyph-name="ecircumflex" unicode="&#xea;" horiz-adv-x="817" 
d="M666 645q-25 -12 -57 -29q-84 -41 -256 -131q-156 -86 -156 -125q0 -110 65 -184q68 -82 185 -82q53 0 120.5 52.5t86.5 52.5q16 0 39 -41q-33 -39 -111 -117q-166 -82 -260 -82q-125 0 -215 94q-107 109 -107 299q0 6 2 41q25 410 392 410q81 0 149 -55q59 -50 72 -50
q6 0 32.5 14.5t38.5 14.5q31 0 31 -39q0 -14 -51 -43zM322 711q-76 0 -119 -219q47 18 131 59q92 43 92 51q0 12 -47 60q-49 49 -57 49zM506 939q-144 163 -175 163q-21 0 -69 -56q-32 -37 -114 -125q-27 -21 -47 -21q-37 0 -43 60q51 117 174 235q113 108 161 108
q6 0 10 -3q58 -49 118 -115q32 -37 103 -115q3 -9 5 -19l9 -50q-52 -78 -90 -78q-23 0 -42 16z" />
    <glyph glyph-name="edieresis" unicode="&#xeb;" horiz-adv-x="830" 
d="M666 645q-25 -12 -57 -29q-84 -41 -256 -131q-156 -86 -156 -125q0 -110 65 -184q68 -82 185 -82q53 0 120.5 52.5t86.5 52.5q16 0 39 -41q-33 -39 -111 -117q-166 -82 -260 -82q-125 0 -215 94q-107 109 -107 299q0 6 2 41q25 410 392 410q81 0 149 -55q59 -50 72 -50
q6 0 32.5 14.5t38.5 14.5q31 0 31 -39q0 -14 -51 -43zM322 711q-76 0 -119 -219q47 18 131 59q92 43 92 51q0 12 -47 60q-49 49 -57 49zM-20 1050q31 37 86 94q53 55 74 57q47 -28 119 -80q67 -49 67 -77q0 -9 -53 -62q-55 -55 -92 -86q-21 0 -107 70q-90 69 -94 84z
M384 1049q0 16 78 92q82 80 92 80q6 0 55 -41q50 -43 86 -86q35 -43 35 -55q-10 -19 -155 -142q-11 0 -56 31q-47 29 -88 68q-43 36 -47 53z" />
    <glyph glyph-name="igrave" unicode="&#xec;" horiz-adv-x="679" 
d="M486 141l-49 -28q-60 -45 -189 -121q-33 -21 -43 -21q-18 0 -33 21q-6 12 -6 442v76q0 131 -22 170q-21 37 -105 74q-39 18 -39 43q0 12 11 28q125 33 311 74q55 0 55 -63q0 -13 -2 -37.5t-2 -34.5v-596q23 4 66 31q41 24 55 24q10 0 16 -6q17 -10 17 -27q0 -22 -41 -49z
M456 898q-175 0 -275 68q-57 23 -252 213q39 21 80 21q82 0 332 -85q23 -9 58 -19t105 -72q75 -70 75 -112q-64 -14 -123 -14z" />
    <glyph glyph-name="iacute" unicode="&#xed;" horiz-adv-x="679" 
d="M486 141l-49 -28q-60 -45 -189 -121q-33 -21 -43 -21q-18 0 -33 21q-6 12 -6 442v76q0 131 -22 170q-21 37 -105 74q-39 18 -39 43q0 12 11 28q125 33 311 74q55 0 55 -63q0 -13 -2 -37.5t-2 -34.5v-596q23 4 66 31q41 24 55 24q10 0 16 -6q17 -10 17 -27q0 -22 -41 -49z
M-71 912q0 42 75 112q70 62 105 72t58 19q250 85 332 85q41 0 80 -21q-195 -190 -252 -213q-100 -68 -275 -68q-59 0 -123 14z" />
    <glyph glyph-name="icircumflex" unicode="&#xee;" horiz-adv-x="658" 
d="M486 141l-49 -28q-60 -45 -189 -121q-33 -21 -43 -21q-18 0 -33 21q-6 12 -6 442v76q0 131 -22 170q-21 37 -105 74q-39 18 -39 43q0 12 11 28q125 33 311 74q55 0 55 -63q0 -13 -2 -37.5t-2 -34.5v-596q23 4 66 31q41 24 55 24q10 0 16 -6q17 -10 17 -27q0 -22 -41 -49z
M426 939q-144 163 -175 163q-21 0 -69 -56q-32 -37 -114 -125q-27 -21 -47 -21q-37 0 -43 60q51 117 174 235q113 108 161 108q6 0 10 -3q58 -49 118 -115q32 -37 103 -115q3 -9 5 -19l9 -50q-52 -78 -90 -78q-23 0 -42 16z" />
    <glyph glyph-name="idieresis" unicode="&#xef;" horiz-adv-x="730" 
d="M486 141l-49 -28q-60 -45 -189 -121q-33 -21 -43 -21q-18 0 -33 21q-6 12 -6 442v76q0 131 -22 170q-21 37 -105 74q-39 18 -39 43q0 12 11 28q125 33 311 74q55 0 55 -63q0 -13 -2 -37.5t-2 -34.5v-596q23 4 66 31q41 24 55 24q10 0 16 -6q17 -10 17 -27q0 -22 -41 -49z
M-120 1050q31 37 86 94q53 55 74 57q47 -28 119 -80q67 -49 67 -77q0 -9 -53 -62q-55 -55 -92 -86q-21 0 -107 70q-90 69 -94 84zM284 1049q0 16 78 92q82 80 92 80q6 0 55 -41q50 -43 86 -86q35 -43 35 -55q-10 -19 -155 -142q-11 0 -56 31q-47 29 -88 68q-43 36 -47 53z
" />
    <glyph glyph-name="eth" unicode="&#xf0;" horiz-adv-x="1016" 
d="M580 724q-150 11 -176 11q-109 0 -168 -86q-52 -74 -52 -192q0 -135 62 -240q65 -115 162 -115q37 0 102 60q70 65 70 125v437zM772 625v-455q0 -29 15 -35q77 49 88 49q41 0 41 -45q0 -24 -41 -43q-25 -12 -82 -45l-23 -14l-47 -31q-72 -47 -80 -47q-51 0 -53 164
q-14 -4 -102 -80q-103 -88 -199 -88q-98 0 -182 98q-107 125 -107 346v17q8 413 387 413l186 -12v299q0 195 -96 195q-51 0 -170 -119q-25 -25 -33 -25q-22 0 -65 64q-39 59 -39 76q0 34 67 71q62 35 105 35q190 0 305 -104q131 -117 131 -344v-172q0 -13 51 -48
q54 -34 54 -57q0 -24 -33 -24h-23q-44 0 -55 -39z" />
    <glyph glyph-name="ntilde" unicode="&#xf1;" horiz-adv-x="1077" 
d="M799 119q12 0 67 45q56 43 78 43q23 0 33 -35q-68 -51 -121 -88q-131 -88 -174 -96q-49 0 -49 39q0 14 4 39q6 26 6 38q4 68 4 123q0 447 -159 447q-37 0 -107 -41q-37 -21 -45 -47q-10 -29 -10 -127q0 -6 2 -51q2 -46 2 -80q0 -351 -195 -365q-4 29 -4 86q0 29 2 107
v123q0 280 -45 333q-29 33 -59 52q-29 16 -29 45q113 79 156 79q39 -8 84 -61q45 -55 55 -57q49 26 107 57q116 64 167 70q261 0 263 -363q0 -51 -17 -166q-16 -121 -16 -149zM672 918q-24 -17 -57 -17q-39 0 -113 29q-107 41 -152 41q-14 0 -26 -2q-64 -13 -264 -144
l243 243q114 75 185 75q41 0 128.5 -28.5t130.5 -28.5q54 0 107 13z" />
    <glyph glyph-name="ograve" unicode="&#xf2;" horiz-adv-x="889" 
d="M756 262q-35 -98 -166 -192q-127 -93 -229 -93h-8q-226 9 -326 207q-27 54 -27 170q0 64 9 154q12 137 151 219q74 43 262 100q21 7 41 7q111 0 211 -101q115 -117 115 -287q0 -88 -33 -184zM336 715q-14 0 -26 -6q-68 -27 -107 -97q-37 -63 -37 -137q0 -113 58 -205
q77 -123 237 -166q88 0 111 82q12 45 12 224q0 125 -88 221q-80 84 -160 84zM585 898q-174 0 -275 68q-57 23 -251 213q39 21 80 21q81 0 331 -85q24 -9 58.5 -19t104.5 -72q76 -70 76 -112q-64 -14 -124 -14z" />
    <glyph glyph-name="oacute" unicode="&#xf3;" horiz-adv-x="889" 
d="M756 262q-35 -98 -166 -192q-127 -93 -229 -93h-8q-226 9 -326 207q-27 54 -27 170q0 64 9 154q12 137 151 219q74 43 262 100q21 7 41 7q111 0 211 -101q115 -117 115 -287q0 -88 -33 -184zM336 715q-14 0 -26 -6q-68 -27 -107 -97q-37 -63 -37 -137q0 -113 58 -205
q77 -123 237 -166q88 0 111 82q12 45 12 224q0 125 -88 221q-80 84 -160 84zM59 912q0 42 76 112q70 62 104.5 72t58.5 19q250 85 331 85q41 0 80 -21q-194 -190 -251 -213q-101 -68 -275 -68q-60 0 -124 14z" />
    <glyph glyph-name="ocircumflex" unicode="&#xf4;" horiz-adv-x="889" 
d="M756 262q-35 -98 -166 -192q-127 -93 -229 -93h-8q-226 9 -326 207q-27 54 -27 170q0 64 9 154q12 137 151 219q74 43 262 100q21 7 41 7q111 0 211 -101q115 -117 115 -287q0 -88 -33 -184zM336 715q-14 0 -26 -6q-68 -27 -107 -97q-37 -63 -37 -137q0 -113 58 -205
q77 -123 237 -166q88 0 111 82q12 45 12 224q0 125 -88 221q-80 84 -160 84zM546 939q-144 163 -175 163q-21 0 -69 -56q-32 -37 -114 -125q-27 -21 -47 -21q-37 0 -43 60q51 117 174 235q113 108 161 108q6 0 10 -3q58 -49 118 -115q32 -37 103 -115q3 -9 5 -19l9 -50
q-52 -78 -90 -78q-23 0 -42 16z" />
    <glyph glyph-name="otilde" unicode="&#xf5;" horiz-adv-x="894" 
d="M756 262q-35 -98 -166 -192q-127 -93 -229 -93h-8q-226 9 -326 207q-27 54 -27 170q0 64 9 154q12 137 151 219q74 43 262 100q21 7 41 7q111 0 211 -101q115 -117 115 -287q0 -88 -33 -184zM336 715q-14 0 -26 -6q-68 -27 -107 -97q-37 -63 -37 -137q0 -113 58 -205
q77 -123 237 -166q88 0 111 82q12 45 12 224q0 125 -88 221q-80 84 -160 84zM612 918q-24 -17 -57 -17q-39 0 -113 29q-107 41 -152 41q-14 0 -26 -2q-64 -13 -264 -144l243 243q114 75 185 75q41 0 128.5 -28.5t130.5 -28.5q54 0 107 13z" />
    <glyph glyph-name="odieresis" unicode="&#xf6;" horiz-adv-x="889" 
d="M756 262q-35 -98 -166 -192q-127 -93 -229 -93h-8q-226 9 -326 207q-27 54 -27 170q0 64 9 154q12 137 151 219q74 43 262 100q21 7 41 7q111 0 211 -101q115 -117 115 -287q0 -88 -33 -184zM336 715q-14 0 -26 -6q-68 -27 -107 -97q-37 -63 -37 -137q0 -113 58 -205
q77 -123 237 -166q88 0 111 82q12 45 12 224q0 125 -88 221q-80 84 -160 84zM0 1050q31 37 86 94q53 55 74 57q47 -28 119 -80q67 -49 67 -77q0 -9 -53 -62q-55 -55 -92 -86q-21 0 -107 70q-90 69 -94 84zM404 1049q0 16 78 92q82 80 92 80q6 0 55 -41q50 -43 86 -86
q35 -43 35 -55q-10 -19 -155 -142q-11 0 -56 31q-47 29 -88 68q-43 36 -47 53z" />
    <glyph glyph-name="divide" unicode="&#xf7;" horiz-adv-x="1011" 
d="M909 901q0 -10 2 -41v-47q-10 -56 -80 -92l-14 10q-25 19 -53 19h-256q-47 0 -275 -9l-201 10q-15 27 -27 129q232 0 445 21q48 -2 383 -2zM280 1174q31 37 86 94q53 55 74 57q47 -28 119 -80q67 -49 67 -77q0 -9 -53 -62q-55 -55 -92 -86q-21 0 -107 70q-90 69 -94 84z
M284 475q0 16 78 92q82 80 92 80q6 0 55 -41q50 -43 86 -86q35 -43 35 -55q-10 -19 -155 -142q-11 0 -56 31q-47 29 -88 68q-43 36 -47 53z" />
    <glyph glyph-name="oslash" unicode="&#xf8;" horiz-adv-x="889" 
d="M448 674q-56 41 -112 41q-14 0 -26 -6q-68 -27 -107 -97q-37 -63 -37 -137q0 -113 58 -205q5 -9 11 -18zM332 160q56 -36 129 -56q88 0 111 82q12 45 12 224q0 86 -41 158zM756 262q-35 -98 -166 -192q-127 -93 -229 -93h-8q-226 9 -326 207q-27 54 -27 170q0 64 9 154
q12 137 151 219q74 43 262 100q21 7 41 7q111 0 211 -101q115 -117 115 -287q0 -88 -33 -184z" />
    <glyph glyph-name="ugrave" unicode="&#xf9;" horiz-adv-x="1005" 
d="M834 -10q-11 -8 -29 -8q-41 0 -111 59q-67 59 -71 59q-29 -6 -76 -57q-84 -94 -180 -94q-160 0 -232 119q-67 112 -67 272q0 51 8 139t8 119q0 66 -25 88q-59 55 -59 72q176 61 254 61q25 0 33 -14l-21 -299l-8 -119q0 -268 189 -303q69 2 122 125q54 123 54 280
q0 168 -66 226q-12 10 -35 24q-20 13 -20 27q0 10 6 16q4 13 66 23q47 6 167 24q58 0 58 -127q0 -24 -2 -94q-2 -69 -2 -112q0 -277 4 -308q20 -63 55 -79q23 -5 51 -33q0 -43 -71 -86zM626 898q-175 0 -275 68q-57 23 -252 213q39 21 80 21q82 0 332 -85q23 -9 58 -19
t105 -72q75 -70 75 -112q-64 -14 -123 -14z" />
    <glyph glyph-name="uacute" unicode="&#xfa;" horiz-adv-x="1005" 
d="M834 -10q-11 -8 -29 -8q-41 0 -111 59q-67 59 -71 59q-29 -6 -76 -57q-84 -94 -180 -94q-160 0 -232 119q-67 112 -67 272q0 51 8 139t8 119q0 66 -25 88q-59 55 -59 72q176 61 254 61q25 0 33 -14l-21 -299l-8 -119q0 -268 189 -303q69 2 122 125q54 123 54 280
q0 168 -66 226q-12 10 -35 24q-20 13 -20 27q0 10 6 16q4 13 66 23q47 6 167 24q58 0 58 -127q0 -24 -2 -94q-2 -69 -2 -112q0 -277 4 -308q20 -63 55 -79q23 -5 51 -33q0 -43 -71 -86zM99 912q0 42 75 112q70 62 105 72t58 19q250 85 332 85q41 0 80 -21
q-195 -190 -252 -213q-100 -68 -275 -68q-59 0 -123 14z" />
    <glyph glyph-name="ucircumflex" unicode="&#xfb;" horiz-adv-x="1005" 
d="M834 -10q-11 -8 -29 -8q-41 0 -111 59q-67 59 -71 59q-29 -6 -76 -57q-84 -94 -180 -94q-160 0 -232 119q-67 112 -67 272q0 51 8 139t8 119q0 66 -25 88q-59 55 -59 72q176 61 254 61q25 0 33 -14l-21 -299l-8 -119q0 -268 189 -303q69 2 122 125q54 123 54 280
q0 168 -66 226q-12 10 -35 24q-20 13 -20 27q0 10 6 16q4 13 66 23q47 6 167 24q58 0 58 -127q0 -24 -2 -94q-2 -69 -2 -112q0 -277 4 -308q20 -63 55 -79q23 -5 51 -33q0 -43 -71 -86zM576 939q-144 163 -175 163q-21 0 -69 -56q-32 -37 -114 -125q-27 -21 -47 -21
q-37 0 -43 60q51 117 174 235q113 108 161 108q6 0 10 -3q58 -49 118 -115q32 -37 103 -115q3 -9 5 -19l9 -50q-52 -78 -90 -78q-23 0 -42 16z" />
    <glyph glyph-name="udieresis" unicode="&#xfc;" horiz-adv-x="1005" 
d="M834 -10q-11 -8 -29 -8q-41 0 -111 59q-67 59 -71 59q-29 -6 -76 -57q-84 -94 -180 -94q-160 0 -232 119q-67 112 -67 272q0 51 8 139t8 119q0 66 -25 88q-59 55 -59 72q176 61 254 61q25 0 33 -14l-21 -299l-8 -119q0 -268 189 -303q69 2 122 125q54 123 54 280
q0 168 -66 226q-12 10 -35 24q-20 13 -20 27q0 10 6 16q4 13 66 23q47 6 167 24q58 0 58 -127q0 -24 -2 -94q-2 -69 -2 -112q0 -277 4 -308q20 -63 55 -79q23 -5 51 -33q0 -43 -71 -86zM40 1050q31 37 86 94q53 55 74 57q47 -28 119 -80q67 -49 67 -77q0 -9 -53 -62
q-55 -55 -92 -86q-21 0 -107 70q-90 69 -94 84zM444 1049q0 16 78 92q82 80 92 80q6 0 55 -41q50 -43 86 -86q35 -43 35 -55q-10 -19 -155 -142q-11 0 -56 31q-47 29 -88 68q-43 36 -47 53z" />
    <glyph glyph-name="yacute" unicode="&#xfd;" horiz-adv-x="932" 
d="M697 270q-64 -141 -355 -700l103 -90q0 -23 -49 -64q-52 -41 -70 -41q-39 19 -70 37q-69 43 -82 78l287 537q-10 55 -102 264q-96 211 -139 266q-68 84 -150 115q-18 6 -47 16q-23 8 -23 35q93 88 154 88q186 -43 287 -266q22 -58 67 -172q33 -84 66 -121q55 67 92 205
q41 147 41 307q0 18 27 39q26 22 53 22q45 0 45 -67v-6q-6 -191 -135 -482zM119 912q0 42 75 112q70 62 105 72t58 19q250 85 332 85q41 0 80 -21q-195 -190 -252 -213q-100 -68 -275 -68q-59 0 -123 14z" />
    <glyph glyph-name="thorn" unicode="&#xfe;" horiz-adv-x="1005" 
d="M522 694q-57 0 -129 -63q-70 -66 -70 -119v-203q0 -104 92 -178q78 -59 146 -59q78 0 129 98q43 86 43 188q0 172 -99 271q-67 65 -112 65zM138 244q-3 21 -3 43v833q0 45 -68 97q-67 49 -67 71q0 27 69 33q35 2 94 6q136 68 156 68v-709q31 6 123 68q104 71 176 71
q143 0 221 -141q66 -119 66 -287q-2 -235 -172 -338q-103 -61 -109 -63q-55 -27 -127 -27q-101 0 -179 37q0 -87 -2 -262q-2 -211 -2 -260q0 -55 82 -55q27 0 76 6t63 6q39 0 39 -25q0 -12 -10 -26q-8 -11 -43 -11q-37 0 -96 -6q-138 -14 -189 -14q-2 0 -33 -8
q-30 -6 -137 -31q-10 29 -10 43q0 27 27 33l36 8q17 12 17 84v651z" />
    <glyph glyph-name="ydieresis" unicode="&#xff;" horiz-adv-x="932" 
d="M697 270q-64 -141 -355 -700l103 -90q0 -23 -49 -64q-52 -41 -70 -41q-39 19 -70 37q-69 43 -82 78l287 537q-10 55 -102 264q-96 211 -139 266q-68 84 -150 115q-18 6 -47 16q-23 8 -23 35q93 88 154 88q186 -43 287 -266q22 -58 67 -172q33 -84 66 -121q55 67 92 205
q41 147 41 307q0 18 27 39q26 22 53 22q45 0 45 -67v-6q-6 -191 -135 -482zM60 1050q31 37 86 94q53 55 74 57q47 -28 119 -80q67 -49 67 -77q0 -9 -53 -62q-55 -55 -92 -86q-21 0 -107 70q-90 69 -94 84zM464 1049q0 16 78 92q82 80 92 80q6 0 55 -41q50 -43 86 -86
q35 -43 35 -55q-10 -19 -155 -142q-11 0 -56 31q-47 29 -88 68q-43 36 -47 53z" />
    <glyph glyph-name="dotlessi" unicode="&#x131;" horiz-adv-x="627" 
d="M486 141l-49 -28q-60 -45 -189 -121q-33 -21 -43 -21q-18 0 -33 21q-6 12 -6 442v76q0 131 -22 170q-21 37 -105 74q-39 18 -39 43q0 12 11 28q125 33 311 74q55 0 55 -63q0 -13 -2 -37.5t-2 -34.5v-596q23 4 66 31q41 24 55 24q10 0 16 -6q17 -10 17 -27q0 -22 -41 -49z
" />
    <glyph glyph-name="OE" unicode="&#x152;" horiz-adv-x="2454" 
d="M590 1313q-207 0 -305 -191q-59 -116 -59 -227v-170q0 -143 94 -317q33 -109 168 -211q135 -101 244 -101h118q125 0 205 154q72 141 72 336q0 327 -144 524q-145 203 -393 203zM1633 1270q-84 -2 -176 -121q-96 -123 -96 -244q6 -39 24 -49q14 -8 59 -8q478 0 607 29
q-41 106 -170 241q-142 152 -244 152h-4zM2043 698q-678 0 -682 -67q49 -228 208 -361q158 -129 375 -129q144 0 268 56q7 24 15 233q2 111 8 266q-6 0 -72 2h-120zM1248 244q-44 -58 -103 -109q-188 -164 -389 -164h-145q-250 0 -430 193q-181 194 -181 469v168
q0 123 70 266q86 180 240 260q53 31 143 74q55 22 123 22h184q252 0 432 -202q35 -39 63 -81q36 70 67 101q55 55 186 111q154 63 279 63q83 0 309 -178q35 -27 47 -35q98 166 123 166q8 0 28 -12q2 0 15 -6q-6 -25 -39 -90q-150 -306 -150 -369q0 -6 52 -6q63 0 182 18
q0 -16 -25 -352q-26 -338 -26 -346v-400q-15 -4 -21 -8l-14 -8q-10 -6 -49 -14v329q-303 -131 -478 -131q-34 0 -49 2q-268 37 -399 201q-24 30 -45 68z" />
    <glyph glyph-name="oe" unicode="&#x153;" horiz-adv-x="1406" 
d="M336 715q-14 0 -26 -6q-68 -27 -107 -97q-37 -63 -37 -137q0 -113 58 -205q77 -123 237 -166q88 0 111 82q12 45 12 224q0 125 -88 221q-80 84 -160 84zM911 711q-76 0 -119 -219q47 18 131 59q92 43 92 51q0 12 -47 60q-49 49 -57 49zM647 115q-26 -22 -57 -45
q-127 -93 -229 -93h-8q-226 9 -326 207q-27 54 -27 170q0 64 9 154q12 137 151 219q74 43 262 100q21 7 41 7q111 0 211 -101q15 -15 28 -32q98 102 281 102q81 0 149 -55q59 -50 72 -50q6 0 32.5 14.5t38.5 14.5q31 0 31 -39q0 -14 -51 -43q-25 -12 -57 -29
q-84 -41 -256 -131q-156 -86 -156 -125q0 -110 65 -184q68 -82 185 -82q53 0 120.5 52.5t86.5 52.5q16 0 39 -41q-33 -39 -111 -117q-166 -82 -260 -82q-125 0 -215 94q-28 28 -49 62z" />
    <glyph glyph-name="circumflex" unicode="&#x2c6;" horiz-adv-x="680" 
d="M448 1539q-144 163 -175 163q-21 0 -69 -56q-32 -37 -114 -125q-27 -21 -47 -21q-37 0 -43 60q51 117 174 235q113 108 161 108q6 0 10 -3q58 -49 118 -115q32 -37 103 -115q3 -9 5 -19l9 -50q-52 -78 -90 -78q-23 0 -42 16z" />
    <glyph glyph-name="caron" unicode="&#x2c7;" horiz-adv-x="680" 
d="M132 1864q144 -163 175 -163q21 0 69 56q32 37 114 125q27 21 47 21q37 0 43 -60q-51 -117 -174 -235q-113 -108 -161 -108q-6 0 -10 3q-58 49 -118 115q-32 37 -103 115q-3 9 -5 19l-9 50q52 78 90 78q23 0 42 -16z" />
    <glyph glyph-name="uni02C9" unicode="&#x2c9;" horiz-adv-x="616" 
d="M0 1195v125h516v-125h-516z" />
    <glyph glyph-name="breve" unicode="&#x2d8;" horiz-adv-x="684" 
d="M0 1349h51q17 -73 75 -107t167 -34t166 33.5t74 107.5h51q-20 -133 -94 -201.5t-197 -68.5q-122 0 -197 69t-96 201z" />
    <glyph glyph-name="dotaccent" unicode="&#x2d9;" horiz-adv-x="446" 
d="M0 1650q31 37 86 94q53 55 74 57q47 -28 119 -80q67 -49 67 -77q0 -9 -53 -62q-55 -55 -92 -86q-21 0 -107 70q-90 69 -94 84z" />
    <glyph glyph-name="ring" unicode="&#x2da;" horiz-adv-x="571" 
d="M253 1500q-155 0 -212 61q-41 42 -41 132q0 62 66 105q65 43 165 52q19 2 28 2q67 0 127 -28q53 -24 64 -50q21 -48 21 -95q0 -74 -55 -121q-58 -48 -163 -58zM222 1768q-11 0 -15 -1q-28 -8 -43 -36q-8 -16 -8 -35q0 -40 27 -74q28 -35 65 -35q7 0 39 10q8 2 21 7
q12 6 19 30q0 45 -25 85q-30 49 -80 49z" />
    <glyph glyph-name="ogonek" unicode="&#x2db;" horiz-adv-x="468" 
d="M271 0q-71 -62 -110.5 -119.5t-39.5 -112.5q0 -47 27 -75t73 -28q40 0 69.5 15.5t49.5 48.5l28 -16q-36 -63 -90.5 -97t-119.5 -34q-70 0 -114 35.5t-44 90.5q0 76 60.5 156.5t161.5 135.5h49z" />
    <glyph glyph-name="tilde" unicode="&#x2dc;" horiz-adv-x="894" 
d="M612 1519q-24 -17 -57 -17q-39 0 -113 29q-107 41 -152 41q-14 0 -26 -2q-64 -13 -264 -144l243 243q114 75 185 75q41 0 128.5 -28.5t130.5 -28.5q54 0 107 13z" />
    <glyph glyph-name="hungarumlaut" unicode="&#x2dd;" horiz-adv-x="689" 
d="M0 1079l144 273q24 44 45.5 63t46.5 19q28 0 48 -20t20 -47q0 -16 -10.5 -35t-30.5 -41l-205 -212h-58zM285 1079l144 273q24 44 45.5 63t46.5 19q28 0 48 -20t20 -47q0 -16 -10.5 -35t-30.5 -41l-205 -212h-58z" />
    <glyph glyph-name="endash" unicode="&#x2013;" horiz-adv-x="1096" 
d="M0 419v120h996v-120h-996z" />
    <glyph glyph-name="emdash" unicode="&#x2014;" horiz-adv-x="2148" 
d="M0 419v120h2048v-120h-2048z" />
    <glyph glyph-name="quoteleft" unicode="&#x2018;" horiz-adv-x="467" 
d="M367 1107q-29 -48 -84 -121.5t-88 -81.5h-4q-25 0 -111 67q-80 68 -80 103q0 4 2 8q68 72 176 184q111 113 138 127q12 4 22 4q12 0 19 -8q8 -8 8 -16q0 -6 -4 -14l-115 -119q-2 -8 -2 -15q0 -14 8 -24q12 -12 45 -33q35 -18 47 -29q15 -10 23 -32z" />
    <glyph glyph-name="quoteright" unicode="&#x2019;" horiz-adv-x="467" 
d="M0 1194q29 48 84 121.5t88 81.5h4q25 0 111 -67q80 -68 80 -103q0 -4 -2 -8q-68 -72 -176 -184q-111 -113 -138 -127q-12 -4 -22 -4q-12 0 -19 8q-8 8 -8 16q0 6 4 14l115 119q2 8 2 15q0 14 -8 24q-12 12 -45 33q-35 18 -47 29q-15 10 -23 32z" />
    <glyph glyph-name="quotesinglbase" unicode="&#x201a;" horiz-adv-x="467" 
d="M0 49q29 48 84 121.5t88 81.5h4q25 0 111 -67q80 -68 80 -103q0 -4 -2 -8q-68 -72 -176 -184q-111 -113 -138 -127q-12 -4 -22 -4q-12 0 -19 8q-8 8 -8 16q0 6 4 14l115 119q2 8 2 15q0 14 -8 24q-12 12 -45 33q-35 18 -47 29q-15 10 -23 32z" />
    <glyph glyph-name="quotedblleft" unicode="&#x201c;" horiz-adv-x="866" 
d="M766 1107q-29 -48 -84 -121.5t-88 -81.5h-4q-25 0 -111 67q-80 68 -80 103q0 4 2 8q68 72 176 184q111 113 138 127q12 4 22 4q12 0 19 -8q8 -8 8 -16q0 -6 -4 -14l-115 -119q-2 -8 -2 -15q0 -14 8 -24q12 -12 45 -33q35 -18 47 -29q15 -10 23 -32zM367 1107
q-29 -48 -84 -121.5t-88 -81.5h-4q-25 0 -111 67q-80 68 -80 103q0 4 2 8q68 72 176 184q111 113 138 127q12 4 22 4q12 0 19 -8q8 -8 8 -16q0 -6 -4 -14l-115 -119q-2 -8 -2 -15q0 -14 8 -24q12 -12 45 -33q35 -18 47 -29q15 -10 23 -32z" />
    <glyph glyph-name="quotedblright" unicode="&#x201d;" horiz-adv-x="866" 
d="M0 1194q29 48 84 121.5t88 81.5h4q25 0 111 -67q80 -68 80 -103q0 -4 -2 -8q-68 -72 -176 -184q-111 -113 -138 -127q-12 -4 -22 -4q-12 0 -19 8q-8 8 -8 16q0 6 4 14l115 119q2 8 2 15q0 14 -8 24q-12 12 -45 33q-35 18 -47 29q-15 10 -23 32zM399 1194q29 48 84 121.5
t88 81.5h4q25 0 111 -67q80 -68 80 -103q0 -4 -2 -8q-68 -72 -176 -184q-111 -113 -138 -127q-12 -4 -22 -4q-12 0 -19 8q-8 8 -8 16q0 6 4 14l115 119q2 8 2 15q0 14 -8 24q-12 12 -45 33q-35 18 -47 29q-15 10 -23 32z" />
    <glyph glyph-name="quotedblbase" unicode="&#x201e;" horiz-adv-x="868" 
d="M401 49q29 48 84 121.5t88 81.5h4q25 0 111 -67q80 -68 80 -103q0 -4 -2 -8q-68 -72 -176 -184q-111 -113 -138 -127q-12 -4 -22 -4q-12 0 -19 8q-8 8 -8 16q0 6 4 14l115 119q2 8 2 15q0 14 -8 24q-12 12 -45 33q-35 18 -47 29q-15 10 -23 32zM0 49q29 48 84 121.5
t88 81.5h4q25 0 111 -67q80 -68 80 -103q0 -4 -2 -8q-68 -72 -176 -184q-111 -113 -138 -127q-12 -4 -22 -4q-12 0 -19 8q-8 8 -8 16q0 6 4 14l115 119q2 8 2 15q0 14 -8 24q-12 12 -45 33q-35 18 -47 29q-15 10 -23 32z" />
    <glyph glyph-name="dagger" unicode="&#x2020;" horiz-adv-x="973" 
d="M415 1022q-8 97 -54 178q-57 101 -57 129q0 49 36 78.5t96 29.5q57 0 94.5 -27.5t37.5 -71.5q0 -32 -55 -137q-46 -85 -55 -179q96 8 177 54q101 57 129 57q49 0 79 -36t30 -96q0 -57 -27.5 -94.5t-72.5 -37.5q-32 0 -136 55q-85 46 -179 57q8 -176 110 -277
q-106 -460 -112 -974h-38q-6 514 -114 974q102 101 111 277q-96 -10 -178 -55q-101 -57 -129 -57q-49 0 -78.5 36t-29.5 96q0 57 27.5 94.5t71.5 37.5q32 0 137 -56q85 -46 179 -55z" />
    <glyph glyph-name="daggerdbl" unicode="&#x2021;" horiz-adv-x="973" 
d="M458 186q94 11 179 57q104 55 136 55q45 0 72.5 -37.5t27.5 -94.5q0 -60 -30 -96t-79 -36q-28 0 -129 57q-81 46 -177 54q9 -94 55 -179q55 -105 55 -137q0 -44 -37.5 -71.5t-94.5 -27.5q-60 0 -96 29.5t-36 78.5q0 28 57 129q46 81 54 178q-94 -9 -179 -55
q-105 -56 -137 -56q-44 0 -71.5 37.5t-27.5 94.5q0 60 29.5 96t78.5 36q28 0 129 -57q82 -45 178 -55q-9 226 -111 398q102 171 111 397q-96 -10 -178 -55q-101 -57 -129 -57q-49 0 -78.5 36t-29.5 96q0 57 27.5 94.5t71.5 37.5q32 0 137 -56q85 -46 179 -55q-8 97 -54 178
q-57 101 -57 129q0 49 36 78.5t96 29.5q57 0 94.5 -27.5t37.5 -71.5q0 -32 -55 -137q-46 -85 -55 -179q96 8 177 54q101 57 129 57q49 0 79 -36t30 -96q0 -57 -27.5 -94.5t-72.5 -37.5q-32 0 -136 55q-85 46 -179 57q8 -226 110 -397q-102 -172 -110 -398z" />
    <glyph glyph-name="bullet" unicode="&#x2022;" horiz-adv-x="692" 
d="M0 718q0 123 87 209t210 86q122 0 208.5 -86.5t86.5 -208.5t-87.5 -209.5t-209.5 -87.5q-123 0 -209 87t-86 210z" />
    <glyph glyph-name="ellipsis" unicode="&#x2026;" horiz-adv-x="1263" 
d="M0 121l168 150q51 -29 127 -78q68 -47 68 -78v-4q0 -4 -162 -139q-27 0 -113 69q-88 70 -88 80zM400 121l168 150q51 -29 127 -78q68 -47 68 -78v-4q0 -4 -162 -139q-27 0 -113 69q-88 70 -88 80zM800 121l168 150q51 -29 127 -78q68 -47 68 -78v-4q0 -4 -162 -139
q-27 0 -113 69q-88 70 -88 80z" />
    <glyph glyph-name="perthousand" unicode="&#x2030;" horiz-adv-x="1661" 
d="M224 1147q-12 -39 -12 -85q0 -101 41.5 -186t98.5 -85q22 0 46 16q23 12 46 25q19 17 25 51t6 51q0 93 -41 201t-118 108q-11 0 -25 -4q-16 -12 -35.5 -32.5t-31.5 -59.5zM751 511q-12 -39 -12 -85q0 -101 41.5 -186t98.5 -85q22 0 46 16q23 12 46 25q19 17 25 51t6 51
q0 93 -41 201t-118 108q-11 0 -25 -4q-16 -12 -35.5 -32.5t-31.5 -59.5zM1161 511q-12 -39 -12 -85q0 -101 41.5 -186t98.5 -85q22 0 46 16q23 12 46 25q19 17 25 51t6 51q0 93 -41 201t-118 108q-11 0 -25 -4q-16 -12 -35.5 -32.5t-31.5 -59.5zM657 604q2 3 5 6
q79 81 201 99q12 2 35 2q79 0 146 -48q25 -18 43 -39q75 69 186 85q12 2 35 2q79 0 146 -48t87 -118.5t20 -158.5q0 -139 -68.5 -229t-194.5 -108q-172 0 -236 84q-66 -69 -174 -84q-185 0 -245 96.5t-60 267.5q0 54 18 101q-16 -22 -33 -54q-22 -51 -45 -99
q-79 -167 -170 -261q-39 -41 -116 -78q-31 -16 -66 -29q-58 0 -171 141q0 12 17 12q11 0 38 -4t38 -4q45 10 122 90q66 69 200 303q105 185 125 244q-67 -74 -179 -90q-185 0 -245 96.5t-60 267.5q0 115 79 196.5t201 99.5q12 2 35 2q79 0 146 -48t87 -118.5t20 -158.5
q0 -75 -20 -136q30 48 52 90q57 117 90 182q133 258 232 258q6 0 21 -3q17 -10 22 -16q20 -26 68 -56q39 -26 40 -27q15 -12 15 -29q-5 -14 -25 -14h-27q-72 0 -117 -71q-161 -294 -288 -536z" />
    <glyph glyph-name="guilsinglleft" unicode="&#x2039;" horiz-adv-x="982" 
d="M748 1160q134 0 134 -51q-40 -105 -71 -109q-14 0 -82 53l-74 -20q-33 0 -76 -38q-94 -18 -231 -104q-133 -54 -139 -89q18 -25 272 -145q113 -54 195 -97q90 -47 118 -73q62 -52 62 -119q0 -51 -37 -103q-33 -43 -53 -43q-15 2 -25 17q-8 14 -16 26q-60 90 -277 183
q-274 116 -387 211q-61 49 -61 75q0 39 149 168q158 96 310 157q191 91 289 101z" />
    <glyph glyph-name="guilsinglright" unicode="&#x203a;" horiz-adv-x="982" 
d="M134 222q-134 0 -134 51q40 105 71 109q14 0 82 -53l74 20q33 0 76 38q94 18 231 104q133 54 139 89q-18 25 -272 145q-113 54 -195 97q-90 47 -118 73q-62 52 -62 119q0 51 37 103q33 43 53 43q15 -2 25 -17q8 -14 16 -26q60 -90 277 -183q274 -116 387 -211
q61 -49 61 -75q0 -39 -149 -168q-158 -96 -310 -157q-191 -91 -289 -101z" />
    <glyph glyph-name="fraction" unicode="&#x2044;" horiz-adv-x="1244" 
d="M0 134q0 12 17 12q11 0 38 -4t38 -4q45 10 122 90q66 69 200 303q130 230 130 264q69 102 111 181q57 117 90 182q133 258 232 258q6 0 21 -3q17 -10 22 -16q20 -26 68 -56q39 -26 40 -27q15 -12 15 -29q-5 -14 -25 -14h-27q-72 0 -117 -71q-161 -294 -288 -536l-57 -113
q-27 -27 -62 -91q-22 -51 -45 -99q-79 -167 -170 -261q-39 -41 -116 -78q-31 -16 -66 -29q-58 0 -171 141z" />
    <glyph glyph-name="fraction" unicode="&#x2215;" horiz-adv-x="1244" 
d="M0 134q0 12 17 12q11 0 38 -4t38 -4q45 10 122 90q66 69 200 303q130 230 130 264q69 102 111 181q57 117 90 182q133 258 232 258q6 0 21 -3q17 -10 22 -16q20 -26 68 -56q39 -26 40 -27q15 -12 15 -29q-5 -14 -25 -14h-27q-72 0 -117 -71q-161 -294 -288 -536l-57 -113
q-27 -27 -62 -91q-22 -51 -45 -99q-79 -167 -170 -261q-39 -41 -116 -78q-31 -16 -66 -29q-58 0 -171 141z" />
    <glyph glyph-name="franc" unicode="&#x20a3;" horiz-adv-x="1091" 
d="M627 1282q-52 0 -84 -18q-93 -54 -93 -95v-268q48 -2 383 -2l39 270q-2 27 -80 68q-86 45 -165 45zM246 -28q-32 -2 -66 -5q-84 -8 -92 -8h-37v68q113 16 143 32q39 23 39 82v590h-161q-15 27 -27 129h82q92 0 110 10v146q0 71 -36 164q-43 102 -93 102q-10 0 -30.5 -8
t-36.5 -8q-41 0 -41 49q219 112 237 112q39 0 99 -63q61 -61 80 -61q6 4 14 8q8 6 14 10q160 113 297 113q250 -43 250 -84q-82 -326 -82 -445v-4q0 -10 2 -41v-47q0 -106 -16 -182q-17 -88 -47 -88q-4 2 -17 178l-14 10q-25 19 -53 19h-256q-47 0 -60 -13q-8 -8 -8 -45
v-370q-2 -17 -2 -33q0 -148 43 -193q35 -39 205 -39q53 0 102 4q47 -4 47 -47q0 -39 -67 -39h-340q-1 -84 -2 -231q-2 -211 -2 -260q0 -55 82 -55q27 0 76 6t63 6q39 0 39 -25q0 -12 -10 -26q-8 -11 -43 -11q-37 0 -96 -6q-138 -14 -189 -14q-2 0 -33 -8q-30 -6 -137 -31
q-10 29 -10 43q0 27 27 33l36 8q17 12 17 84v484z" />
    <glyph glyph-name="lira" unicode="&#x20a4;" horiz-adv-x="1431" 
d="M302 1038q34 120 97 207q133 185 346 185h8q88 -3 240 -119q151 -115 153 -115q4 0 55 84q54 84 80 84q17 0 33 -16q17 -17 17 -39q-25 -25 -105 -156q-100 -168 -110 -230l-26 -63l-43 40q-294 398 -401 398q-62 0 -111 -82q-14 -59 -22 -167q96 -1 318 -1l76 2
q0 -10 2 -41v-47q-10 -56 -80 -92l-14 10q-25 19 -53 19h-257q-1 -48 -2 -101l1 -69q93 -1 333 -1l76 2q0 -10 2 -41v-47q-10 -56 -80 -92l-14 10q-25 19 -53 19h-262l5 -300q0 -125 21 -173q10 -22 57 -22q14 0 94 8q404 41 494 105q6 4 24 22l9 10q26 33 110 41v-575h-78
q0 72 3 145v86q0 56 -17 70q-12 4 -63 4h-68q-45 -2 -68 -2h-499l-183 -14q-38 -4 -184 -13q-78 -4 -84 -4q-65 0 -74 21q-4 16 -4 22q0 33 47 41q17 2 89 6q59 2 81 9q41 10 48 38l-4 467q-12 -1 -25 -1l-201 10q-15 27 -27 129q129 0 251 6v32q2 76 12 145q-20 -1 -41 -2
l-201 10q-15 27 -27 129q153 0 299 9z" />
    <glyph glyph-name="peseta" unicode="&#x20a7;" horiz-adv-x="1476" 
d="M727 1313q-98 0 -158 -66q-45 -49 -45 -90v-397q0 -174 33 -232q35 -41 188 -92q140 -47 185 -47q106 0 176 182q51 140 51 254q0 211 -113 346q-118 142 -317 142zM336 -23q-32 -4 -74 -10q-102 -14 -154 -14q-34 0 -43 6q-12 8 -12 39q0 35 74 39q45 0 147 8
q58 8 58 193v436q0 37 -25 239q-27 234 -45 283q-8 21 -129 43q-59 10 -88 18q-45 13 -45 33q0 39 45 39q295 -59 387 -59q20 0 55 24q23 17 72 56q113 86 231 86h125q158 0 303 -136q158 -147 158 -342v-139q0 -160 -162 -342q-174 -196 -360 -196h-109l-190 38
q-21 -8 -21 -32v-176q0 -50 25 -50h252q131 0 272 -24q137 -25 137 -45q0 -35 -36 -39l-260 29h-406q-1 -85 -2 -238q-2 -211 -2 -260q0 -55 82 -55q27 0 76 6t63 6q39 0 39 -25q0 -12 -10 -26q-8 -11 -43 -11q-37 0 -96 -6q-138 -14 -189 -14q-2 0 -33 -8q-30 -6 -137 -31
q-10 29 -10 43q0 27 27 33l36 8q17 12 17 84v489z" />
    <glyph glyph-name="Euro" unicode="&#x20ac;" horiz-adv-x="1327" 
d="M236 894q-19 -82 -19 -159q2 -12 4 -25q167 5 324 20q48 -2 383 -2l76 2q0 -10 2 -41v-47q-10 -56 -80 -92l-14 10q-25 19 -53 19h-256q-47 0 -275 -9l-75 4q54 -174 169 -304q168 -188 387 -188q23 0 188 88q175 92 209 92v-170q0 -422 -32 -422h-64q2 94 2 174v185
l2 10l-129 -27q-141 -26 -307 -26q-285 0 -459 141q-108 88 -170 309q-49 182 -49 350q0 230 139 396q105 125 279 196q129 56 213 56q143 0 268 -101q29 -24 80 -65q37 -29 59 -29q2 0 66 43q61 43 66 47q38 0 57 -55l-266 -225l37 1q0 -10 2 -41v-47q-10 -56 -80 -92
l-14 10q-25 19 -53 19h-256q-47 0 -275 -9zM280 1033q133 5 259 17q47 -2 367 -2l-29 29q-217 226 -365 226q-108 0 -205 -209q-14 -31 -27 -61z" />
    <glyph glyph-name="uni2116" unicode="&#x2116;" horiz-adv-x="1500" 
d="M1012 1401q-103 0 -152 -95q-30 -58 -30 -114v-85q0 -71 47 -158q17 -55 84 -106q68 -50 122 -50h59q63 0 103 77q36 70 36 168q0 163 -72 262q-73 101 -197 101zM753 903l1 -201q-43 0 -56 57q-117 117 -230 213q-5 4 -53 53q-79 80 -105 106q-80 76 -104 85
q-7 -129 -7 -163v-120q-1 -62 -1 -73q0 -53 10 -68q15 -23 66 -23q11 0 30 1q20 1 27 1q25 0 30 -8q4 -7 4 -10q0 -23 -82 -23q-11 0 -33 1h-27l-26 -1q-11 0 -49 -5q-36 -4 -54 -4q-46 0 -46 19q0 4 1 6l2 4q10 20 24 20q6 0 19 -3q11 -4 17 -4q7 0 20 5q20 11 20 274
q0 186 -4 212q-3 33 -18 110q-3 13 -7 33q-2 15 -20 15q-14 0 -41 -6q-28 -7 -40 -7q-21 0 -21 15q0 9 5 17q5 9 94 21q61 8 73 8q20 0 20 -13q0 -2 -1 -10q-2 -8 -2 -15q0 -38 55 -89q66 -61 240 -221q185 -169 213 -189q7 28 7 234q0 215 -7 230q-10 12 -47 12h-22
q-33 0 -33 24q4 14 33 14h21q15 -1 26 -1q61 0 103 4l37 3q25 0 25 -23q0 -14 -9 -19q-2 -1 -20 -4q-57 -10 -57 -33l-1 -83q43 88 119 127q27 16 72 37q27 11 61 11h92q126 0 216 -101q87 -97 87 -226v-81q0 -140 -110 -236q-94 -82 -195 -82h-72q-125 0 -215 97
q-34 35 -55 76z" />
    <glyph glyph-name="trademark" unicode="&#x2122;" horiz-adv-x="1616" 
d="M679 1424q-7 -7 -15 -14q-24 -18 -47 -27q-48 -18 -123 -18q-77 0 -81 -12v-514q0 -29 74 -30q20 0 55 -1q29 -3 29 -19q0 -8 -6 -18q-128 3 -229 3q-49 0 -104 -12t-66 -12q-27 0 -27 36l155 26q17 12 17 144l-1 298q-1 70 -9 95q-6 21 -30 21h-37q-1 0 -21 1h-36
q-96 0 -117 -13q-23 -14 -23 -47v-28q-37 0 -37 42q0 37 21 73q28 49 124 49q31 0 163 -5q132 -6 199 -6q83 0 117 6v2q6 7 23 11q0 4 -8 15q-8 12 -8 18t5 11q37 29 52 29q13 0 21 -13q8 -12 8 -26t-9 -29q86 0 100 6q11 8 95 36q17 -28 17 -32q0 -9 -22 -13
q-12 -3 -45 -17q41 -55 133 -272q40 -95 62 -151q8 -18 20 -54q24 61 102 245q80 186 96 213q6 11 6 15q0 6 -14 6q-7 0 -19 -1q-13 -1 -19 -1q-32 0 -32 23q0 4 2 11q3 11 16 11h11q8 -1 15 -1q23 0 44 3q57 8 72 11q43 8 71 18q8 2 11 2q5 0 12 -2q11 -3 11 -22
q0 -10 -8 -15q-3 0 -36 -8q-34 -8 -38 -11q-1 0 -1 -36q0 -100 19 -355q16 -245 21 -246q17 -7 67 -12q39 -4 39 -24q0 -4 -1 -6l-1 -5q-3 -9 -20 -9q-31 0 -137 27q-18 0 -51 -12q-35 -12 -51 -12q-25 0 -31 31q50 8 68 24q16 12 16 38q0 12 -5 50t-5 65q0 294 -25 345
q-31 -46 -130 -288q-47 -116 -70 -166q-34 -76 -48 -76q-11 2 -17 28q-8 25 -20 76q-12 48 -81 218q-79 198 -109 221q-21 -68 -65 -502q59 -12 112 -27q0 -36 -37 -36q-15 0 -42 6q-31 7 -41 8q-17 2 -25 2q-28 0 -51 -10q-21 -13 -26 -13t-12 4q-11 10 -11 19q0 12 27 22
q18 5 36.5 11.5t25.5 9.5q9 5 38 249q16 147 33 294q0 53 -51 53q-12 0 -30 -2z" />
    <glyph glyph-name="partialdiff" unicode="&#x2202;" 
d="M0 200v1100q0 200 200 200h1100q200 0 200 -200v-1100q0 -200 -200 -200h-1100q-200 0 -200 200zM1475 201v1099q0 175 -175 175h-1100q-174 0 -175 -175v-1100q1 -175 175 -175h1101q174 0 174 176z" />
    <glyph glyph-name="Delta" unicode="&#x2206;" 
d="M0 200v1100q0 200 200 200h1100q200 0 200 -200v-1100q0 -200 -200 -200h-1100q-200 0 -200 200zM1475 201v1099q0 175 -175 175h-1100q-174 0 -175 -175v-1100q1 -175 175 -175h1101q174 0 174 176z" />
    <glyph glyph-name="product" unicode="&#x220f;" 
d="M0 200v1100q0 200 200 200h1100q200 0 200 -200v-1100q0 -200 -200 -200h-1100q-200 0 -200 200zM1475 201v1099q0 175 -175 175h-1100q-174 0 -175 -175v-1100q1 -175 175 -175h1101q174 0 174 176z" />
    <glyph glyph-name="summation" unicode="&#x2211;" 
d="M0 200v1100q0 200 200 200h1100q200 0 200 -200v-1100q0 -200 -200 -200h-1100q-200 0 -200 200zM1475 201v1099q0 175 -175 175h-1100q-174 0 -175 -175v-1100q1 -175 175 -175h1101q174 0 174 176z" />
    <glyph glyph-name="minus" unicode="&#x2212;" horiz-adv-x="1011" 
d="M909 901q0 -10 2 -41v-47q-10 -56 -80 -92l-14 10q-25 19 -53 19h-256q-47 0 -275 -9l-201 10q-15 27 -27 129q232 0 445 21q48 -2 383 -2z" />
    <glyph glyph-name="approxequal" unicode="&#x2248;" 
d="M0 200v1100q0 200 200 200h1100q200 0 200 -200v-1100q0 -200 -200 -200h-1100q-200 0 -200 200zM1475 201v1099q0 175 -175 175h-1100q-174 0 -175 -175v-1100q1 -175 175 -175h1101q174 0 174 176z" />
    <glyph glyph-name="lessequal" unicode="&#x2264;" 
d="M0 200v1100q0 200 200 200h1100q200 0 200 -200v-1100q0 -200 -200 -200h-1100q-200 0 -200 200zM1475 201v1099q0 175 -175 175h-1100q-174 0 -175 -175v-1100q1 -175 175 -175h1101q174 0 174 176z" />
    <glyph glyph-name="greaterequal" unicode="&#x2265;" 
d="M0 200v1100q0 200 200 200h1100q200 0 200 -200v-1100q0 -200 -200 -200h-1100q-200 0 -200 200zM1475 201v1099q0 175 -175 175h-1100q-174 0 -175 -175v-1100q1 -175 175 -175h1101q174 0 174 176z" />
    <glyph glyph-name="uniF001" unicode="&#xf001;" horiz-adv-x="100" 
 />
    <glyph glyph-name="uniF001" unicode="&#xfb01;" horiz-adv-x="100" 
 />
    <glyph glyph-name="uniF002" unicode="&#xf002;" horiz-adv-x="100" 
 />
    <glyph glyph-name="uniF002" unicode="&#xfb02;" horiz-adv-x="100" 
 />
    </font>
</defs>
</svg>
